{
.appVersion = "1342";
classes = (
{
code = "";
name = all_but_space;
}
);
copyright = "Copyright (c) 2015, Impallari Type (www.impallari.com)";
customParameters = (
{
name = fsType;
value = (
);
},
{
name = licenseURL;
value = "SIL Open Font License, Version 1.1: https://scripts.sil.org/cms/scripts/page.php?site_id=nrsi&id=OFL_web; USWDS Modified Version: https://github.com/uswds/public-sans/blob/master/LICENSE.md";
},
{
name = license;
value = "This Font Software is licensed under the SIL Open Font License, Version 1.1. This license is available with a FAQ at: http://scripts.sil.org/OFL. The license for USWDS’s Modified Version, covering USWDS’s modifications to Public Sans, is available at https://github.com/uswds/public-sans/blob/master/LICENSE.md.";
},
{
name = description;
value = "Public Sans is based on Libre Franklin, which is a reinterpretation and expansion of the 1912 Morris Fuller Benton’s classic.";
},
{
name = Axes;
value = (
{
Name = Weight;
Tag = wght;
}
);
},
{
name = "Use Typo Metrics";
value = 1;
}
);
date = "2020-01-08 15:55:24 +0000";
designer = "The Public Sans project authors (U.S. Web Design System). Libre Franklin designed by Pablo Impallari and Rodrigo Fuenzalida.";
designerURL = "https://designsystem.digital.gov and http://www.impallari.com";
familyName = "Public Sans";
featurePrefixes = (
{
automatic = 1;
code = "languagesystem DFLT dflt;\012languagesystem latn dflt;\012languagesystem latn CAT;\012languagesystem latn ROM;\012languagesystem latn MOL;\012languagesystem latn KAZ;\012languagesystem cyrl TAT;\012languagesystem latn TRK;\012languagesystem latn CRT;\012languagesystem latn AZE;\012";
name = Languagesystems;
}
);
features = (
{
automatic = 1;
code = "feature locl;\012feature subs;\012feature sinf;\012feature sups;\012feature numr;\012feature dnom;\012feature frac;\012feature ordn;\012feature lnum;\012feature pnum;\012feature tnum;\012feature onum;\012feature salt;\012feature ss01;\012";
name = aalt;
},
{
automatic = 1;

glyphs = (
{
color = 6;
glyphname = A;
lastChange = "2020-07-15 15:32:33 +0000";
layers = (
{
anchors = (
{
name = bottom;
position = "{742, 0}";
},
{
name = ogonek;
position = "{1406, 10}";
},
{
name = top;
position = "{742, 1446}";
}
);
background = {
anchors = (
{
name = ogonek;
position = "{1470, 18}";
},
{
name = top;
position = "{768, 1484}";
}
);
paths = (
{
closed = 1;
nodes = (
"368 0 LINE SMOOTH",
"397 0 OFFCURVE",
"410 14 OFFCURVE",
"416 30 CURVE SMOOTH",
"498 266 LINE SMOOTH",
"502 280 OFFCURVE",
"512 288 OFFCURVE",
"528 288 CURVE SMOOTH",
"952 288 LINE SMOOTH",
"972 288 OFFCURVE",
"976 278 OFFCURVE",
"982 264 CURVE SMOOTH",
"1060 34 LINE SMOOTH",
"1068 8 OFFCURVE",
"1084 0 OFFCURVE",
"1104 0 CURVE SMOOTH",
"1496 0 LINE SMOOTH",
"1526 0 OFFCURVE",
"1534 40 OFFCURVE",
"1524 68 CURVE SMOOTH",
"1044 1430 LINE SMOOTH",
"1032 1462 OFFCURVE",
"1006 1484 OFFCURVE",
"972 1484 CURVE SMOOTH",
"578 1484 LINE SMOOTH",
"542 1484 OFFCURVE",
"530 1470 OFFCURVE",
"518 1438 CURVE SMOOTH",
"34 74 LINE SMOOTH",
"18 30 OFFCURVE",
"34 0 OFFCURVE",
"64 0 CURVE SMOOTH"
);
},
{
closed = 1;
nodes = (
"600 628 OFFCURVE",
"594 644 OFFCURVE",
"604 670 CURVE SMOOTH",
"726 1010 LINE SMOOTH",
"730 1024 OFFCURVE",
"744 1024 OFFCURVE",
"750 1010 CURVE SMOOTH",
"870 668 LINE SMOOTH",
"878 642 OFFCURVE",
"874 628 OFFCURVE",
"852 628 CURVE SMOOTH",
"624 628 LINE SMOOTH"
);
}
);
};
layerId = "258ED206-D907-4350-8EBA-CBDDA1C16BF7";
paths = (
{
closed = 1;
nodes = (
"418 0 LINE",
"516 280 LINE",
"972 280 LINE",
"1068 0 LINE",
"1452 0 LINE",
"940 1446 LINE",
"542 1446 LINE",
"30 0 LINE"
);
},
{
closed = 1;
nodes = (
"742 1074 LINE",
"884 612 LINE",
"598 612 LINE"
);
}
);
width = 1482;
},
{
anchors = (
{
name = bottom;
position = "{694, 0}";
},
{
name = ogonek;
position = "{1274, 24}";
},
{
name = top;
position = "{694, 1446}";
}
);
layerId = "91AB5BCA-6A50-42DA-B2F7-8181BF189245";
paths = (
{
closed = 1;
nodes = (
"194 0 LINE",
"361 456 LINE",
"1025 456 LINE",
"1192 0 LINE",
"1278 0 LINE",
"750 1446 LINE",
"639 1446 LINE",
"110 0 LINE"
);
},
{
closed = 1;
nodes = (
"693 1365 LINE",
"994 542 LINE",
"392 542 LINE"
);
}
);
width = 1388;
}
);
leftKerningGroup = A;
leftMetricsKey = X;
rightKerningGroup = A;
rightMetricsKey = X;
unicode = 0041;
},
{
glyphname = Aringacute;
lastChange = "2020-07-15 11:07:11 +0000";
layers = (
{
background = {
paths = (
{
closed = 1;
nodes = (
"428 6 LINE",
"528 294 LINE",
"996 294 LINE",
"1094 6 LINE",
"1570 6 LINE",
"1046 1490 LINE",
"556 1490 LINE",
"30 6 LINE"
);
},
{
closed = 1;
nodes = (
"760 1048 LINE",
"906 634 LINE",
"612 634 LINE"
);
},
{
closed = 1;
nodes = (
"922 1386 OFFCURVE",
"1020 1468 OFFCURVE",
"1020 1592 CURVE SMOOTH",
"1020 1712 OFFCURVE",
"922 1798 OFFCURVE",
"800 1798 CURVE SMOOTH",
"680 1798 OFFCURVE",
"580 1714 OFFCURVE",
"580 1596 CURVE SMOOTH",
"580 1470 OFFCURVE",
"678 1386 OFFCURVE",
"800 1386 CURVE SMOOTH"
);
},
{
closed = 1;
nodes = (
"746 1492 OFFCURVE",
"700 1538 OFFCURVE",
"700 1590 CURVE SMOOTH",
"700 1644 OFFCURVE",
"746 1684 OFFCURVE",
"798 1684 CURVE SMOOTH",
"852 1684 OFFCURVE",
"894 1644 OFFCURVE",
"894 1590 CURVE SMOOTH",
"894 1538 OFFCURVE",
"852 1492 OFFCURVE",
"798 1492 CURVE SMOOTH"
);
},
{
closed = 1;
nodes = (
"886 1750 LINE",
"936 1870 LINE SMOOTH",
"948 1898 OFFCURVE",
"940 1928 OFFCURVE",
"908 1928 CURVE SMOOTH",
"818 1928 LINE SMOOTH",
"780 1928 OFFCURVE",
"754 1916 OFFCURVE",
"742 1866 CURVE SMOOTH",
"714 1750 LINE"
);
}
);
};
components = (
{
name = A;
},
{
name = _ringacute;
transform = "{1, 0, 0, 1, 8, 0}";
}
);
layerId = "258ED206-D907-4350-8EBA-CBDDA1C16BF7";
width = 1482;
},
{
components = (
{
name = A;
},
{
name = _ringacute;
transform = "{1, 0, 0, 1, -2, 0}";
}
);
layerId = "91AB5BCA-6A50-42DA-B2F7-8181BF189245";
width = 1388;
}
);
leftKerningGroup = A;
leftMetricsKey = A;
rightKerningGroup = A;
rightMetricsKey = A;
unicode = 01FA;
},
{
color = 6;
glyphname = AE;
lastChange = "2020-07-15 15:32:33 +0000";
layers = (
{
anchors = (
{
name = top;
position = "{1382, 1446}";
}
);
background = {
anchors = (
{
name = top;
position = "{1396, 1484}";
}
);
paths = (
{
closed = 1;
nodes = (
"1448 328 LINE SMOOTH",
"1430 328 OFFCURVE",
"1424 334 OFFCURVE",
"1424 356 CURVE SMOOTH",
"1424 556 LINE SMOOTH",
"1424 572 OFFCURVE",
"1436 584 OFFCURVE",
"1456 584 CURVE SMOOTH",
"1826 584 LINE SMOOTH",
"1852 584 OFFCURVE",
"1862 600 OFFCURVE",
"1862 618 CURVE SMOOTH",
"1862 866 LINE SMOOTH",
"1862 892 OFFCURVE",
"1848 906 OFFCURVE",
"1820 906 CURVE SMOOTH",
"1460 906 LINE SMOOTH",
"1440 906 OFFCURVE",
"1424 920 OFFCURVE",
"1424 948 CURVE SMOOTH",
"1424 1118 LINE SMOOTH",
"1424 1144 OFFCURVE",
"1440 1156 OFFCURVE",
"1470 1156 CURVE SMOOTH",
"2070 1156 LINE SMOOTH",
"2106 1156 OFFCURVE",
"2122 1178 OFFCURVE",
"2122 1210 CURVE SMOOTH",
"2124 1442 LINE SMOOTH",
"2124 1468 OFFCURVE",
"2112 1484 OFFCURVE",
"2088 1484 CURVE SMOOTH",
"790 1484 LINE SMOOTH",
"756 1484 OFFCURVE",
"740 1470 OFFCURVE",
"724 1438 CURVE SMOOTH",
"16 74 LINE SMOOTH",
"-8 30 OFFCURVE",
"4 0 OFFCURVE",
"34 0 CURVE SMOOTH",
"338 0 LINE SMOOTH",
"366 0 OFFCURVE",
"382 14 OFFCURVE",
"390 30 CURVE SMOOTH",
"508 266 LINE",
"514 280 OFFCURVE",
"526 288 OFFCURVE",
"542 288 CURVE SMOOTH",
"944 288 LINE SMOOTH",
"964 288 OFFCURVE",
"970 278 OFFCURVE",
"970 260 CURVE SMOOTH",
"970 50 LINE SMOOTH",
"970 16 OFFCURVE",
"984 0 OFFCURVE",
"1024 0 CURVE SMOOTH",
"2094 0 LINE SMOOTH",
"2128 0 OFFCURVE",
"2142 20 OFFCURVE",
"2142 44 CURVE SMOOTH",
"2142 290 LINE SMOOTH",
"2142 318 OFFCURVE",
"2126 328 OFFCURVE",
"2098 328 CURVE SMOOTH"
);
},
{
closed = 1;
nodes = (
"698 628 LINE SMOOTH",
"674 628 OFFCURVE",
"670 644 OFFCURVE",
"686 670 CURVE",
"890 1074 LINE SMOOTH",
"922 1134 OFFCURVE",
"970 1130 OFFCURVE",
"970 1070 CURVE SMOOTH",
"970 668 LINE SMOOTH",
"970 642 OFFCURVE",
"956 628 OFFCURVE",
"932 628 CURVE SMOOTH"
);
}
);
};
layerId = "258ED206-D907-4350-8EBA-CBDDA1C16BF7";
paths = (
{
closed = 1;
nodes = (
"1410 320 LINE",
"1410 570 LINE",
"1980 570 LINE",
"1980 884 LINE",
"1410 884 LINE",
"1410 1128 LINE",
"2090 1128 LINE",
"2092 1446 LINE",
"750 1446 LINE",
"0 0 LINE",
"388 0 LINE",
"526 280 LINE",
"966 280 LINE",
"966 0 LINE",
"2110 0 LINE",
"2110 320 LINE"
);
},
{
closed = 1;
nodes = (
"668 612 LINE",
"966 1202 LINE",
"966 612 LINE"
);
}
);
width = 2200;
},
{
anchors = (
{
name = top;
position = "{1234, 1446}";
}
);
layerId = "91AB5BCA-6A50-42DA-B2F7-8181BF189245";
paths = (
{
closed = 1;
nodes = (
"960 78 LINE",
"960 692 LINE",
"1602 692 LINE",
"1602 770 LINE",
"960 770 LINE",
"960 1368 LINE",
"1654 1368 LINE",
"1654 1446 LINE",
"826 1446 LINE",
"0 0 LINE",
"84 0 LINE",
"350 464 LINE",
"872 464 LINE",
"872 0 LINE",
"1682 0 LINE",
"1682 78 LINE"
);
},
{
closed = 1;
nodes = (
"388 542 LINE",
"872 1370 LINE",
"872 542 LINE"
);
}
);
width = 1817;
}
);
leftKerningGroup = AE;
rightKerningGroup = E;
rightMetricsKey = E;
unicode = 00C6;
},
{
color = 6;
glyphname = B;
lastChange = "2020-07-15 15:32:33 +0000";
layers = (
{
background = {
paths = (
{
closed = 1;
nodes = (
"781 0 LINE SMOOTH",
"1213 0 OFFCURVE",
"1419 130 OFFCURVE",
"1419 404 CURVE SMOOTH",
"1419 574 OFFCURVE",
"1341 676 OFFCURVE",
"1121 758 CURVE SMOOTH",
"1115 760 OFFCURVE",
"1115 770 OFFCURVE",
"1121 772 CURVE SMOOTH",
"1321 864 OFFCURVE",
"1383 954 OFFCURVE",
"1383 1092 CURVE SMOOTH",
"1383 1350 OFFCURVE",
"1163 1484 OFFCURVE",
"749 1484 CURVE SMOOTH",
"153 1484 LINE SMOOTH",
"123 1484 OFFCURVE",
"102 1462 OFFCURVE",
"102 1432 CURVE SMOOTH",
"102 44 LINE SMOOTH",
"102 20 OFFCURVE",
"121 0 OFFCURVE",
"148 0 CURVE SMOOTH"
);
},
{
closed = 1;
nodes = (
"564 300 OFFCURVE",
"557 314 OFFCURVE",
"557 344 CURVE SMOOTH",
"557 554 LINE SMOOTH",
"557 584 OFFCURVE",
"569 596 OFFCURVE",
"602 596 CURVE SMOOTH",
"781 596 LINE SMOOTH",
"881 596 OFFCURVE",
"947 536 OFFCURVE",
"947 454 CURVE SMOOTH",
"947 376 OFFCURVE",
"887 300 OFFCURVE",
"770 300 CURVE SMOOTH",
"591 300 LINE SMOOTH"
);
},
{
closed = 1;
nodes = (
"564 904 OFFCURVE",
"557 918 OFFCURVE",
"557 948 CURVE SMOOTH",
"557 1144 LINE SMOOTH",
"557 1174 OFFCURVE",
"569 1184 OFFCURVE",
"602 1184 CURVE SMOOTH",
"767 1184 LINE SMOOTH",
"861 1184 OFFCURVE",
"935 1128 OFFCURVE",
"935 1040 CURVE SMOOTH",
"935 962 OFFCURVE",
"875 904 OFFCURVE",
"781 904 CURVE SMOOTH",
"591 904 LINE SMOOTH"
);
}
);
};
layerId = "258ED206-D907-4350-8EBA-CBDDA1C16BF7";
rightMetricsKey = "=H/2";
paths = (
{
closed = 1;
nodes = (
"745 0 LINE SMOOTH",
"1165 0 OFFCURVE",
"1327 124 OFFCURVE",
"1327 394 CURVE",
"1327 502 OFFCURVE",
"1312 668 OFFCURVE",
"1059 744 CURVE",
"1237 832 OFFCURVE",
"1293 930 OFFCURVE",
"1293 1064 CURVE SMOOTH",
"1293 1310 OFFCURVE",
"1117 1446 OFFCURVE",
"713 1446 CURVE SMOOTH",
"135 1446 LINE",
"135 0 LINE"
);
},
{
closed = 1;
nodes = (
"524 582 LINE",
"769 582 LINE",
"867 582 OFFCURVE",
"931 522 OFFCURVE",
"931 442 CURVE SMOOTH",
"931 366 OFFCURVE",
"873 292 OFFCURVE",
"759 292 CURVE",
"524 292 LINE"
);
},
{
closed = 1;
nodes = (
"524 1154 LINE",
"755 1154 LINE SMOOTH",
"847 1154 OFFCURVE",
"919 1100 OFFCURVE",
"919 1014 CURVE SMOOTH",
"919 938 OFFCURVE",
"861 882 OFFCURVE",
"769 882 CURVE SMOOTH",
"524 882 LINE"
);
}
);
width = 1395;
},
{
layerId = "91AB5BCA-6A50-42DA-B2F7-8181BF189245";
rightMetricsKey = "=H/1.6";
paths = (
{
closed = 1;
nodes = (
"632 0 LINE",
"974 0 OFFCURVE",
"1174 128 OFFCURVE",
"1174 386 CURVE",
"1174 578 OFFCURVE",
"1066 698 OFFCURVE",
"852 734 CURVE",
"1060 794 OFFCURVE",
"1138 908 OFFCURVE",
"1138 1072 CURVE SMOOTH",
"1138 1314 OFFCURVE",
"950 1446 OFFCURVE",
"626 1446 CURVE SMOOTH",
"220 1446 LINE",
"220 0 LINE"
);
},
{
closed = 1;
nodes = (
"298 690 LINE",
"650 690 LINE SMOOTH",
"894 690 OFFCURVE",
"1096 608 OFFCURVE",
"1096 374 CURVE SMOOTH",
"1096 162 OFFCURVE",
"930 82 OFFCURVE",
"622 82 CURVE",
"298 82 LINE"
);
},
{
closed = 1;
nodes = (
"298 1366 LINE",
"618 1366 LINE SMOOTH",
"882 1366 OFFCURVE",
"1060 1274 OFFCURVE",
"1060 1062 CURVE SMOOTH",
"1060 824 OFFCURVE",
"830 772 OFFCURVE",
"650 772 CURVE SMOOTH",
"298 772 LINE"
);
}
);
width = 1312;
}
);
leftKerningGroup = N;
leftMetricsKey = H;
rightKerningGroup = B;
unicode = 0042;
},
{
color = 6;
glyphname = C;
lastChange = "2020-07-15 15:32:33 +0000";
layers = (
{
anchors = (
{
name = bottom;
position = "{777, 0}";
},
{
name = top;
position = "{777, 1446}";
}
);
background = {
anchors = (
{
name = bottom;
position = "{771, 0}";
},
{
name = top;
position = "{775, 1484}";
}
);
paths = (
{
closed = 1;
nodes = (
"342 1504 OFFCURVE",
"65 1212 OFFCURVE",
"65 762 CURVE SMOOTH",
"65 310 OFFCURVE",
"342 -20 OFFCURVE",
"771 -20 CURVE SMOOTH",
"1233 -20 OFFCURVE",
"1405 334 OFFCURVE",
"1426 442 CURVE SMOOTH",
"1434 494 OFFCURVE",
"1411 504 OFFCURVE",
"1397 508 CURVE SMOOTH",
"1147 558 LINE SMOOTH",
"1115 564 OFFCURVE",
"1098 558 OFFCURVE",
"1092 542 CURVE SMOOTH",
"1021 366 OFFCURVE",
"919 308 OFFCURVE",
"785 308 CURVE SMOOTH",
"623 308 OFFCURVE",
"541 424 OFFCURVE",
"541 754 CURVE SMOOTH",
"541 1080 OFFCURVE",
"638 1196 OFFCURVE",
"787 1196 CURVE SMOOTH",
"924 1196 OFFCURVE",
"977 1088 OFFCURVE",
"1001 950 CURVE",
"1382 974 LINE",
"1411 978 OFFCURVE",
"1419 988 OFFCURVE",
"1407 1044 CURVE SMOOTH",
"1355 1310 OFFCURVE",
"1113 1504 OFFCURVE",
"775 1504 CURVE SMOOTH"
);
}
);
};
layerId = "258ED206-D907-4350-8EBA-CBDDA1C16BF7";
paths = (
{
closed = 1;
nodes = (
"355 1466 OFFCURVE",
"85 1182 OFFCURVE",
"85 742 CURVE SMOOTH",
"85 302 OFFCURVE",
"359 -20 OFFCURVE",
"777 -20 CURVE SMOOTH",
"1239 -20 OFFCURVE",
"1365 240 OFFCURVE",
"1405 540 CURVE",
"999 540 LINE",
"977 406 OFFCURVE",
"897 292 OFFCURVE",
"764 292 CURVE SMOOTH",
"617 292 OFFCURVE",
"512 414 OFFCURVE",
"512 736 CURVE SMOOTH",
"512 1054 OFFCURVE",
"617 1154 OFFCURVE",
"764 1154 CURVE SMOOTH",
"897 1154 OFFCURVE",
"977 1070 OFFCURVE",
"999 936 CURVE",
"1405 936 LINE",
"1373 1248 OFFCURVE",
"1121 1466 OFFCURVE",
"777 1466 CURVE SMOOTH"
);
}
);
width = 1490;
},
{
anchors = (
{
name = bottom;
position = "{700, 0}";
},
{
name = top;
position = "{686, 1446}";
}
);
layerId = "91AB5BCA-6A50-42DA-B2F7-8181BF189245";
paths = (
{
closed = 1;
nodes = (
"319 1466 OFFCURVE",
"120 1208 OFFCURVE",
"120 720 CURVE SMOOTH",
"120 232 OFFCURVE",
"319 -20 OFFCURVE",
"694 -20 CURVE SMOOTH",
"979 -20 OFFCURVE",
"1173 191 OFFCURVE",
"1198 411 CURVE",
"1110 411 LINE",
"1072 223 OFFCURVE",
"934 62 OFFCURVE",
"694 62 CURVE SMOOTH",
"369 62 OFFCURVE",
"208 276 OFFCURVE",
"208 720 CURVE SMOOTH",
"208 1164 OFFCURVE",
"369 1384 OFFCURVE",
"694 1384 CURVE SMOOTH",
"934 1384 OFFCURVE",
"1072 1222 OFFCURVE",
"1110 1034 CURVE",
"1198 1034 LINE",
"1174 1256 OFFCURVE",
"979 1466 OFFCURVE",
"694 1466 CURVE SMOOTH"
);
}
);
width = 1318;
}
);
leftKerningGroup = O;
leftMetricsKey = O;
rightKerningGroup = C;
rightMetricsKey = O;
unicode = 0043;
},
{
color = 6;
glyphname = D;
lastChange = "2020-07-15 15:32:33 +0000";
layers = (
{
anchors = (
{
name = bottom;
position = "{705, 0}";
},
{
name = center;
position = "{743, 724}";
},
{
name = top;
position = "{743, 1446}";
}
);
background = {
anchors = (
{
name = center;
position = "{739, 742}";
},
{
name = top;
position = "{739, 1484}";
}
);
paths = (
{
closed = 1;
nodes = (
"62 0 LINE",
"646 0 LINE SMOOTH",
"1173 0 OFFCURVE",
"1438 314 OFFCURVE",
"1438 746 CURVE SMOOTH",
"1438 1168 OFFCURVE",
"1185 1462 OFFCURVE",
"648 1482 CURVE SMOOTH",
"520 1486 OFFCURVE",
"104 1484 OFFCURVE",
"62 1484 CURVE"
);
},
{
closed = 1;
nodes = (
"557 1170 LINE SMOOTH",
"861 1170 OFFCURVE",
"963 1026 OFFCURVE",
"963 752 CURVE SMOOTH",
"963 430 OFFCURVE",
"811 314 OFFCURVE",
"559 314 CURVE SMOOTH",
"517 314 LINE",
"517 1170 LINE"
);
}
);
};
layerId = "258ED206-D907-4350-8EBA-CBDDA1C16BF7";
paths = (
{
closed = 1;
nodes = (
"135 0 LINE",
"653 0 LINE SMOOTH",
"1165 0 OFFCURVE",
"1403 306 OFFCURVE",
"1403 728 CURVE SMOOTH",
"1403 1138 OFFCURVE",
"1177 1426 OFFCURVE",
"655 1444 CURVE SMOOTH",
"529 1448 OFFCURVE",
"177 1446 OFFCURVE",
"135 1446 CURVE"
);
},
{
closed = 1;
nodes = (
"665 1140 LINE SMOOTH",
"863 1140 OFFCURVE",
"997 1000 OFFCURVE",
"997 734 CURVE SMOOTH",
"997 420 OFFCURVE",
"812 306 OFFCURVE",
"665 306 CURVE SMOOTH",
"524 306 LINE",
"524 1140 LINE"
);
}
);
width = 1488;
},
{
anchors = (
{
name = bottom;
position = "{714, 0}";
},
{
name = center;
position = "{662, 724}";
},
{
name = top;
position = "{650, 1446}";
}
);
layerId = "91AB5BCA-6A50-42DA-B2F7-8181BF189245";
paths = (
{
closed = 1;
nodes = (
"220 0 LINE",
"432 0 LINE SMOOTH",
"964 0 OFFCURVE",
"1214 224 OFFCURVE",
"1214 734 CURVE SMOOTH",
"1214 1216 OFFCURVE",
"996 1442 OFFCURVE",
"460 1444 CURVE SMOOTH",
"340 1444 OFFCURVE",
"224 1446 OFFCURVE",
"220 1446 CURVE"
);
},
{
closed = 1;
nodes = (
"438 1364 LINE SMOOTH",
"880 1364 OFFCURVE",
"1130 1224 OFFCURVE",
"1130 726 CURVE SMOOTH",
"1130 254 OFFCURVE",
"894 82 OFFCURVE",
"426 82 CURVE SMOOTH",
"306 82 LINE",
"306 1364 LINE"
);
}
);
width = 1334;
}
);
leftKerningGroup = N;
leftMetricsKey = H;
rightKerningGroup = D;
rightMetricsKey = "=O";
unicode = 0044;
},
{
color = 3;
glyphname = Eth;
lastChange = "2020-07-15 11:12:11 +0000";
layers = (
{
background = {
components = (
{
name = D;
transform = "{1, 0, 0, 1, 43, 0}";
}
);
paths = (
{
closed = 1;
nodes = (
"866 830 OFFCURVE",
"852 846 OFFCURVE",
"830 846 CURVE SMOOTH",
"108 846 LINE SMOOTH",
"84 846 OFFCURVE",
"70 830 OFFCURVE",
"70 802 CURVE SMOOTH",
"70 620 LINE SMOOTH",
"70 586 OFFCURVE",
"82 572 OFFCURVE",
"122 572 CURVE SMOOTH",
"802 572 LINE SMOOTH",
"846 572 OFFCURVE",
"866 586 OFFCURVE",
"866 626 CURVE SMOOTH",
"866 808 LINE SMOOTH"
);
}
);
};
components = (
{
name = D;
transform = "{1, 0, 0, 1, 86, 0}";
}
);
layerId = "258ED206-D907-4350-8EBA-CBDDA1C16BF7";
paths = (
{
closed = 1;
nodes = (
"70 851 LINE",
"70 577 LINE",
"866 577 LINE",
"866 851 LINE"
);
}
);
width = 1574;
},
{
components = (
{
name = D;
transform = "{1, 0, 0, 1, -4, 0}";
}
);
layerId = "91AB5BCA-6A50-42DA-B2F7-8181BF189245";
paths = (
{
closed = 1;
nodes = (
"70 769 LINE",
"70 688 LINE",
"668 688 LINE",
"668 769 LINE"
);
}
);
width = 1330;
}
);
leftKerningGroup = N;
rightKerningGroup = D;
rightMetricsKey = D;
unicode = 00D0;
},
{
color = 6;
glyphname = E;
lastChange = "2020-07-15 15:32:33 +0000";
layers = (
{
anchors = (
{
name = bottom;
position = "{669, 0}";
},
{
name = ogonek;
position = "{1203, 20}";
},
{
name = top;
position = "{669, 1446}";
}
);
background = {
anchors = (
{
name = bottom;
position = "{663, 0}";
},
{
name = ogonek;
position = "{1211, 20}";
},
{
name = top;
position = "{663, 1484}";
}
);
paths = (
{
closed = 1;
nodes = (
"95 50 LINE SMOOTH",
"95 16 OFFCURVE",
"108 0 OFFCURVE",
"148 0 CURVE SMOOTH",
"1219 0 LINE SMOOTH",
"1253 0 OFFCURVE",
"1267 20 OFFCURVE",
"1267 44 CURVE SMOOTH",
"1267 290 LINE SMOOTH",
"1267 318 OFFCURVE",
"1251 328 OFFCURVE",
"1223 328 CURVE SMOOTH",
"573 328 LINE SMOOTH",
"555 328 OFFCURVE",
"549 334 OFFCURVE",
"549 356 CURVE SMOOTH",
"549 556 LINE SMOOTH",
"549 572 OFFCURVE",
"561 584 OFFCURVE",
"581 584 CURVE SMOOTH",
"951 584 LINE SMOOTH",
"977 584 OFFCURVE",
"987 600 OFFCURVE",
"987 618 CURVE SMOOTH",
"987 866 LINE SMOOTH",
"987 892 OFFCURVE",
"973 906 OFFCURVE",
"945 906 CURVE SMOOTH",
"585 906 LINE SMOOTH",
"564 906 OFFCURVE",
"549 920 OFFCURVE",
"549 948 CURVE SMOOTH",
"549 1118 LINE SMOOTH",
"549 1144 OFFCURVE",
"564 1156 OFFCURVE",
"595 1156 CURVE SMOOTH",
"1195 1156 LINE SMOOTH",
"1230 1156 OFFCURVE",
"1247 1178 OFFCURVE",
"1247 1210 CURVE SMOOTH",
"1249 1442 LINE SMOOTH",
"1249 1468 OFFCURVE",
"1237 1484 OFFCURVE",
"1213 1484 CURVE SMOOTH",
"133 1484 LINE SMOOTH",
"108 1484 OFFCURVE",
"95 1468 OFFCURVE",
"95 1438 CURVE SMOOTH"
);
}
);
};
layerId = "258ED206-D907-4350-8EBA-CBDDA1C16BF7";
paths = (
{
closed = 1;
nodes = (
"1205 0 LINE",
"1205 324 LINE",
"524 324 LINE",
"524 570 LINE",
"1091 570 LINE",
"1091 884 LINE",
"527 884 LINE",
"527 1124 LINE",
"1201 1124 LINE",
"1203 1446 LINE",
"135 1446 LINE",
"135 0 LINE"
);
}
);
width = 1295;
},
{
anchors = (
{
name = bottom;
position = "{694, 0}";
},
{
name = ogonek;
position = "{1068, 20}";
},
{
name = top;
position = "{640, 1446}";
}
);
layerId = "91AB5BCA-6A50-42DA-B2F7-8181BF189245";
rightMetricsKey = "=135";
paths = (
{
closed = 1;
nodes = (
"1078 0 LINE",
"1078 82 LINE",
"298 84 LINE",
"298 690 LINE",
"998 690 LINE",
"998 772 LINE",
"298 772 LINE",
"298 1366 LINE",
"1050 1366 LINE",
"1050 1446 LINE",
"220 1446 LINE",
"220 0 LINE"
);
}
);
width = 1213;
}
);
leftKerningGroup = N;
leftMetricsKey = H;
rightKerningGroup = E;
rightMetricsKey = "=H/1.5";
unicode = 0045;
},
{
color = 6;
glyphname = F;
lastChange = "2020-07-15 15:32:33 +0000";
layers = (
{
background = {
paths = (
{
closed = 1;
nodes = (
"62 50 LINE SMOOTH",
"62 16 OFFCURVE",
"75 0 OFFCURVE",
"117 0 CURVE",
"451 0 LINE SMOOTH",
"497 0 OFFCURVE",
"517 16 OFFCURVE",
"517 58 CURVE SMOOTH",
"517 542 LINE SMOOTH",
"517 560 OFFCURVE",
"529 572 OFFCURVE",
"549 572 CURVE SMOOTH",
"923 572 LINE SMOOTH",
"951 572 OFFCURVE",
"959 586 OFFCURVE",
"959 606 CURVE SMOOTH",
"959 850 LINE SMOOTH",
"959 876 OFFCURVE",
"947 890 OFFCURVE",
"919 890 CURVE SMOOTH",
"553 890 LINE SMOOTH",
"531 890 OFFCURVE",
"517 902 OFFCURVE",
"517 930 CURVE SMOOTH",
"517 1118 LINE SMOOTH",
"517 1144 OFFCURVE",
"531 1156 OFFCURVE",
"562 1156 CURVE SMOOTH",
"1151 1156 LINE SMOOTH",
"1186 1156 OFFCURVE",
"1201 1178 OFFCURVE",
"1201 1210 CURVE SMOOTH",
"1203 1442 LINE SMOOTH",
"1203 1468 OFFCURVE",
"1190 1484 OFFCURVE",
"1167 1484 CURVE SMOOTH",
"101 1484 LINE SMOOTH",
"79 1484 OFFCURVE",
"62 1468 OFFCURVE",
"62 1438 CURVE SMOOTH"
);
}
);
};
layerId = "258ED206-D907-4350-8EBA-CBDDA1C16BF7";
paths = (
{
closed = 1;
nodes = (
"135 0 LINE",
"524 0 LINE",
"524 558 LINE",
"1083 558 LINE",
"1083 868 LINE",
"524 868 LINE",
"524 1128 LINE",
"1193 1128 LINE",
"1195 1446 LINE",
"135 1446 LINE"
);
}
);
width = 1263;
},
{
layerId = "91AB5BCA-6A50-42DA-B2F7-8181BF189245";
paths = (
{
closed = 1;
nodes = (
"220 0 LINE",
"306 0 LINE",
"306 692 LINE",
"986 692 LINE",
"986 774 LINE",
"306 774 LINE",
"306 1366 LINE",
"1038 1366 LINE",
"1038 1446 LINE",
"220 1446 LINE"
);
}
);
width = 1148;
}
);
leftKerningGroup = N;
leftMetricsKey = H;
rightKerningGroup = F;
rightMetricsKey = "=H/2";
unicode = 0046;
},
{
color = 6;
glyphname = G;
lastChange = "2020-07-15 15:32:33 +0000";
layers = (
{
anchors = (
{
name = bottom;
position = "{773, 0}";
},
{
name = top;
position = "{781, 1446}";
}
);
background = {
anchors = (
{
name = bottom;
position = "{769, 0}";
},
{
name = top;
position = "{769, 1484}";
}
);
paths = (
{
closed = 1;
nodes = (
"1001 -20 OFFCURVE",
"1103 80 OFFCURVE",
"1176 150 CURVE SMOOTH",
"1185 162 OFFCURVE",
"1191 162 OFFCURVE",
"1197 154 CURVE SMOOTH",
"1277 38 LINE SMOOTH",
"1297 10 OFFCURVE",
"1317 0 OFFCURVE",
"1342 0 CURVE SMOOTH",
"1417 0 LINE SMOOTH",
"1437 0 OFFCURVE",
"1451 16 OFFCURVE",
"1451 34 CURVE SMOOTH",
"1451 688 LINE SMOOTH",
"1451 724 OFFCURVE",
"1426 750 OFFCURVE",
"1375 750 CURVE SMOOTH",
"815 754 LINE SMOOTH",
"785 754 OFFCURVE",
"773 740 OFFCURVE",
"773 720 CURVE SMOOTH",
"773 528 LINE SMOOTH",
"773 494 OFFCURVE",
"785 484 OFFCURVE",
"813 484 CURVE SMOOTH",
"1001 484 LINE SMOOTH",
"1021 484 OFFCURVE",
"1027 472 OFFCURVE",
"1019 450 CURVE",
"1014 432 LINE",
"977 340 OFFCURVE",
"909 292 OFFCURVE",
"797 292 CURVE SMOOTH",
"645 292 OFFCURVE",
"541 386 OFFCURVE",
"541 748 CURVE SMOOTH",
"541 1088 OFFCURVE",
"634 1194 OFFCURVE",
"781 1194 CURVE SMOOTH",
"926 1194 OFFCURVE",
"995 1094 OFFCURVE",
"1016 984 CURVE SMOOTH",
"1021 958 OFFCURVE",
"1023 944 OFFCURVE",
"1056 944 CURVE SMOOTH",
"1397 996 LINE SMOOTH",
"1430 1000 OFFCURVE",
"1437 1010 OFFCURVE",
"1426 1066 CURVE SMOOTH",
"1377 1280 OFFCURVE",
"1151 1504 OFFCURVE",
"791 1504 CURVE SMOOTH",
"363 1504 OFFCURVE",
"65 1198 OFFCURVE",
"65 736 CURVE SMOOTH",
"65 290 OFFCURVE",
"344 -20 OFFCURVE",
"766 -20 CURVE SMOOTH"
);
}
);
};
layerId = "258ED206-D907-4350-8EBA-CBDDA1C16BF7";
rightMetricsKey = "=O*1.5";
paths = (
{
closed = 1;
nodes = (
"1008 -20 OFFCURVE",
"1109 86 OFFCURVE",
"1182 160 CURVE",
"1182 0 LINE",
"1437 0 LINE",
"1437 764 LINE",
"775 768 LINE",
"775 506 LINE",
"1027 506 LINE",
"1010 454 LINE",
"989 388 OFFCURVE",
"909 318 OFFCURVE",
"800 318 CURVE SMOOTH",
"676 318 OFFCURVE",
"510 376 OFFCURVE",
"510 730 CURVE SMOOTH",
"510 1042 OFFCURVE",
"640 1144 OFFCURVE",
"783 1144 CURVE SMOOTH",
"919 1144 OFFCURVE",
"993 1054 OFFCURVE",
"1019 936 CURVE",
"1426 936 LINE",
"1421 1206 OFFCURVE",
"1182 1466 OFFCURVE",
"793 1466 CURVE SMOOTH",
"377 1466 OFFCURVE",
"85 1168 OFFCURVE",
"85 718 CURVE SMOOTH",
"85 282 OFFCURVE",
"357 -20 OFFCURVE",
"769 -20 CURVE SMOOTH"
);
}
);
width = 1565;
},
{
anchors = (
{
name = bottom;
position = "{696, 0}";
},
{
name = top;
position = "{698, 1446}";
}
);
layerId = "91AB5BCA-6A50-42DA-B2F7-8181BF189245";
paths = (
{
closed = 1;
nodes = (
"920 -20 OFFCURVE",
"1068 100 OFFCURVE",
"1146 252 CURVE",
"1146 0 LINE",
"1224 0 LINE",
"1224 736 LINE",
"742 736 LINE",
"742 666 LINE",
"1146 666 LINE",
"1146 498 LINE SMOOTH",
"1146 314 OFFCURVE",
"1006 58 OFFCURVE",
"697 58 CURVE SMOOTH",
"392 58 OFFCURVE",
"202 276 OFFCURVE",
"202 720 CURVE SMOOTH",
"202 1164 OFFCURVE",
"392 1384 OFFCURVE",
"697 1384 CURVE SMOOTH",
"906 1384 OFFCURVE",
"1076 1216 OFFCURVE",
"1106 1034 CURVE",
"1194 1034 LINE",
"1172 1262 OFFCURVE",
"938 1466 OFFCURVE",
"697 1466 CURVE SMOOTH",
"332 1466 OFFCURVE",
"120 1202 OFFCURVE",
"120 720 CURVE SMOOTH",
"120 234 OFFCURVE",
"332 -20 OFFCURVE",
"697 -20 CURVE SMOOTH"
);
}
);
width = 1414;
}
);
leftKerningGroup = O;
leftMetricsKey = O;
rightKerningGroup = G;
rightMetricsKey = "=H-30";
unicode = 0047;
},
{
color = 6;
glyphname = H;
lastChange = "2020-07-15 15:32:33 +0000";
layers = (
{
anchors = (
{
name = bottom;
position = "{774, 0}";
},
{
name = top;
position = "{777, 1446}";
}
);
background = {
anchors = (
{
name = bottom;
position = "{730, 0}";
},
{
name = top;
position = "{735, 1484}";
}
);
paths = (
{
closed = 1;
nodes = (
"929 594 OFFCURVE",
"940 580 OFFCURVE",
"940 564 CURVE SMOOTH",
"940 58 LINE SMOOTH",
"940 16 OFFCURVE",
"961 0 OFFCURVE",
"1007 0 CURVE SMOOTH",
"1341 0 LINE SMOOTH",
"1383 0 OFFCURVE",
"1394 16 OFFCURVE",
"1394 50 CURVE SMOOTH",
"1394 1438 LINE SMOOTH",
"1394 1468 OFFCURVE",
"1379 1484 OFFCURVE",
"1356 1484 CURVE SMOOTH",
"977 1484 LINE SMOOTH",
"955 1484 OFFCURVE",
"940 1468 OFFCURVE",
"940 1442 CURVE SMOOTH",
"940 978 LINE SMOOTH",
"940 952 OFFCURVE",
"927 938 OFFCURVE",
"905 938 CURVE SMOOTH",
"569 938 LINE SMOOTH",
"547 938 OFFCURVE",
"533 952 OFFCURVE",
"533 978 CURVE SMOOTH",
"533 1442 LINE SMOOTH",
"533 1468 OFFCURVE",
"519 1484 OFFCURVE",
"497 1484 CURVE SMOOTH",
"117 1484 LINE SMOOTH",
"95 1484 OFFCURVE",
"79 1468 OFFCURVE",
"79 1438 CURVE SMOOTH",
"79 50 LINE SMOOTH",
"79 16 OFFCURVE",
"91 0 OFFCURVE",
"133 0 CURVE SMOOTH",
"467 0 LINE SMOOTH",
"513 0 OFFCURVE",
"533 16 OFFCURVE",
"533 58 CURVE SMOOTH",
"533 564 LINE SMOOTH",
"533 580 OFFCURVE",
"545 594 OFFCURVE",
"564 594 CURVE SMOOTH",
"909 594 LINE SMOOTH"
);
}
);
};
layerId = "258ED206-D907-4350-8EBA-CBDDA1C16BF7";
paths = (
{
closed = 1;
nodes = (
"1023 0 LINE",
"1412 0 LINE",
"1412 1446 LINE",
"1023 1446 LINE",
"1023 898 LINE",
"524 898 LINE",
"524 1446 LINE",
"135 1446 LINE",
"135 0 LINE",
"524 0 LINE",
"524 580 LINE",
"1023 580 LINE"
);
}
);
width = 1547;
},
{
anchors = (
{
name = bottom;
position = "{785, 0}";
},
{
name = top;
position = "{757, 1458}";
}
);
layerId = "91AB5BCA-6A50-42DA-B2F7-8181BF189245";
paths = (
{
closed = 1;
nodes = (
"1226 0 LINE",
"1304 0 LINE",
"1304 1446 LINE",
"1226 1446 LINE",
"1226 794 LINE",
"298 794 LINE",
"298 1446 LINE",
"220 1446 LINE",
"220 0 LINE",
"298 0 LINE",
"298 712 LINE",
"1226 712 LINE"
);
}
);
width = 1524;
}
);
leftKerningGroup = N;
rightKerningGroup = N;
unicode = 0048;
},
{
color = 3;
glyphname = Hbar;
lastChange = "2020-07-15 11:19:30 +0000";
layers = (
{
background = {
components = (
{
name = H;
transform = "{1, 0, 0, 1, 45, 0}";
}
);
paths = (
{
closed = 1;
nodes = (
"1576 1270 OFFCURVE",
"1564 1284 OFFCURVE",
"1544 1284 CURVE SMOOTH",
"48 1284 LINE SMOOTH",
"30 1284 OFFCURVE",
"18 1270 OFFCURVE",
"18 1244 CURVE SMOOTH",
"18 1126 LINE SMOOTH",
"18 1096 OFFCURVE",
"28 1082 OFFCURVE",
"60 1082 CURVE SMOOTH",
"1520 1082 LINE SMOOTH",
"1558 1082 OFFCURVE",
"1576 1096 OFFCURVE",
"1576 1130 CURVE SMOOTH",
"1576 1248 LINE SMOOTH"
);
}
);
};
components = (
{
name = H;
transform = "{1, 0, 0, 1, 90, 0}";
}
);
layerId = "258ED206-D907-4350-8EBA-CBDDA1C16BF7";
paths = (
{
closed = 1;
nodes = (
"40 1284 LINE",
"40 1082 LINE",
"1668 1082 LINE",
"1668 1284 LINE"
);
}
);
width = 1708;
},
{
components = (
{
name = H;
transform = "{1, 0, 0, 1, 2, 0}";
}
);
layerId = "91AB5BCA-6A50-42DA-B2F7-8181BF189245";
paths = (
{
closed = 1;
nodes = (
"20 1206 LINE",
"20 1128 LINE",
"1498 1128 LINE",
"1498 1206 LINE"
);
}
);
width = 1518;
}
);
leftKerningGroup = N;
rightKerningGroup = N;
unicode = 0126;
},
{
color = 6;
glyphname = I;
lastChange = "2020-07-15 15:32:33 +0000";
layers = (
{
anchors = (
{
name = bottom;
position = "{351, 0}";
},
{
name = ogonek;
position = "{477, 6}";
},
{
name = top;
position = "{331, 1446}";
}
);
background = {
anchors = (
{
name = bottom;
position = "{343, 0}";
},
{
name = ogonek;
position = "{507, 20}";
},
{
name = top;
position = "{345, 1484}";
}
);
paths = (
{
closed = 1;
nodes = (
"133 1484 OFFCURVE",
"117 1468 OFFCURVE",
"117 1438 CURVE SMOOTH",
"117 50 LINE SMOOTH",
"117 16 OFFCURVE",
"129 0 OFFCURVE",
"171 0 CURVE SMOOTH",
"505 0 LINE SMOOTH",
"551 0 OFFCURVE",
"571 16 OFFCURVE",
"571 58 CURVE SMOOTH",
"571 1442 LINE SMOOTH",
"571 1468 OFFCURVE",
"559 1484 OFFCURVE",
"535 1484 CURVE SMOOTH",
"155 1484 LINE SMOOTH"
);
}
);
};
layerId = "258ED206-D907-4350-8EBA-CBDDA1C16BF7";
paths = (
{
closed = 1;
nodes = (
"135 0 LINE",
"524 0 LINE",
"524 1446 LINE",
"135 1446 LINE"
);
}
);
width = 659;
},
{
anchors = (
{
name = bottom;
position = "{262, 0}";
},
{
name = ogonek;
position = "{288, 20}";
},
{
name = top;
position = "{260, 1446}";
}
);
layerId = "91AB5BCA-6A50-42DA-B2F7-8181BF189245";
paths = (
{
closed = 1;
nodes = (
"220 0 LINE",
"298 0 LINE",
"298 1446 LINE",
"220 1446 LINE"
);
}
);
width = 518;
}
);
leftKerningGroup = N;
leftMetricsKey = H;
rightKerningGroup = N;
rightMetricsKey = H;
unicode = 0049;
},
{
color = 6;
glyphname = J;
lastChange = "2020-07-15 15:32:33 +0000";
layers = (
{
anchors = (
{
name = top;
position = "{516, 1446}";
}
);
background = {
anchors = (
{
name = top;
position = "{416, 1484}";
}
);
paths = (
{
closed = 1;
nodes = (
"770 1442 LINE SMOOTH",
"770 1468 OFFCURVE",
"758 1484 OFFCURVE",
"734 1484 CURVE SMOOTH",
"356 1484 LINE SMOOTH",
"332 1484 OFFCURVE",
"316 1468 OFFCURVE",
"316 1438 CURVE SMOOTH",
"316 536 LINE SMOOTH",
"316 400 OFFCURVE",
"258 350 OFFCURVE",
"160 350 CURVE SMOOTH",
"116 350 OFFCURVE",
"82 360 OFFCURVE",
"50 364 CURVE SMOOTH",
"18 368 OFFCURVE",
"4 348 OFFCURVE",
"2 318 CURVE SMOOTH",
"-16 90 LINE SMOOTH",
"-20 34 OFFCURVE",
"0 12 OFFCURVE",
"46 4 CURVE SMOOTH",
"136 -12 OFFCURVE",
"212 -20 OFFCURVE",
"294 -20 CURVE SMOOTH",
"606 -20 OFFCURVE",
"770 96 OFFCURVE",
"770 424 CURVE SMOOTH"
);
}
);
};
layerId = "258ED206-D907-4350-8EBA-CBDDA1C16BF7";
paths = (
{
closed = 1;
nodes = (
"720 1446 LINE",
"330 1446 LINE",
"330 558 LINE SMOOTH",
"330 408 OFFCURVE",
"296 340 OFFCURVE",
"158 340 CURVE SMOOTH",
"116 340 OFFCURVE",
"66 346 OFFCURVE",
"30 350 CURVE",
"30 0 LINE",
"90 -12 OFFCURVE",
"210 -20 OFFCURVE",
"292 -20 CURVE SMOOTH",
"642 -20 OFFCURVE",
"720 138 OFFCURVE",
"720 458 CURVE SMOOTH"
);
}
);
width = 828;
},
{
anchors = (
{
name = top;
position = "{534, 1446}";
}
);
layerId = "91AB5BCA-6A50-42DA-B2F7-8181BF189245";
paths = (
{
closed = 1;
nodes = (
"574 1446 LINE",
"496 1446 LINE",
"496 308 LINE SMOOTH",
"496 126 OFFCURVE",
"452 62 OFFCURVE",
"326 62 CURVE SMOOTH",
"224 62 OFFCURVE",
"174 104 OFFCURVE",
"130 124 CURVE",
"110 38 LINE",
"124 26 OFFCURVE",
"216 -20 OFFCURVE",
"330 -20 CURVE SMOOTH",
"518 -20 OFFCURVE",
"574 96 OFFCURVE",
"574 280 CURVE SMOOTH"
);
}
);
width = 750;
}
);
leftKerningGroup = J;
leftMetricsKey = X;
rightKerningGroup = U;
rightMetricsKey = U;
unicode = 004A;
},
{
color = 6;
glyphname = K;
lastChange = "2020-07-15 15:32:33 +0000";
layers = (
{
anchors = (
{
name = bottom;
position = "{719, 0}";
},
{
name = top;
position = "{745, 1446}";
}
);
background = {
anchors = (
{
name = bottom;
position = "{715, 0}";
},
{
name = top;
position = "{715, 1484}";
}
);
paths = (
{
closed = 1;
nodes = (
"1027 960 LINE SMOOTH",
"1015 988 OFFCURVE",
"1017 1002 OFFCURVE",
"1033 1024 CURVE SMOOTH",
"1361 1426 LINE SMOOTH",
"1387 1456 OFFCURVE",
"1363 1484 OFFCURVE",
"1319 1484 CURVE SMOOTH",
"1015 1484 LINE SMOOTH",
"967 1484 OFFCURVE",
"951 1472 OFFCURVE",
"929 1442 CURVE SMOOTH",
"561 926 LINE",
"545 906 OFFCURVE",
"531 904 OFFCURVE",
"531 936 CURVE SMOOTH",
"531 1442 LINE SMOOTH",
"531 1468 OFFCURVE",
"519 1484 OFFCURVE",
"495 1484 CURVE SMOOTH",
"115 1484 LINE SMOOTH",
"93 1484 OFFCURVE",
"77 1468 OFFCURVE",
"77 1438 CURVE SMOOTH",
"77 50 LINE SMOOTH",
"77 16 OFFCURVE",
"89 0 OFFCURVE",
"131 0 CURVE SMOOTH",
"465 0 LINE SMOOTH",
"511 0 OFFCURVE",
"531 16 OFFCURVE",
"531 58 CURVE SMOOTH",
"531 360 LINE SMOOTH",
"531 380 OFFCURVE",
"533 392 OFFCURVE",
"543 404 CURVE SMOOTH",
"685 586 LINE SMOOTH",
"705 612 OFFCURVE",
"717 616 OFFCURVE",
"728 596 CURVE SMOOTH",
"973 40 LINE SMOOTH",
"987 10 OFFCURVE",
"1011 0 OFFCURVE",
"1045 0 CURVE SMOOTH",
"1435 0 LINE SMOOTH",
"1475 0 OFFCURVE",
"1478 30 OFFCURVE",
"1463 62 CURVE SMOOTH"
);
}
);
};
layerId = "258ED206-D907-4350-8EBA-CBDDA1C16BF7";
paths = (
{
closed = 1;
nodes = (
"997 894 LINE",
"1394 1446 LINE",
"957 1446 LINE",
"539 862 LINE",
"539 1446 LINE",
"135 1446 LINE",
"135 0 LINE",
"539 0 LINE",
"539 378 LINE",
"719 610 LINE",
"1041 0 LINE",
"1459 0 LINE"
);
}
);
width = 1497;
},
{
anchors = (
{
name = bottom;
position = "{664, 0}";
},
{
name = top;
position = "{698, 1446}";
}
);
layerId = "91AB5BCA-6A50-42DA-B2F7-8181BF189245";
rightMetricsKey = "=X/1.25";
paths = (
{
closed = 1;
nodes = (
"649 869 LINE",
"1178 1446 LINE",
"1070 1446 LINE",
"302 612 LINE",
"302 1446 LINE",
"220 1446 LINE",
"220 0 LINE",
"302 0 LINE",
"302 497 LINE",
"590 812 LINE",
"1108 0 LINE",
"1207 0 LINE"
);
}
);
width = 1295;
}
);
leftKerningGroup = N;
leftMetricsKey = H;
rightKerningGroup = K;
rightMetricsKey = "=X*1.25";
unicode = 004B;
},
{
color = 6;
glyphname = L;
lastChange = "2020-07-15 15:32:33 +0000";
layers = (
{
anchors = (
{
name = bottom;
position = "{613, 0}";
},
{
name = caron;
position = "{701, 1446}";
},
{
name = top;
position = "{321, 1446}";
}
);
background = {
anchors = (
{
name = bottom;
position = "{606, 0}";
},
{
name = top;
position = "{314, 1484}";
},
{
name = topright;
position = "{999, 1484}";
}
);
paths = (
{
closed = 1;
nodes = (
"83 50 LINE SMOOTH",
"83 16 OFFCURVE",
"95 0 OFFCURVE",
"137 0 CURVE SMOOTH",
"1159 0 LINE SMOOTH",
"1193 0 OFFCURVE",
"1209 20 OFFCURVE",
"1209 44 CURVE SMOOTH",
"1209 290 LINE SMOOTH",
"1209 318 OFFCURVE",
"1190 328 OFFCURVE",
"1163 328 CURVE SMOOTH",
"561 328 LINE SMOOTH",
"543 328 OFFCURVE",
"537 334 OFFCURVE",
"537 356 CURVE SMOOTH",
"537 1442 LINE SMOOTH",
"537 1468 OFFCURVE",
"524 1484 OFFCURVE",
"501 1484 CURVE SMOOTH",
"121 1484 LINE SMOOTH",
"99 1484 OFFCURVE",
"83 1468 OFFCURVE",
"83 1438 CURVE SMOOTH"
);
}
);
};
layerId = "258ED206-D907-4350-8EBA-CBDDA1C16BF7";
rightMetricsKey = "=H/2.5";
paths = (
{
closed = 1;
nodes = (
"135 0 LINE",
"1102 0 LINE",
"1102 320 LINE",
"524 320 LINE",
"524 1446 LINE",
"135 1446 LINE"
);
}
);
width = 1156;
},
{
anchors = (
{
name = bottom;
position = "{620, 0}";
},
{
name = caron;
position = "{630, 1446}";
},
{
name = top;
position = "{266, 1446}";
}
);
layerId = "91AB5BCA-6A50-42DA-B2F7-8181BF189245";
paths = (
{
closed = 1;
nodes = (
"220 0 LINE",
"1044 0 LINE",
"1044 86 LINE",
"306 86 LINE",
"306 1446 LINE",
"222 1446 LINE"
);
}
);
width = 1154;
}
);
leftKerningGroup = N;
leftMetricsKey = H;
rightKerningGroup = L;
rightMetricsKey = X;
unicode = 004C;
},
{
color = 3;
glyphname = Lslash;
lastChange = "2020-07-15 15:12:46 +0000";
layers = (
{
background = {
components = (
{
name = L;
transform = "{1, 0, 0, 1, 20, 0}";
}
);
paths = (
{
closed = 1;
nodes = (
"874 1072 OFFCURVE",
"860 1086 OFFCURVE",
"826 1076 CURVE SMOOTH",
"38 866 LINE SMOOTH",
"14 860 OFFCURVE",
"0 850 OFFCURVE",
"0 820 CURVE SMOOTH",
"0 586 LINE SMOOTH",
"0 554 OFFCURVE",
"12 540 OFFCURVE",
"50 552 CURVE SMOOTH",
"834 774 LINE SMOOTH",
"862 782 OFFCURVE",
"874 798 OFFCURVE",
"874 820 CURVE SMOOTH",
"874 1042 LINE SMOOTH"
);
}
);
};
components = (
{
name = L;
transform = "{1, 0, 0, 1, 40, 0}";
}
);
layerId = "258ED206-D907-4350-8EBA-CBDDA1C16BF7";
paths = (
{
closed = 1;
nodes = (
"0 856 LINE",
"0 538 LINE",
"874 786 LINE",
"874 1088 LINE"
);
}
);
width = 1196;
},
{
components = (
{
name = L;
transform = "{1, 0, 0, 1, -10, 0}";
}
);
layerId = "91AB5BCA-6A50-42DA-B2F7-8181BF189245";
paths = (
{
closed = 1;
nodes = (
"30 710 LINE",
"30 634 LINE",
"604 784 LINE",
"604 856 LINE"
);
}
);
width = 1144;
}
);
leftKerningGroup = N;
rightKerningGroup = L;
rightMetricsKey = L;
unicode = 0141;
},
{
color = 6;
glyphname = M;
lastChange = "2020-07-15 15:32:33 +0000";
layers = (
{
background = {
paths = (
{
closed = 1;
nodes = (
"425 0 LINE SMOOTH",
"461 0 OFFCURVE",
"469 8 OFFCURVE",
"469 44 CURVE SMOOTH",
"469 928 LINE SMOOTH",
"469 954 OFFCURVE",
"482 962 OFFCURVE",
"493 930 CURVE SMOOTH",
"781 36 LINE SMOOTH",
"789 12 OFFCURVE",
"805 0 OFFCURVE",
"829 0 CURVE SMOOTH",
"1039 0 LINE SMOOTH",
"1061 0 OFFCURVE",
"1079 14 OFFCURVE",
"1087 36 CURVE SMOOTH",
"1375 946 LINE SMOOTH",
"1383 970 OFFCURVE",
"1398 970 OFFCURVE",
"1398 948 CURVE SMOOTH",
"1398 50 LINE SMOOTH",
"1398 16 OFFCURVE",
"1411 0 OFFCURVE",
"1451 0 CURVE SMOOTH",
"1789 0 LINE SMOOTH",
"1835 0 OFFCURVE",
"1852 16 OFFCURVE",
"1852 58 CURVE SMOOTH",
"1852 1442 LINE SMOOTH",
"1852 1468 OFFCURVE",
"1841 1484 OFFCURVE",
"1816 1484 CURVE SMOOTH",
"1239 1484 LINE SMOOTH",
"1211 1484 OFFCURVE",
"1195 1462 OFFCURVE",
"1185 1426 CURVE SMOOTH",
"999 812 LINE SMOOTH",
"993 794 OFFCURVE",
"980 790 OFFCURVE",
"973 812 CURVE SMOOTH",
"765 1448 LINE SMOOTH",
"755 1476 OFFCURVE",
"743 1484 OFFCURVE",
"709 1484 CURVE SMOOTH",
"148 1484 LINE SMOOTH",
"119 1484 OFFCURVE",
"106 1470 OFFCURVE",
"106 1438 CURVE SMOOTH",
"106 56 LINE SMOOTH",
"106 22 OFFCURVE",
"127 0 OFFCURVE",
"159 0 CURVE SMOOTH"
);
}
);
};
layerId = "258ED206-D907-4350-8EBA-CBDDA1C16BF7";
paths = (
{
closed = 1;
nodes = (
"524 0 LINE",
"524 1048 LINE",
"807 0 LINE",
"1087 0 LINE",
"1369 1048 LINE",
"1369 0 LINE",
"1759 0 LINE",
"1759 1446 LINE",
"1183 1446 LINE",
"947 564 LINE",
"713 1446 LINE",
"135 1446 LINE",
"135 0 LINE"
);
}
);
width = 1894;
},
{
layerId = "91AB5BCA-6A50-42DA-B2F7-8181BF189245";
paths = (
{
closed = 1;
nodes = (
"306 0 LINE",
"306 1216 LINE",
"792 0 LINE",
"908 0 LINE",
"1400 1232 LINE",
"1400 0 LINE",
"1486 0 LINE",
"1486 1446 LINE",
"1400 1446 LINE",
"850 88 LINE",
"308 1446 LINE",
"220 1446 LINE",
"220 0 LINE"
);
}
);
width = 1706;
}
);
leftKerningGroup = N;
leftMetricsKey = "=H";
rightKerningGroup = N;
rightMetricsKey = H;
unicode = 004D;
},
{
color = 6;
glyphname = N;
lastChange = "2020-07-15 15:32:33 +0000";
layers = (
{
anchors = (
{
name = bottom;
position = "{807, 0}";
},
{
name = top;
position = "{807, 1446}";
}
);
background = {
anchors = (
{
name = bottom;
position = "{805, 0}";
},
{
name = top;
position = "{805, 1484}";
}
);
paths = (
{
closed = 1;
nodes = (
"1111 1484 OFFCURVE",
"1097 1468 OFFCURVE",
"1097 1442 CURVE SMOOTH",
"1097 788 LINE SMOOTH",
"1097 756 OFFCURVE",
"1083 756 OFFCURVE",
"1064 780 CURVE SMOOTH",
"585 1448 LINE SMOOTH",
"562 1478 OFFCURVE",
"551 1484 OFFCURVE",
"517 1484 CURVE SMOOTH",
"190 1484 LINE SMOOTH",
"161 1484 OFFCURVE",
"146 1470 OFFCURVE",
"146 1438 CURVE SMOOTH",
"146 40 LINE SMOOTH",
"146 10 OFFCURVE",
"167 0 OFFCURVE",
"197 0 CURVE SMOOTH",
"469 0 LINE SMOOTH",
"505 0 OFFCURVE",
"519 12 OFFCURVE",
"517 44 CURVE SMOOTH",
"517 772 LINE SMOOTH",
"517 786 OFFCURVE",
"527 790 OFFCURVE",
"537 776 CURVE SMOOTH",
"1087 30 LINE SMOOTH",
"1106 4 OFFCURVE",
"1119 0 OFFCURVE",
"1141 0 CURVE SMOOTH",
"1415 0 LINE SMOOTH",
"1440 0 OFFCURVE",
"1461 14 OFFCURVE",
"1461 36 CURVE SMOOTH",
"1461 1450 LINE SMOOTH",
"1461 1472 OFFCURVE",
"1451 1484 OFFCURVE",
"1431 1484 CURVE SMOOTH",
"1141 1484 LINE SMOOTH"
);
}
);
};
layerId = "258ED206-D907-4350-8EBA-CBDDA1C16BF7";
paths = (
{
closed = 1;
nodes = (
"1091 640 LINE",
"527 1446 LINE",
"135 1446 LINE",
"135 0 LINE",
"524 0 LINE",
"524 862 LINE",
"1129 0 LINE",
"1480 0 LINE",
"1480 1446 LINE",
"1091 1446 LINE"
);
}
);
width = 1615;
},
{
anchors = (
{
name = bottom;
position = "{678, 0}";
},
{
name = top;
position = "{726, 1446}";
}
);
layerId = "91AB5BCA-6A50-42DA-B2F7-8181BF189245";
paths = (
{
closed = 1;
nodes = (
"1154 156 LINE",
"284 1446 LINE",
"220 1446 LINE",
"220 0 LINE",
"298 0 LINE",
"298 1286 LINE",
"1164 0 LINE",
"1232 0 LINE",
"1232 1446 LINE",
"1154 1446 LINE"
);
}
);
width = 1452;
}
);
leftKerningGroup = N;
leftMetricsKey = H;
rightKerningGroup = N;
rightMetricsKey = H;
unicode = 004E;
},
{
color = 6;
glyphname = Eng;
lastChange = "2020-07-15 15:32:33 +0000";
layers = (
{
anchors = (
{
name = bottom;
position = "{807, 0}";
},
{
name = top;
position = "{807, 1446}";
}
);
layerId = "258ED206-D907-4350-8EBA-CBDDA1C16BF7";
paths = (
{
closed = 1;
nodes = (
"1373 -480 OFFCURVE",
"1479 -356 OFFCURVE",
"1479 0 CURVE SMOOTH",
"1480 1446 LINE",
"1091 1446 LINE",
"1091 640 LINE",
"527 1446 LINE",
"135 1446 LINE",
"135 0 LINE",
"524 0 LINE",
"524 862 LINE",
"1088 58 LINE",
"1088 30 LINE SMOOTH",
"1088 -73 OFFCURVE",
"1032 -120 OFFCURVE",
"917 -120 CURVE SMOOTH",
"875 -120 OFFCURVE",
"825 -114 OFFCURVE",
"789 -110 CURVE",
"789 -460 LINE",
"849 -472 OFFCURVE",
"969 -480 OFFCURVE",
"1051 -480 CURVE SMOOTH"
);
}
);
width = 1615;
},
{
anchors = (
{
name = bottom;
position = "{678, 0}";
},
{
name = top;
position = "{726, 1446}";
}
);
layerId = "91AB5BCA-6A50-42DA-B2F7-8181BF189245";
paths = (
{
closed = 1;
nodes = (
"1176 -480 OFFCURVE",
"1232 -364 OFFCURVE",
"1232 -180 CURVE SMOOTH",
"1232 1446 LINE",
"1154 1446 LINE",
"1154 156 LINE",
"284 1446 LINE",
"220 1446 LINE",
"220 0 LINE",
"298 0 LINE",
"298 1286 LINE",
"1156 12 LINE",
"1156 -152 LINE SMOOTH",
"1156 -334 OFFCURVE",
"1110 -398 OFFCURVE",
"984 -398 CURVE SMOOTH",
"882 -398 OFFCURVE",
"832 -356 OFFCURVE",
"788 -336 CURVE",
"768 -422 LINE",
"782 -434 OFFCURVE",
"874 -480 OFFCURVE",
"988 -480 CURVE SMOOTH"
);
}
);
width = 1452;
}
);
leftKerningGroup = N;
leftMetricsKey = N;
rightKerningGroup = N;
rightMetricsKey = N;
unicode = 014A;
},
{
color = 6;
glyphname = O;
lastChange = "2020-07-15 15:32:33 +0000";
layers = (
{
anchors = (
{
name = bottom;
position = "{789, 0}";
},
{
name = horn;
position = "{1275, 1094}";
},
{
name = ogonek;
position = "{968, 20}";
},
{
name = top;
position = "{785, 1446}";
}
);
background = {
anchors = (
{
name = bottom;
position = "{787, 0}";
},
{
name = ogonek;
position = "{970, 20}";
},
{
name = top;
position = "{783, 1484}";
}
);
paths = (
{
closed = 1;
nodes = (
"1222 -20 OFFCURVE",
"1501 278 OFFCURVE",
"1501 738 CURVE SMOOTH",
"1501 1202 OFFCURVE",
"1216 1504 OFFCURVE",
"785 1504 CURVE SMOOTH",
"351 1504 OFFCURVE",
"65 1202 OFFCURVE",
"65 738 CURVE SMOOTH",
"65 276 OFFCURVE",
"344 -20 OFFCURVE",
"785 -20 CURVE SMOOTH"
);
},
{
closed = 1;
nodes = (
"607 292 OFFCURVE",
"541 412 OFFCURVE",
"541 732 CURVE SMOOTH",
"541 1062 OFFCURVE",
"611 1196 OFFCURVE",
"785 1196 CURVE SMOOTH",
"955 1196 OFFCURVE",
"1025 1062 OFFCURVE",
"1025 732 CURVE SMOOTH",
"1025 412 OFFCURVE",
"959 292 OFFCURVE",
"785 292 CURVE SMOOTH"
);
}
);
};
layerId = "258ED206-D907-4350-8EBA-CBDDA1C16BF7";
paths = (
{
closed = 1;
nodes = (
"1213 -20 OFFCURVE",
"1485 272 OFFCURVE",
"1485 720 CURVE SMOOTH",
"1485 1172 OFFCURVE",
"1207 1466 OFFCURVE",
"787 1466 CURVE SMOOTH",
"365 1466 OFFCURVE",
"85 1172 OFFCURVE",
"85 720 CURVE SMOOTH",
"85 270 OFFCURVE",
"357 -20 OFFCURVE",
"787 -20 CURVE SMOOTH"
);
},
{
closed = 1;
nodes = (
"627 292 OFFCURVE",
"510 402 OFFCURVE",
"510 714 CURVE SMOOTH",
"510 1036 OFFCURVE",
"627 1154 OFFCURVE",
"787 1154 CURVE SMOOTH",
"947 1154 OFFCURVE",
"1063 1036 OFFCURVE",
"1063 714 CURVE SMOOTH",
"1063 402 OFFCURVE",
"947 292 OFFCURVE",
"787 292 CURVE SMOOTH"
);
}
);
width = 1570;
},
{
anchors = (
{
name = bottom;
position = "{712, 0}";
},
{
name = horn;
position = "{1088, 1212}";
},
{
name = ogonek;
position = "{848, 18}";
},
{
name = top;
position = "{712, 1446}";
}
);
layerId = "91AB5BCA-6A50-42DA-B2F7-8181BF189245";
paths = (
{
closed = 1;
nodes = (
"1074 -20 OFFCURVE",
"1294 239 OFFCURVE",
"1294 720 CURVE SMOOTH",
"1294 1207 OFFCURVE",
"1074 1466 OFFCURVE",
"710 1466 CURVE SMOOTH",
"345 1466 OFFCURVE",
"120 1205 OFFCURVE",
"120 720 CURVE SMOOTH",
"120 237 OFFCURVE",
"345 -20 OFFCURVE",
"710 -20 CURVE SMOOTH"
);
},
{
closed = 1;
nodes = (
"390 62 OFFCURVE",
"208 276 OFFCURVE",
"208 720 CURVE SMOOTH",
"208 1164 OFFCURVE",
"390 1384 OFFCURVE",
"710 1384 CURVE SMOOTH",
"1030 1384 OFFCURVE",
"1206 1167 OFFCURVE",
"1206 720 CURVE SMOOTH",
"1206 277 OFFCURVE",
"1034 62 OFFCURVE",
"710 62 CURVE SMOOTH"
);
}
);
width = 1414;
}
);
leftKerningGroup = O;
rightKerningGroup = O;
unicode = 004F;
},
{
color = 6;
glyphname = Ohorn;
lastChange = "2020-07-15 15:32:33 +0000";
layers = (
{
anchors = (
{
name = bottom;
position = "{712, 0}";
},
{
name = horn;
position = "{1088, 1212}";
},
{
name = ogonek;
position = "{848, 18}";
},
{
name = top;
position = "{712, 1446}";
},
{
name = topright;
position = "{1232, 1292}";
}
);
layerId = "91AB5BCA-6A50-42DA-B2F7-8181BF189245";
paths = (
{
closed = 1;
nodes = (
"1256 1337 OFFCURVE",
"1225 1287 OFFCURVE",
"1134 1281 CURVE",
"1034 1403 OFFCURVE",
"890 1466 OFFCURVE",
"710 1466 CURVE SMOOTH",
"345 1466 OFFCURVE",
"120 1205 OFFCURVE",
"120 720 CURVE SMOOTH",
"120 237 OFFCURVE",
"345 -20 OFFCURVE",
"710 -20 CURVE SMOOTH",
"1074 -20 OFFCURVE",
"1294 239 OFFCURVE",
"1294 720 CURVE SMOOTH",
"1294 925 OFFCURVE",
"1255 1090 OFFCURVE",
"1183 1211 CURVE",
"1303 1225 OFFCURVE",
"1362 1311 OFFCURVE",
"1362 1470 CURVE",
"1260 1470 LINE"
);
},
{
closed = 1;
nodes = (
"390 62 OFFCURVE",
"208 276 OFFCURVE",
"208 720 CURVE SMOOTH",
"208 1164 OFFCURVE",
"390 1384 OFFCURVE",
"710 1384 CURVE SMOOTH",
"1030 1384 OFFCURVE",
"1206 1167 OFFCURVE",
"1206 720 CURVE SMOOTH",
"1206 277 OFFCURVE",
"1034 62 OFFCURVE",
"710 62 CURVE SMOOTH"
);
}
);
width = 1472;
},
{
anchors = (
{
name = bottom;
position = "{789, 0}";
},
{
name = horn;
position = "{1275, 1094}";
},
{
name = ogonek;
position = "{968, 20}";
},
{
name = top;
position = "{785, 1446}";
},
{
name = topright;
position = "{1492, 1274}";
}
);
layerId = "258ED206-D907-4350-8EBA-CBDDA1C16BF7";
paths = (
{
closed = 1;
nodes = (
"1476 1257 OFFCURVE",
"1423 1270 OFFCURVE",
"1284 1272 CURVE",
"1163 1396 OFFCURVE",
"992 1466 OFFCURVE",
"787 1466 CURVE SMOOTH",
"365 1466 OFFCURVE",
"85 1172 OFFCURVE",
"85 720 CURVE SMOOTH",
"85 270 OFFCURVE",
"357 -20 OFFCURVE",
"787 -20 CURVE SMOOTH",
"1213 -20 OFFCURVE",
"1485 272 OFFCURVE",
"1485 720 CURVE SMOOTH",
"1485 858 OFFCURVE",
"1459 982 OFFCURVE",
"1411 1086 CURVE",
"1660 1088 OFFCURVE",
"1727 1210 OFFCURVE",
"1730 1492 CURVE",
"1496 1492 LINE"
);
},
{
closed = 1;
nodes = (
"627 292 OFFCURVE",
"510 402 OFFCURVE",
"510 714 CURVE SMOOTH",
"510 1036 OFFCURVE",
"627 1154 OFFCURVE",
"787 1154 CURVE SMOOTH",
"947 1154 OFFCURVE",
"1063 1036 OFFCURVE",
"1063 714 CURVE SMOOTH",
"1063 402 OFFCURVE",
"947 292 OFFCURVE",
"787 292 CURVE SMOOTH"
);
}
);
width = 1760;
}
);
leftKerningGroup = O;
leftMetricsKey = O;
rightKerningGroup = Ohorn;
unicode = 01A0;
},
{
color = 6;
glyphname = Oslash;
lastChange = "2020-07-15 15:32:33 +0000";
layers = (
{
anchors = (
{
name = top;
position = "{788, 1446}";
}
);
background = {
anchors = (
{
name = top;
position = "{788, 1446}";
}
);
paths = (
{
closed = 1;
nodes = (
"1430 1446 LINE SMOOTH",
"1414 1462 OFFCURVE",
"1390 1458 OFFCURVE",
"1370 1438 CURVE SMOOTH",
"1242 1314 LINE",
"1126 1412 OFFCURVE",
"972 1466 OFFCURVE",
"790 1466 CURVE SMOOTH",
"366 1466 OFFCURVE",
"88 1172 OFFCURVE",
"88 720 CURVE SMOOTH",
"88 552 OFFCURVE",
"126 408 OFFCURVE",
"194 292 CURVE",
"62 164 LINE SMOOTH",
"40 140 OFFCURVE",
"42 120 OFFCURVE",
"70 92 CURVE SMOOTH",
"146 14 LINE SMOOTH",
"178 -18 OFFCURVE",
"202 -16 OFFCURVE",
"230 14 CURVE SMOOTH",
"342 122 LINE",
"458 32 OFFCURVE",
"610 -20 OFFCURVE",
"790 -20 CURVE SMOOTH",
"1216 -20 OFFCURVE",
"1488 272 OFFCURVE",
"1488 720 CURVE SMOOTH",
"1488 884 OFFCURVE",
"1452 1026 OFFCURVE",
"1384 1140 CURVE",
"1532 1286 LINE",
"1552 1302 OFFCURVE",
"1550 1322 OFFCURVE",
"1534 1338 CURVE SMOOTH"
);
},
{
closed = 1;
nodes = (
"552 1036 OFFCURVE",
"620 1166 OFFCURVE",
"790 1166 CURVE SMOOTH",
"876 1166 OFFCURVE",
"936 1132 OFFCURVE",
"974 1052 CURVE",
"554 642 LINE",
"552 666 OFFCURVE",
"552 690 OFFCURVE",
"552 714 CURVE"
);
},
{
closed = 1;
nodes = (
"1024 402 OFFCURVE",
"960 284 OFFCURVE",
"790 284 CURVE SMOOTH",
"704 284 OFFCURVE",
"644 314 OFFCURVE",
"606 380 CURVE",
"1022 788 LINE",
"1024 762 OFFCURVE",
"1024 740 OFFCURVE",
"1024 714 CURVE SMOOTH"
);
}
);
};
layerId = "258ED206-D907-4350-8EBA-CBDDA1C16BF7";
paths = (
{
closed = 1;
nodes = (
"342 122 LINE",
"458 32 OFFCURVE",
"610 -20 OFFCURVE",
"790 -20 CURVE SMOOTH",
"1216 -20 OFFCURVE",
"1488 272 OFFCURVE",
"1488 720 CURVE SMOOTH",
"1488 884 OFFCURVE",
"1452 1026 OFFCURVE",
"1384 1140 CURVE",
"1558 1312 LINE",
"1406 1472 LINE",
"1242 1314 LINE",
"1126 1412 OFFCURVE",
"972 1466 OFFCURVE",
"790 1466 CURVE SMOOTH",
"366 1466 OFFCURVE",
"88 1172 OFFCURVE",
"88 720 CURVE SMOOTH",
"88 552 OFFCURVE",
"126 408 OFFCURVE",
"194 292 CURVE",
"30 134 LINE",
"186 -28 LINE"
);
},
{
closed = 1;
nodes = (
"704 284 OFFCURVE",
"644 314 OFFCURVE",
"606 380 CURVE",
"1024 790 LINE",
"1024 670 OFFCURVE",
"1018 576 OFFCURVE",
"1002 502 CURVE SMOOTH",
"972 348 OFFCURVE",
"904 284 OFFCURVE",
"790 284 CURVE SMOOTH"
);
},
{
closed = 1;
nodes = (
"552 740 OFFCURVE",
"556 824 OFFCURVE",
"568 894 CURVE SMOOTH",
"596 1084 OFFCURVE",
"666 1166 OFFCURVE",
"790 1166 CURVE SMOOTH",
"876 1166 OFFCURVE",
"936 1132 OFFCURVE",
"974 1052 CURVE",
"552 640 LINE"
);
}
);
width = 1598;
},
{
anchors = (
{
name = top;
position = "{726, 1446}";
}
);
layerId = "91AB5BCA-6A50-42DA-B2F7-8181BF189245";
paths = (
{
closed = 1;
nodes = (
"302 158 LINE",
"400 40 OFFCURVE",
"544 -20 OFFCURVE",
"724 -20 CURVE SMOOTH",
"1090 -20 OFFCURVE",
"1312 238 OFFCURVE",
"1312 720 CURVE SMOOTH",
"1312 920 OFFCURVE",
"1274 1082 OFFCURVE",
"1204 1204 CURVE",
"1380 1408 LINE",
"1308 1470 LINE",
"1148 1286 LINE",
"1046 1404 OFFCURVE",
"904 1466 OFFCURVE",
"726 1466 CURVE SMOOTH",
"360 1466 OFFCURVE",
"138 1204 OFFCURVE",
"138 716 CURVE SMOOTH",
"138 518 OFFCURVE",
"174 358 OFFCURVE",
"244 240 CURVE",
"70 38 LINE",
"140 -26 LINE"
);
},
{
closed = 1;
nodes = (
"566 64 OFFCURVE",
"444 118 OFFCURVE",
"360 228 CURVE",
"1140 1132 LINE",
"1188 1026 OFFCURVE",
"1212 890 OFFCURVE",
"1212 720 CURVE SMOOTH",
"1212 276 OFFCURVE",
"1050 64 OFFCURVE",
"728 64 CURVE SMOOTH"
);
},
{
closed = 1;
nodes = (
"260 418 OFFCURVE",
"236 552 OFFCURVE",
"236 720 CURVE SMOOTH",
"236 1164 OFFCURVE",
"404 1382 OFFCURVE",
"726 1382 CURVE SMOOTH",
"886 1382 OFFCURVE",
"1006 1328 OFFCURVE",
"1088 1218 CURVE",
"308 314 LINE"
);
}
);
width = 1450;
}
);
leftKerningGroup = Oslash;
rightKerningGroup = Oslash;
unicode = 00D8;
},
{
glyphname = OE;
lastChange = "2020-07-15 11:07:11 +0000";
layers = (
{
background = {
paths = (
{
closed = 1;
nodes = (
"1479 328 LINE",
"1479 584 LINE",
"1917 584 LINE",
"1917 906 LINE",
"1479 906 LINE",
"1479 1156 LINE",
"2178 1156 LINE",
"2180 1484 LINE",
"1216 1484 LINE",
"1092 1484 LINE",
"1021 1498 OFFCURVE",
"935 1504 OFFCURVE",
"833 1504 CURVE SMOOTH",
"351 1504 OFFCURVE",
"65 1202 OFFCURVE",
"65 738 CURVE SMOOTH",
"65 276 OFFCURVE",
"344 -20 OFFCURVE",
"810 -20 CURVE SMOOTH",
"921 -20 OFFCURVE",
"1016 -14 OFFCURVE",
"1092 0 CURVE",
"1191 0 LINE",
"1205 0 OFFCURVE",
"1220 0 OFFCURVE",
"1233 0 CURVE",
"2149 0 LINE SMOOTH",
"2184 0 OFFCURVE",
"2197 20 OFFCURVE",
"2197 44 CURVE SMOOTH",
"2197 290 LINE SMOOTH",
"2197 318 OFFCURVE",
"2182 328 OFFCURVE",
"2153 328 CURVE SMOOTH"
);
},
{
closed = 1;
nodes = (
"607 292 OFFCURVE",
"541 412 OFFCURVE",
"541 732 CURVE SMOOTH",
"541 1062 OFFCURVE",
"611 1196 OFFCURVE",
"785 1196 CURVE SMOOTH",
"955 1196 OFFCURVE",
"1025 1062 OFFCURVE",
"1025 732 CURVE SMOOTH",
"1025 412 OFFCURVE",
"959 292 OFFCURVE",
"785 292 CURVE SMOOTH"
);
}
);
};
components = (
{
alignment = -1;
name = O;
},
{
alignment = -1;
name = E;
transform = "{1, 0, 0, 1, 975, 0}";
}
);
layerId = "258ED206-D907-4350-8EBA-CBDDA1C16BF7";
width = 2270;
},
{
components = (
{
alignment = -1;
name = O;
},
{
alignment = -1;
name = E;
transform = "{1, 0, 0, 1, 1005, 0}";
}
);
layerId = "91AB5BCA-6A50-42DA-B2F7-8181BF189245";
width = 2218;
}
);
leftKerningGroup = O;
leftMetricsKey = O;
rightKerningGroup = E;
rightMetricsKey = E;
unicode = 0152;
},
{
color = 6;
glyphname = P;
lastChange = "2020-07-15 15:32:33 +0000";
layers = (
{
background = {
paths = (
{
closed = 1;
nodes = (
"1385 1324 OFFCURVE",
"1111 1484 OFFCURVE",
"783 1484 CURVE SMOOTH",
"121 1484 LINE SMOOTH",
"97 1484 OFFCURVE",
"83 1468 OFFCURVE",
"83 1438 CURVE SMOOTH",
"83 50 LINE SMOOTH",
"83 16 OFFCURVE",
"95 0 OFFCURVE",
"135 0 CURVE SMOOTH",
"471 0 LINE SMOOTH",
"517 0 OFFCURVE",
"537 16 OFFCURVE",
"537 58 CURVE SMOOTH",
"537 510 LINE SMOOTH",
"537 524 OFFCURVE",
"543 532 OFFCURVE",
"561 532 CURVE SMOOTH",
"835 532 LINE SMOOTH",
"1161 532 OFFCURVE",
"1385 710 OFFCURVE",
"1385 1002 CURVE SMOOTH"
);
},
{
closed = 1;
nodes = (
"921 922 OFFCURVE",
"863 852 OFFCURVE",
"767 852 CURVE SMOOTH",
"571 852 LINE SMOOTH",
"545 852 OFFCURVE",
"537 866 OFFCURVE",
"537 896 CURVE SMOOTH",
"537 1122 LINE SMOOTH",
"537 1152 OFFCURVE",
"549 1164 OFFCURVE",
"583 1164 CURVE SMOOTH",
"755 1164 LINE SMOOTH",
"847 1164 OFFCURVE",
"921 1104 OFFCURVE",
"921 1008 CURVE SMOOTH"
);
}
);
};
layerId = "258ED206-D907-4350-8EBA-CBDDA1C16BF7";
rightMetricsKey = "=X*2";
paths = (
{
closed = 1;
nodes = (
"524 0 LINE",
"524 498 LINE",
"757 498 LINE SMOOTH",
"1075 498 OFFCURVE",
"1274 670 OFFCURVE",
"1274 956 CURVE SMOOTH",
"1274 1270 OFFCURVE",
"1027 1446 OFFCURVE",
"707 1446 CURVE SMOOTH",
"135 1446 LINE",
"135 0 LINE"
);
},
{
closed = 1;
nodes = (
"520 1158 LINE",
"745 1158 LINE SMOOTH",
"831 1158 OFFCURVE",
"917 1076 OFFCURVE",
"917 976 CURVE SMOOTH",
"917 882 OFFCURVE",
"843 788 OFFCURVE",
"745 788 CURVE SMOOTH",
"520 788 LINE"
);
}
);
width = 1334;
},
{
layerId = "91AB5BCA-6A50-42DA-B2F7-8181BF189245";
rightMetricsKey = "=X/2";
paths = (
{
closed = 1;
nodes = (
"306 0 LINE",
"306 554 LINE",
"678 554 LINE SMOOTH",
"974 554 OFFCURVE",
"1186 716 OFFCURVE",
"1186 1006 CURVE SMOOTH",
"1186 1296 OFFCURVE",
"970 1446 OFFCURVE",
"666 1446 CURVE SMOOTH",
"220 1446 LINE",
"220 0 LINE"
);
},
{
closed = 1;
nodes = (
"306 1362 LINE",
"664 1362 LINE SMOOTH",
"928 1362 OFFCURVE",
"1098 1252 OFFCURVE",
"1098 1012 CURVE SMOOTH",
"1098 772 OFFCURVE",
"928 640 OFFCURVE",
"678 640 CURVE SMOOTH",
"306 640 LINE"
);
}
);
width = 1241;
}
);
leftKerningGroup = N;
leftMetricsKey = H;
rightKerningGroup = P;
rightMetricsKey = "=O";
unicode = 0050;
},
{
color = 6;
glyphname = Thorn;
lastChange = "2020-07-15 15:32:33 +0000";
layers = (
{
layerId = "258ED206-D907-4350-8EBA-CBDDA1C16BF7";
paths = (
{
closed = 1;
nodes = (
"1356 1032 OFFCURVE",
"1118 1186 OFFCURVE",
"788 1186 CURVE SMOOTH",
"524 1186 LINE",
"524 1446 LINE",
"135 1446 LINE",
"135 0 LINE",
"524 0 LINE",
"524 276 LINE",
"788 276 LINE SMOOTH",
"1118 276 OFFCURVE",
"1356 444 OFFCURVE",
"1356 727 CURVE SMOOTH"
);
},
{
closed = 1;
nodes = (
"950 625 OFFCURVE",
"881 588 OFFCURVE",
"770 588 CURVE SMOOTH",
"524 588 LINE",
"524 875 LINE",
"770 875 LINE SMOOTH",
"881 875 OFFCURVE",
"950 833 OFFCURVE",
"950 729 CURVE SMOOTH"
);
}
);
width = 1416;
},
{
layerId = "91AB5BCA-6A50-42DA-B2F7-8181BF189245";
paths = (
{
closed = 1;
nodes = (
"1186 1018 OFFCURVE",
"972 1130 OFFCURVE",
"666 1130 CURVE SMOOTH",
"306 1130 LINE",
"306 1446 LINE",
"220 1446 LINE",
"220 0 LINE",
"306 0 LINE",
"306 354 LINE",
"678 354 LINE SMOOTH",
"972 354 OFFCURVE",
"1186 466 OFFCURVE",
"1186 760 CURVE SMOOTH"
);
},
{
closed = 1;
nodes = (
"1104 522 OFFCURVE",
"928 436 OFFCURVE",
"678 436 CURVE SMOOTH",
"306 436 LINE",
"306 1048 LINE",
"664 1048 LINE SMOOTH",
"928 1048 OFFCURVE",
"1104 976 OFFCURVE",
"1104 760 CURVE SMOOTH"
);
}
);
width = 1241;
}
);
leftKerningGroup = N;
leftMetricsKey = P;
rightKerningGroup = P;
rightMetricsKey = P;
unicode = 00DE;
},
{
color = 6;
glyphname = Q;
lastChange = "2020-07-15 15:32:33 +0000";
layers = (
{
background = {
paths = (
{
closed = 1;
nodes = (
"65 276 OFFCURVE",
"344 -20 OFFCURVE",
"785 -20 CURVE SMOOTH",
"837 -20 OFFCURVE",
"879 -18 OFFCURVE",
"928 -12 CURVE SMOOTH",
"941 -10 OFFCURVE",
"951 -12 OFFCURVE",
"957 -20 CURVE SMOOTH",
"1071 -168 OFFCURVE",
"1216 -256 OFFCURVE",
"1415 -256 CURVE SMOOTH",
"1479 -256 OFFCURVE",
"1503 -244 OFFCURVE",
"1503 -194 CURVE SMOOTH",
"1503 26 LINE SMOOTH",
"1503 40 OFFCURVE",
"1497 56 OFFCURVE",
"1470 60 CURVE SMOOTH",
"1384 72 OFFCURVE",
"1289 122 OFFCURVE",
"1289 156 CURVE SMOOTH",
"1289 164 OFFCURVE",
"1289 168 OFFCURVE",
"1293 172 CURVE",
"1428 304 OFFCURVE",
"1503 498 OFFCURVE",
"1503 738 CURVE SMOOTH",
"1503 1202 OFFCURVE",
"1218 1504 OFFCURVE",
"785 1504 CURVE SMOOTH",
"351 1504 OFFCURVE",
"65 1202 OFFCURVE",
"65 738 CURVE SMOOTH"
);
},
{
closed = 1;
nodes = (
"541 1064 OFFCURVE",
"611 1196 OFFCURVE",
"785 1196 CURVE SMOOTH",
"957 1196 OFFCURVE",
"1027 1064 OFFCURVE",
"1027 734 CURVE SMOOTH",
"1027 412 OFFCURVE",
"961 292 OFFCURVE",
"785 292 CURVE SMOOTH",
"607 292 OFFCURVE",
"541 412 OFFCURVE",
"541 734 CURVE SMOOTH"
);
}
);
};
layerId = "258ED206-D907-4350-8EBA-CBDDA1C16BF7";
paths = (
{
closed = 1;
nodes = (
"85 270 OFFCURVE",
"357 -20 OFFCURVE",
"787 -20 CURVE SMOOTH",
"837 -20 OFFCURVE",
"877 -18 OFFCURVE",
"947 -10 CURVE",
"1119 -226 OFFCURVE",
"1255 -250 OFFCURVE",
"1487 -250 CURVE",
"1487 54 LINE",
"1390 54 OFFCURVE",
"1300 104 OFFCURVE",
"1283 160 CURVE",
"1413 300 OFFCURVE",
"1487 486 OFFCURVE",
"1487 720 CURVE SMOOTH",
"1487 1172 OFFCURVE",
"1209 1466 OFFCURVE",
"787 1466 CURVE SMOOTH",
"365 1466 OFFCURVE",
"85 1172 OFFCURVE",
"85 720 CURVE SMOOTH"
);
},
{
closed = 1;
nodes = (
"512 1038 OFFCURVE",
"619 1154 OFFCURVE",
"787 1154 CURVE SMOOTH",
"955 1154 OFFCURVE",
"1063 1038 OFFCURVE",
"1063 716 CURVE SMOOTH",
"1063 402 OFFCURVE",
"959 292 OFFCURVE",
"787 292 CURVE SMOOTH",
"615 292 OFFCURVE",
"512 402 OFFCURVE",
"512 716 CURVE SMOOTH"
);
}
);
width = 1593;
},
{
layerId = "91AB5BCA-6A50-42DA-B2F7-8181BF189245";
paths = (
{
closed = 1;
nodes = (
"120 226 OFFCURVE",
"350 -20 OFFCURVE",
"708 -20 CURVE SMOOTH",
"764 -20 OFFCURVE",
"820 -12 OFFCURVE",
"884 2 CURVE",
"986 -196 OFFCURVE",
"1181 -238 OFFCURVE",
"1276 -238 CURVE",
"1276 -158 LINE",
"1148 -152 OFFCURVE",
"1036 -100 OFFCURVE",
"971 36 CURVE",
"1204 158 OFFCURVE",
"1294 388 OFFCURVE",
"1294 720 CURVE SMOOTH",
"1294 1210 OFFCURVE",
"1074 1466 OFFCURVE",
"708 1466 CURVE SMOOTH",
"342 1466 OFFCURVE",
"120 1210 OFFCURVE",
"120 720 CURVE SMOOTH"
);
},
{
closed = 1;
nodes = (
"208 1154 OFFCURVE",
"382 1384 OFFCURVE",
"708 1384 CURVE SMOOTH",
"1034 1384 OFFCURVE",
"1208 1154 OFFCURVE",
"1208 720 CURVE SMOOTH",
"1208 274 OFFCURVE",
"1028 62 OFFCURVE",
"708 62 CURVE SMOOTH",
"389 62 OFFCURVE",
"208 274 OFFCURVE",
"208 716 CURVE SMOOTH"
);
}
);
width = 1444;
}
);
leftKerningGroup = O;
leftMetricsKey = O;
rightKerningGroup = O;
rightMetricsKey = "=O*1.25";
unicode = 0051;
},
{
color = 6;
glyphname = R;
lastChange = "2020-07-15 15:32:33 +0000";
layers = (
{
anchors = (
{
name = bottom;
position = "{719, 0}";
},
{
name = top;
position = "{699, 1446}";
}
);
background = {
anchors = (
{
name = bottom;
position = "{715, 0}";
},
{
name = top;
position = "{695, 1484}";
}
);
paths = (
{
closed = 1;
nodes = (
"1129 624 LINE SMOOTH",
"1123 640 OFFCURVE",
"1123 656 OFFCURVE",
"1137 662 CURVE SMOOTH",
"1289 720 OFFCURVE",
"1398 872 OFFCURVE",
"1398 1060 CURVE SMOOTH",
"1398 1328 OFFCURVE",
"1175 1484 OFFCURVE",
"789 1484 CURVE SMOOTH",
"121 1484 LINE SMOOTH",
"97 1484 OFFCURVE",
"83 1468 OFFCURVE",
"83 1438 CURVE SMOOTH",
"83 50 LINE SMOOTH",
"83 16 OFFCURVE",
"95 0 OFFCURVE",
"135 0 CURVE SMOOTH",
"471 0 LINE SMOOTH",
"517 0 OFFCURVE",
"537 16 OFFCURVE",
"537 58 CURVE SMOOTH",
"537 568 LINE SMOOTH",
"537 574 OFFCURVE",
"543 590 OFFCURVE",
"561 590 CURVE SMOOTH",
"653 590 LINE SMOOTH",
"690 590 OFFCURVE",
"707 580 OFFCURVE",
"715 558 CURVE SMOOTH",
"903 42 LINE SMOOTH",
"911 14 OFFCURVE",
"929 0 OFFCURVE",
"957 0 CURVE SMOOTH",
"1345 0 LINE SMOOTH",
"1377 0 OFFCURVE",
"1394 30 OFFCURVE",
"1381 64 CURVE SMOOTH"
);
},
{
closed = 1;
nodes = (
"571 888 LINE SMOOTH",
"545 888 OFFCURVE",
"537 900 OFFCURVE",
"537 930 CURVE SMOOTH",
"537 1148 LINE SMOOTH",
"537 1178 OFFCURVE",
"549 1188 OFFCURVE",
"583 1188 CURVE SMOOTH",
"759 1188 LINE SMOOTH",
"849 1188 OFFCURVE",
"929 1134 OFFCURVE",
"929 1032 CURVE SMOOTH",
"929 946 OFFCURVE",
"873 888 OFFCURVE",
"770 888 CURVE SMOOTH"
);
}
);
};
layerId = "258ED206-D907-4350-8EBA-CBDDA1C16BF7";
rightMetricsKey = "=H/1.5";
paths = (
{
closed = 1;
nodes = (
"1083 560 LINE",
"1217 642 OFFCURVE",
"1312 758 OFFCURVE",
"1312 980 CURVE SMOOTH",
"1312 1242 OFFCURVE",
"1167 1446 OFFCURVE",
"791 1446 CURVE SMOOTH",
"135 1446 LINE",
"135 0 LINE",
"524 0 LINE",
"524 498 LINE",
"728 498 LINE",
"938 0 LINE",
"1337 0 LINE"
);
},
{
closed = 1;
nodes = (
"524 788 LINE",
"524 1158 LINE",
"747 1158 LINE SMOOTH",
"835 1158 OFFCURVE",
"921 1076 OFFCURVE",
"921 976 CURVE SMOOTH",
"921 882 OFFCURVE",
"847 788 OFFCURVE",
"747 788 CURVE SMOOTH"
);
}
);
width = 1427;
},
{
anchors = (
{
name = bottom;
position = "{652, 0}";
},
{
name = top;
position = "{638, 1446}";
}
);
layerId = "91AB5BCA-6A50-42DA-B2F7-8181BF189245";
paths = (
{
closed = 1;
nodes = (
"866 706 LINE",
"1006 742 OFFCURVE",
"1174 846 OFFCURVE",
"1174 1088 CURVE SMOOTH",
"1174 1326 OFFCURVE",
"1010 1446 OFFCURVE",
"730 1446 CURVE SMOOTH",
"220 1446 LINE",
"220 0 LINE",
"298 0 LINE",
"298 688 LINE",
"784 688 LINE",
"1076 0 LINE",
"1166 0 LINE"
);
},
{
closed = 1;
nodes = (
"298 770 LINE",
"298 1366 LINE",
"728 1366 LINE SMOOTH",
"964 1366 OFFCURVE",
"1090 1280 OFFCURVE",
"1090 1074 CURVE SMOOTH",
"1090 856 OFFCURVE",
"940 770 OFFCURVE",
"662 770 CURVE SMOOTH"
);
}
);
width = 1314;
}
);
leftKerningGroup = N;
leftMetricsKey = H;
rightKerningGroup = R;
rightMetricsKey = "=X+30";
unicode = 0052;
},
{
color = 6;
glyphname = S;
lastChange = "2020-07-15 15:32:33 +0000";
layers = (
{
anchors = (
{
name = bottom;
position = "{720, 0}";
},
{
name = top;
position = "{720, 1446}";
}
);
layerId = "258ED206-D907-4350-8EBA-CBDDA1C16BF7";
leftMetricsKey = "=O";
rightMetricsKey = "=O/1.1";
paths = (
{
closed = 1;
nodes = (
"1081 -20 OFFCURVE",
"1347 164 OFFCURVE",
"1347 446 CURVE SMOOTH",
"1347 678 OFFCURVE",
"1213 837 OFFCURVE",
"911 886 CURVE SMOOTH",
"696 921 LINE SMOOTH",
"574 941 OFFCURVE",
"534 984 OFFCURVE",
"534 1044 CURVE SMOOTH",
"534 1102 OFFCURVE",
"584 1164 OFFCURVE",
"728 1164 CURVE SMOOTH",
"861 1164 OFFCURVE",
"940 1117 OFFCURVE",
"952 1008 CURVE",
"1338 1008 LINE",
"1332 1276 OFFCURVE",
"1116 1464 OFFCURVE",
"739 1464 CURVE SMOOTH",
"392 1464 OFFCURVE",
"126 1294 OFFCURVE",
"126 1002 CURVE SMOOTH",
"126 756 OFFCURVE",
"277 617 OFFCURVE",
"536 571 CURVE SMOOTH",
"783 527 LINE SMOOTH",
"878 510 OFFCURVE",
"958 488 OFFCURVE",
"958 404 CURVE SMOOTH",
"958 308 OFFCURVE",
"843 278 OFFCURVE",
"750 278 CURVE SMOOTH",
"591 278 OFFCURVE",
"503 338 OFFCURVE",
"481 440 CURVE",
"85 440 LINE",
"110 128 OFFCURVE",
"428 -20 OFFCURVE",
"726 -20 CURVE SMOOTH"
);
}
);
width = 1424;
},
{
anchors = (
{
name = bottom;
position = "{625, 0}";
},
{
name = top;
position = "{638, 1446}";
}
);
layerId = "91AB5BCA-6A50-42DA-B2F7-8181BF189245";
rightMetricsKey = "=O*1.2";
paths = (
{
closed = 1;
nodes = (
"966 -20 OFFCURVE",
"1152 150 OFFCURVE",
"1152 369 CURVE SMOOTH",
"1152 514 OFFCURVE",
"1082 655 OFFCURVE",
"849 722 CURVE SMOOTH",
"519 817 LINE SMOOTH",
"357 864 OFFCURVE",
"261 936 OFFCURVE",
"261 1086 CURVE SMOOTH",
"261 1254 OFFCURVE",
"398 1386 OFFCURVE",
"638 1386 CURVE SMOOTH",
"829 1386 OFFCURVE",
"1014 1307 OFFCURVE",
"1037 1064 CURVE",
"1125 1064 LINE",
"1126 1258 OFFCURVE",
"962 1464 OFFCURVE",
"641 1464 CURVE SMOOTH",
"375 1464 OFFCURVE",
"177 1306 OFFCURVE",
"177 1086 CURVE SMOOTH",
"177 876 OFFCURVE",
"311 789 OFFCURVE",
"486 738 CURVE SMOOTH",
"810 644 LINE SMOOTH",
"998 589 OFFCURVE",
"1068 500 OFFCURVE",
"1068 369 CURVE SMOOTH",
"1068 180 OFFCURVE",
"889 58 OFFCURVE",
"657 58 CURVE SMOOTH",
"450 58 OFFCURVE",
"263 158 OFFCURVE",
"220 354 CURVE",
"132 354 LINE",
"175 112 OFFCURVE",
"386 -20 OFFCURVE",
"657 -20 CURVE SMOOTH"
);
}
);
width = 1296;
},
{
associatedMasterId = "91AB5BCA-6A50-42DA-B2F7-8181BF189245";
background = {
anchors = (
{
name = bottom;
position = "{635, 0}";
},
{
name = top;
position = "{648, 1446}";
}
);
};
layerId = "7F679B48-D090-4613-8EEF-8C6457811B2D";
rightMetricsKey = "=O*1.2";
name = "Jul 14 20, 15:45";
paths = (
{
closed = 1;
nodes = (
"995 -20 OFFCURVE",
"1162 150 OFFCURVE",
"1162 354 CURVE SMOOTH",
"1162 518 OFFCURVE",
"1082 672 OFFCURVE",
"859 731 CURVE SMOOTH",
"556 811 LINE SMOOTH",
"334 870 OFFCURVE",
"260 942 OFFCURVE",
"260 1066 CURVE SMOOTH",
"260 1286 OFFCURVE",
"478 1382 OFFCURVE",
"648 1382 CURVE SMOOTH",
"839 1382 OFFCURVE",
"1024 1304 OFFCURVE",
"1047 1064 CURVE",
"1135 1064 LINE",
"1136 1258 OFFCURVE",
"972 1464 OFFCURVE",
"651 1464 CURVE SMOOTH",
"365 1464 OFFCURVE",
"177 1292 OFFCURVE",
"177 1064 CURVE SMOOTH",
"177 892 OFFCURVE",
"295 787 OFFCURVE",
"504 734 CURVE SMOOTH",
"820 654 LINE SMOOTH",
"1001 608 OFFCURVE",
"1078 504 OFFCURVE",
"1078 350 CURVE SMOOTH",
"1078 180 OFFCURVE",
"906 58 OFFCURVE",
"659 58 CURVE SMOOTH",
"451 58 OFFCURVE",
"263 158 OFFCURVE",
"220 354 CURVE",
"132 354 LINE",
"175 112 OFFCURVE",
"399 -20 OFFCURVE",
"659 -20 CURVE SMOOTH"
);
}
);
width = 1306;
}
);
leftKerningGroup = S;
leftMetricsKey = "=O*1.1";
rightKerningGroup = S;
rightMetricsKey = "=O";
unicode = 0053;
},
{
color = 6;
glyphname = Schwa;
lastChange = "2020-07-15 15:32:33 +0000";
layers = (
{
background = {
paths = (
{
closed = 1;
nodes = (
"1014 840 OFFCURVE",
"999 828 OFFCURVE",
"976 828 CURVE SMOOTH",
"132 828 LINE SMOOTH",
"87 828 OFFCURVE",
"85 808 OFFCURVE",
"85 764 CURVE SMOOTH",
"85 266 OFFCURVE",
"321 -20 OFFCURVE",
"775 -20 CURVE SMOOTH",
"1151 -20 OFFCURVE",
"1481 308 OFFCURVE",
"1481 742 CURVE SMOOTH",
"1481 1168 OFFCURVE",
"1216 1466 OFFCURVE",
"781 1466 CURVE SMOOTH",
"497 1466 OFFCURVE",
"289 1344 OFFCURVE",
"169 1106 CURVE SMOOTH",
"153 1074 OFFCURVE",
"155 1056 OFFCURVE",
"180 1046 CURVE SMOOTH",
"447 912 LINE SMOOTH",
"481 896 OFFCURVE",
"493 900 OFFCURVE",
"501 914 CURVE SMOOTH",
"592 1060 OFFCURVE",
"665 1128 OFFCURVE",
"785 1128 CURVE SMOOTH",
"977 1128 OFFCURVE",
"1014 986 OFFCURVE",
"1014 872 CURVE SMOOTH"
);
},
{
closed = 1;
nodes = (
"987 374 OFFCURVE",
"930 284 OFFCURVE",
"771 284 CURVE SMOOTH",
"640 284 OFFCURVE",
"560 392 OFFCURVE",
"560 520 CURVE SMOOTH",
"560 550 OFFCURVE",
"569 556 OFFCURVE",
"601 556 CURVE SMOOTH",
"1010 554 LINE"
);
}
);
};
layerId = "258ED206-D907-4350-8EBA-CBDDA1C16BF7";
paths = (
{
closed = 1;
nodes = (
"1178 -20 OFFCURVE",
"1481 218 OFFCURVE",
"1481 742 CURVE SMOOTH",
"1481 1208 OFFCURVE",
"1216 1466 OFFCURVE",
"778 1466 CURVE SMOOTH",
"353 1466 OFFCURVE",
"85 1172 OFFCURVE",
"85 932 CURVE",
"519 932 LINE",
"519 1015 OFFCURVE",
"619 1108 OFFCURVE",
"769 1108 CURVE SMOOTH",
"919 1108 OFFCURVE",
"1014 1008 OFFCURVE",
"1014 828 CURVE",
"85 828 LINE",
"85 221 OFFCURVE",
"378 -20 OFFCURVE",
"778 -20 CURVE SMOOTH"
);
},
{
closed = 1;
nodes = (
"639 314 OFFCURVE",
"560 408 OFFCURVE",
"560 556 CURVE",
"1010 554 LINE",
"1010 408 OFFCURVE",
"930 314 OFFCURVE",
"778 314 CURVE SMOOTH"
);
}
);
width = 1566;
},
{
layerId = "91AB5BCA-6A50-42DA-B2F7-8181BF189245";
paths = (
{
closed = 1;
nodes = (
"1076 -20 OFFCURVE",
"1293 240 OFFCURVE",
"1293 720 CURVE SMOOTH",
"1293 1185 OFFCURVE",
"1076 1466 OFFCURVE",
"711 1466 CURVE SMOOTH",
"346 1466 OFFCURVE",
"120 1185 OFFCURVE",
"120 972 CURVE",
"216 972 LINE",
"216 1147 OFFCURVE",
"386 1382 OFFCURVE",
"711 1382 CURVE SMOOTH",
"1036 1382 OFFCURVE",
"1205 1146 OFFCURVE",
"1205 742 CURVE",
"123 742 LINE",
"123 238 OFFCURVE",
"346 -20 OFFCURVE",
"711 -20 CURVE SMOOTH"
);
},
{
closed = 1;
nodes = (
"386 64 OFFCURVE",
"217 320 OFFCURVE",
"217 660 CURVE",
"1205 660 LINE",
"1199 322 OFFCURVE",
"1036 64 OFFCURVE",
"711 64 CURVE SMOOTH"
);
}
);
width = 1413;
}
);
leftKerningGroup = O;
leftMetricsKey = O;
rightKerningGroup = O;
rightMetricsKey = O;
unicode = 018F;
},
{
color = 6;
glyphname = T;
lastChange = "2020-07-15 15:32:33 +0000";
layers = (
{
anchors = (
{
name = bottom;
position = "{654, 0}";
},
{
name = top;
position = "{654, 1446}";
}
);
background = {
anchors = (
{
name = bottom;
position = "{656, 0}";
},
{
name = top;
position = "{656, 1484}";
}
);
paths = (
{
closed = 1;
nodes = (
"8 1172 OFFCURVE",
"26 1162 OFFCURVE",
"54 1162 CURVE SMOOTH",
"406 1162 LINE SMOOTH",
"422 1162 OFFCURVE",
"428 1154 OFFCURVE",
"428 1134 CURVE SMOOTH",
"428 40 LINE SMOOTH",
"428 14 OFFCURVE",
"442 0 OFFCURVE",
"464 0 CURVE SMOOTH",
"844 0 LINE SMOOTH",
"866 0 OFFCURVE",
"882 14 OFFCURVE",
"882 44 CURVE SMOOTH",
"882 1142 LINE SMOOTH",
"882 1156 OFFCURVE",
"890 1162 OFFCURVE",
"906 1162 CURVE SMOOTH",
"1260 1162 LINE SMOOTH",
"1286 1162 OFFCURVE",
"1304 1172 OFFCURVE",
"1304 1200 CURVE SMOOTH",
"1304 1438 LINE SMOOTH",
"1304 1464 OFFCURVE",
"1288 1484 OFFCURVE",
"1254 1484 CURVE SMOOTH",
"58 1484 LINE SMOOTH",
"24 1484 OFFCURVE",
"8 1464 OFFCURVE",
"8 1438 CURVE SMOOTH",
"8 1200 LINE SMOOTH"
);
}
);
};
layerId = "258ED206-D907-4350-8EBA-CBDDA1C16BF7";
leftMetricsKey = "=X";
rightMetricsKey = "=X";
paths = (
{
closed = 1;
nodes = (
"440 1104 LINE",
"440 0 LINE",
"830 0 LINE",
"830 1104 LINE",
"1244 1104 LINE",
"1244 1446 LINE",
"30 1446 LINE",
"30 1104 LINE"
);
}
);
width = 1274;
},
{
anchors = (
{
name = bottom;
position = "{593, 4}";
},
{
name = top;
position = "{593, 1446}";
}
);
layerId = "91AB5BCA-6A50-42DA-B2F7-8181BF189245";
leftMetricsKey = "=X/2";
rightMetricsKey = "=X/2";
paths = (
{
closed = 1;
nodes = (
"551 1366 LINE",
"551 0 LINE",
"630 0 LINE",
"630 1366 LINE",
"1086 1366 LINE",
"1086 1446 LINE",
"55 1446 LINE",
"55 1366 LINE"
);
}
);
width = 1141;
}
);
leftKerningGroup = T;
leftMetricsKey = X;
rightKerningGroup = T;
rightMetricsKey = X;
unicode = 0054;
},
{
color = 3;
glyphname = Tbar;
lastChange = "2020-07-15 11:46:29 +0000";
layers = (
{
components = (
{
name = T;
}
);
layerId = "258ED206-D907-4350-8EBA-CBDDA1C16BF7";
paths = (
{
closed = 1;
nodes = (
"208 822 LINE",
"208 548 LINE",
"1062 548 LINE",
"1062 822 LINE"
);
}
);
width = 1274;
},
{
components = (
{
name = T;
}
);
layerId = "91AB5BCA-6A50-42DA-B2F7-8181BF189245";
paths = (
{
closed = 1;
nodes = (
"214 784 LINE",
"214 702 LINE",
"928 702 LINE",
"928 784 LINE"
);
}
);
width = 1141;
}
);
leftKerningGroup = T;
leftMetricsKey = T;
rightKerningGroup = T;
rightMetricsKey = T;
unicode = 0166;
},
{
color = 6;
glyphname = U;
lastChange = "2020-07-15 15:32:33 +0000";
layers = (
{
anchors = (
{
name = bottom;
position = "{759, 0}";
},
{
name = horn;
position = "{1314, 1094}";
},
{
name = ogonek;
position = "{917, 24}";
},
{
name = top;
position = "{759, 1446}";
}
);
background = {
anchors = (
{
name = ogonek;
position = "{949, 20}";
},
{
name = top;
position = "{759, 1484}";
}
);
paths = (
{
closed = 1;
nodes = (
"1365 1442 LINE SMOOTH",
"1365 1468 OFFCURVE",
"1352 1484 OFFCURVE",
"1329 1484 CURVE SMOOTH",
"1029 1484 LINE SMOOTH",
"1005 1484 OFFCURVE",
"991 1468 OFFCURVE",
"991 1438 CURVE SMOOTH",
"991 584 LINE SMOOTH",
"991 362 OFFCURVE",
"883 298 OFFCURVE",
"759 298 CURVE SMOOTH",
"623 298 OFFCURVE",
"539 374 OFFCURVE",
"539 578 CURVE SMOOTH",
"539 1442 LINE SMOOTH",
"539 1468 OFFCURVE",
"527 1484 OFFCURVE",
"503 1484 CURVE SMOOTH",
"123 1484 LINE SMOOTH",
"101 1484 OFFCURVE",
"85 1468 OFFCURVE",
"85 1438 CURVE SMOOTH",
"85 626 LINE SMOOTH",
"85 208 OFFCURVE",
"247 -20 OFFCURVE",
"725 -20 CURVE SMOOTH",
"1106 -20 OFFCURVE",
"1365 124 OFFCURVE",
"1365 586 CURVE SMOOTH"
);
}
);
};
layerId = "258ED206-D907-4350-8EBA-CBDDA1C16BF7";
paths = (
{
closed = 1;
nodes = (
"1383 1446 LINE",
"989 1446 LINE",
"989 582 LINE SMOOTH",
"989 382 OFFCURVE",
"879 306 OFFCURVE",
"759 306 CURVE SMOOTH",
"637 306 OFFCURVE",
"529 382 OFFCURVE",
"529 582 CURVE SMOOTH",
"529 1446 LINE",
"135 1446 LINE",
"135 598 LINE SMOOTH",
"135 230 OFFCURVE",
"293 -20 OFFCURVE",
"759 -20 CURVE SMOOTH",
"1225 -20 OFFCURVE",
"1383 230 OFFCURVE",
"1383 598 CURVE SMOOTH"
);
}
);
width = 1491;
},
{
anchors = (
{
name = bottom;
position = "{696, 4}";
},
{
name = horn;
position = "{1148, 1212}";
},
{
name = ogonek;
position = "{838, 18}";
},
{
name = top;
position = "{702, 1446}";
}
);
layerId = "91AB5BCA-6A50-42DA-B2F7-8181BF189245";
paths = (
{
closed = 1;
nodes = (
"1178 1446 LINE",
"1100 1446 LINE",
"1100 444 LINE SMOOTH",
"1100 188 OFFCURVE",
"966 56 OFFCURVE",
"698 56 CURVE SMOOTH",
"432 56 OFFCURVE",
"306 192 OFFCURVE",
"306 444 CURVE SMOOTH",
"306 1446 LINE",
"220 1446 LINE",
"220 478 LINE SMOOTH",
"220 138 OFFCURVE",
"370 -20 OFFCURVE",
"698 -20 CURVE SMOOTH",
"1020 -20 OFFCURVE",
"1178 134 OFFCURVE",
"1178 448 CURVE SMOOTH"
);
}
);
width = 1354;
}
);
leftKerningGroup = U;
leftMetricsKey = H;
rightKerningGroup = U;
rightMetricsKey = "=H/1.25";
unicode = 0055;
},
{
color = 6;
glyphname = Uhorn;
lastChange = "2020-07-15 15:32:33 +0000";
layers = (
{
anchors = (
{
name = bottom;
position = "{696, 4}";
},
{
name = horn;
position = "{1148, 1212}";
},
{
name = ogonek;
position = "{838, 18}";
},
{
name = top;
position = "{702, 1446}";
},
{
name = topright;
position = "{1274, 1292}";
}
);
layerId = "91AB5BCA-6A50-42DA-B2F7-8181BF189245";
paths = (
{
closed = 1;
nodes = (
"1298 1338 OFFCURVE",
"1267 1288 OFFCURVE",
"1178 1281 CURVE",
"1178 1446 LINE",
"1100 1446 LINE",
"1100 444 LINE SMOOTH",
"1100 188 OFFCURVE",
"966 56 OFFCURVE",
"698 56 CURVE SMOOTH",
"432 56 OFFCURVE",
"306 192 OFFCURVE",
"306 444 CURVE SMOOTH",
"306 1446 LINE",
"220 1446 LINE",
"220 478 LINE SMOOTH",
"220 138 OFFCURVE",
"370 -20 OFFCURVE",
"698 -20 CURVE SMOOTH",
"1020 -20 OFFCURVE",
"1178 134 OFFCURVE",
"1178 448 CURVE SMOOTH",
"1178 1210 LINE",
"1330 1205 OFFCURVE",
"1404 1291 OFFCURVE",
"1404 1470 CURVE",
"1302 1470 LINE"
);
}
);
width = 1520;
},
{
anchors = (
{
name = bottom;
position = "{759, 0}";
},
{
name = horn;
position = "{1314, 1094}";
},
{
name = ogonek;
position = "{917, 24}";
},
{
name = top;
position = "{759, 1446}";
},
{
name = topright;
position = "{1526, 1274}";
}
);
layerId = "258ED206-D907-4350-8EBA-CBDDA1C16BF7";
paths = (
{
closed = 1;
nodes = (
"1514 1297 OFFCURVE",
"1474 1273 OFFCURVE",
"1383 1271 CURVE",
"1383 1446 LINE",
"989 1446 LINE",
"989 582 LINE SMOOTH",
"989 382 OFFCURVE",
"879 306 OFFCURVE",
"759 306 CURVE SMOOTH",
"637 306 OFFCURVE",
"529 382 OFFCURVE",
"529 582 CURVE SMOOTH",
"529 1446 LINE",
"135 1446 LINE",
"135 598 LINE SMOOTH",
"135 230 OFFCURVE",
"293 -20 OFFCURVE",
"759 -20 CURVE SMOOTH",
"1225 -20 OFFCURVE",
"1383 230 OFFCURVE",
"1383 598 CURVE SMOOTH",
"1383 1088 LINE",
"1684 1070 OFFCURVE",
"1760 1188 OFFCURVE",
"1764 1492 CURVE",
"1530 1492 LINE"
);
}
);
width = 1812;
}
);
leftKerningGroup = U;
leftMetricsKey = U;
rightKerningGroup = Uhorn;
rightMetricsKey = "=U-60";
unicode = 01AF;
},
{
color = 6;
glyphname = V;
lastChange = "2020-07-15 15:32:33 +0000";
layers = (
{
background = {
paths = (
{
closed = 1;
nodes = (
"1092 1484 LINE SMOOTH",
"1068 1484 OFFCURVE",
"1046 1468 OFFCURVE",
"1040 1442 CURVE SMOOTH",
"790 566 LINE SMOOTH",
"784 546 OFFCURVE",
"776 546 OFFCURVE",
"770 564 CURVE SMOOTH",
"502 1442 LINE SMOOTH",
"494 1468 OFFCURVE",
"476 1484 OFFCURVE",
"452 1484 CURVE SMOOTH",
"66 1484 LINE SMOOTH",
"34 1484 OFFCURVE",
"16 1456 OFFCURVE",
"28 1426 CURVE SMOOTH",
"492 50 LINE SMOOTH",
"502 16 OFFCURVE",
"526 0 OFFCURVE",
"566 0 CURVE SMOOTH",
"890 0 LINE SMOOTH",
"930 0 OFFCURVE",
"954 16 OFFCURVE",
"964 50 CURVE SMOOTH",
"1428 1426 LINE SMOOTH",
"1439 1456 OFFCURVE",
"1422 1484 OFFCURVE",
"1390 1484 CURVE SMOOTH"
);
}
);
};
layerId = "258ED206-D907-4350-8EBA-CBDDA1C16BF7";
paths = (
{
closed = 1;
nodes = (
"1066 1446 LINE",
"732 456 LINE",
"397 1446 LINE",
"30 1446 LINE",
"518 0 LINE",
"946 0 LINE",
"1434 1446 LINE"
);
}
);
width = 1464;
},
{
layerId = "91AB5BCA-6A50-42DA-B2F7-8181BF189245";
paths = (
{
closed = 1;
nodes = (
"1141 1446 LINE",
"641 81 LINE",
"141 1446 LINE",
"55 1446 LINE",
"583 0 LINE",
"699 0 LINE",
"1227 1446 LINE"
);
}
);
width = 1282;
}
);
leftKerningGroup = V;
leftMetricsKey = T;
rightKerningGroup = V;
rightMetricsKey = T;
unicode = 0056;
},
{
color = 6;
glyphname = W;
lastChange = "2020-07-15 15:32:33 +0000";
layers = (
{
anchors = (
{
name = top;
position = "{982, 1446}";
}
);
background = {
anchors = (
{
name = top;
position = "{1030, 1484}";
}
);
paths = (
{
closed = 1;
nodes = (
"1790 1484 LINE SMOOTH",
"1748 1484 OFFCURVE",
"1732 1468 OFFCURVE",
"1726 1442 CURVE SMOOTH",
"1522 678 LINE SMOOTH",
"1518 662 OFFCURVE",
"1504 666 OFFCURVE",
"1500 682 CURVE SMOOTH",
"1280 1442 LINE SMOOTH",
"1272 1468 OFFCURVE",
"1258 1484 OFFCURVE",
"1216 1484 CURVE SMOOTH",
"936 1484 LINE SMOOTH",
"894 1484 OFFCURVE",
"878 1468 OFFCURVE",
"872 1442 CURVE SMOOTH",
"662 692 LINE SMOOTH",
"656 670 OFFCURVE",
"647 670 OFFCURVE",
"638 700 CURVE SMOOTH",
"426 1442 LINE SMOOTH",
"418 1468 OFFCURVE",
"404 1484 OFFCURVE",
"362 1484 CURVE SMOOTH",
"32 1484 LINE SMOOTH",
"-20 1484 OFFCURVE",
"-40 1450 OFFCURVE",
"-28 1404 CURVE SMOOTH",
"380 50 LINE SMOOTH",
"392 16 OFFCURVE",
"412 0 OFFCURVE",
"452 0 CURVE SMOOTH",
"738 0 LINE SMOOTH",
"780 0 OFFCURVE",
"800 16 OFFCURVE",
"810 50 CURVE SMOOTH",
"1016 750 LINE SMOOTH",
"1030 790 OFFCURVE",
"1040 786 OFFCURVE",
"1048 754 CURVE SMOOTH",
"1256 50 LINE SMOOTH",
"1266 16 OFFCURVE",
"1288 0 OFFCURVE",
"1328 0 CURVE SMOOTH",
"1604 0 LINE SMOOTH",
"1644 0 OFFCURVE",
"1664 16 OFFCURVE",
"1676 50 CURVE SMOOTH",
"2082 1404 LINE SMOOTH",
"2094 1450 OFFCURVE",
"2074 1484 OFFCURVE",
"2022 1484 CURVE SMOOTH"
);
}
);
};
layerId = "258ED206-D907-4350-8EBA-CBDDA1C16BF7";
paths = (
{
closed = 1;
nodes = (
"1558 1446 LINE",
"1342 670 LINE",
"1118 1446 LINE",
"846 1446 LINE",
"630 670 LINE",
"406 1446 LINE",
"30 1446 LINE",
"466 0 LINE",
"752 0 LINE",
"982 786 LINE",
"1212 0 LINE",
"1502 0 LINE",
"1934 1446 LINE"
);
}
);
width = 1964;
},
{
anchors = (
{
name = top;
position = "{936, 1446}";
}
);
layerId = "91AB5BCA-6A50-42DA-B2F7-8181BF189245";
leftMetricsKey = "=X/2";
rightMetricsKey = "=X/2";
paths = (
{
closed = 1;
nodes = (
"1736 1446 LINE",
"1352 98 LINE",
"975 1446 LINE",
"896 1446 LINE",
"513 98 LINE",
"142 1446 LINE",
"55 1446 LINE",
"461 0 LINE",
"564 0 LINE",
"934 1296 LINE",
"1297 0 LINE",
"1406 0 LINE",
"1822 1446 LINE"
);
}
);
width = 1877;
}
);
leftKerningGroup = V;
leftMetricsKey = X;
rightKerningGroup = V;
rightMetricsKey = X;
unicode = 0057;
},
{
color = 6;
glyphname = X;
lastChange = "2020-07-15 15:32:33 +0000";
layers = (
{
background = {
paths = (
{
closed = 1;
nodes = (
"976 806 LINE",
"1420 1484 LINE",
"986 1484 LINE",
"758 1082 LINE",
"530 1484 LINE",
"20 1484 LINE",
"492 748 LINE",
"74 102 LINE SMOOTH",
"22 22 OFFCURVE",
"44 0 OFFCURVE",
"100 0 CURVE SMOOTH",
"448 0 LINE",
"714 466 LINE",
"986 0 LINE",
"1406 0 LINE SMOOTH",
"1462 0 OFFCURVE",
"1484 24 OFFCURVE",
"1434 102 CURVE SMOOTH"
);
}
);
};
layerId = "258ED206-D907-4350-8EBA-CBDDA1C16BF7";
paths = (
{
closed = 1;
nodes = (
"946 786 LINE",
"1378 1446 LINE",
"970 1446 LINE",
"748 1054 LINE",
"524 1446 LINE",
"42 1446 LINE",
"502 730 LINE",
"30 0 LINE",
"444 0 LINE",
"704 454 LINE",
"970 0 LINE",
"1456 0 LINE"
);
}
);
width = 1486;
},
{
layerId = "91AB5BCA-6A50-42DA-B2F7-8181BF189245";
paths = (
{
closed = 1;
nodes = (
"704 742 LINE",
"1181 1446 LINE",
"1085 1446 LINE",
"657 811 LINE",
"226 1446 LINE",
"131 1446 LINE",
"610 742 LINE",
"110 0 LINE",
"205 0 LINE",
"657 671 LINE",
"1114 0 LINE",
"1209 0 LINE"
);
}
);
width = 1319;
}
);
leftKerningGroup = X;
rightKerningGroup = X;
unicode = 0058;
},
{
color = 6;
glyphname = Y;
lastChange = "2020-07-15 15:32:33 +0000";
layers = (
{
anchors = (
{
name = bottom;
position = "{721, 0}";
},
{
name = top;
position = "{771, 1446}";
}
);
background = {
anchors = (
{
name = top;
position = "{769, 1484}";
}
);
paths = (
{
closed = 1;
nodes = (
"1114 1484 LINE SMOOTH",
"1076 1484 OFFCURVE",
"1063 1476 OFFCURVE",
"1046 1442 CURVE SMOOTH",
"805 996 LINE SMOOTH",
"790 972 OFFCURVE",
"782 974 OFFCURVE",
"771 998 CURVE SMOOTH",
"524 1442 LINE SMOOTH",
"507 1474 OFFCURVE",
"496 1484 OFFCURVE",
"456 1484 CURVE SMOOTH",
"55 1484 LINE SMOOTH",
"13 1484 OFFCURVE",
"-2 1460 OFFCURVE",
"19 1428 CURVE SMOOTH",
"486 664 LINE SMOOTH",
"504 634 OFFCURVE",
"515 618 OFFCURVE",
"515 576 CURVE SMOOTH",
"515 50 LINE SMOOTH",
"515 16 OFFCURVE",
"526 0 OFFCURVE",
"566 0 CURVE SMOOTH",
"902 0 LINE SMOOTH",
"948 0 OFFCURVE",
"969 16 OFFCURVE",
"969 58 CURVE SMOOTH",
"969 550 LINE SMOOTH",
"969 634 OFFCURVE",
"971 654 OFFCURVE",
"988 682 CURVE SMOOTH",
"1456 1438 LINE SMOOTH",
"1473 1464 OFFCURVE",
"1462 1484 OFFCURVE",
"1429 1484 CURVE SMOOTH"
);
}
);
};
layerId = "258ED206-D907-4350-8EBA-CBDDA1C16BF7";
leftMetricsKey = "=X/2";
rightMetricsKey = "=X/2";
paths = (
{
closed = 1;
nodes = (
"1004 1446 LINE",
"721 932 LINE",
"435 1446 LINE",
"15 1446 LINE",
"524 602 LINE",
"524 0 LINE",
"914 0 LINE",
"914 602 LINE",
"1429 1446 LINE"
);
}
);
width = 1444;
},
{
anchors = (
{
name = bottom;
position = "{552, 0}";
},
{
name = top;
position = "{548, 1450}";
}
);
layerId = "91AB5BCA-6A50-42DA-B2F7-8181BF189245";
paths = (
{
closed = 1;
nodes = (
"980 1446 LINE",
"552 702 LINE",
"116 1446 LINE",
"28 1446 LINE",
"513 624 LINE",
"513 0 LINE",
"590 0 LINE",
"590 622 LINE",
"1066 1446 LINE"
);
}
);
width = 1094;
}
);
leftKerningGroup = Y;
leftMetricsKey = "=X/4";
rightKerningGroup = Y;
rightMetricsKey = "=X/4";
unicode = 0059;
},
{
color = 6;
glyphname = Z;
lastChange = "2020-07-15 15:32:33 +0000";
layers = (
{
anchors = (
{
name = bottom;
position = "{716, 0}";
},
{
name = top;
position = "{762, 1446}";
}
);
background = {
anchors = (
{
name = bottom;
position = "{711, 0}";
},
{
name = top;
position = "{760, 1484}";
}
);
paths = (
{
closed = 1;
nodes = (
"1371 0 LINE",
"1371 332 LINE",
"689 332 LINE",
"1384 1308 LINE",
"1384 1484 LINE",
"136 1484 LINE",
"136 1154 LINE",
"749 1154 LINE",
"69 182 LINE",
"69 0 LINE"
);
}
);
};
layerId = "258ED206-D907-4350-8EBA-CBDDA1C16BF7";
paths = (
{
closed = 1;
nodes = (
"1319 0 LINE",
"1319 324 LINE",
"636 324 LINE",
"1331 1276 LINE",
"1331 1446 LINE",
"153 1446 LINE",
"153 1126 LINE",
"771 1126 LINE",
"90 178 LINE",
"90 0 LINE"
);
}
);
width = 1399;
},
{
anchors = (
{
name = bottom;
position = "{647, 0}";
},
{
name = top;
position = "{633, 1446}";
}
);
layerId = "91AB5BCA-6A50-42DA-B2F7-8181BF189245";
paths = (
{
closed = 1;
nodes = (
"1098 0 LINE",
"1098 78 LINE",
"245 78 LINE",
"1098 1386 LINE",
"1098 1446 LINE",
"165 1446 LINE",
"165 1368 LINE",
"997 1368 LINE",
"147 62 LINE",
"147 0 LINE"
);
}
);
width = 1208;
}
);
leftKerningGroup = Z;
leftMetricsKey = "=H/1.5";
rightKerningGroup = Z;
rightMetricsKey = "=H/2";
unicode = 005A;
},
{
color = 6;
glyphname = a;
lastChange = "2020-07-15 15:32:33 +0000";
layers = (
{
anchors = (
{
name = bottom;
position = "{597, 0}";
},
{
name = ogonek;
position = "{1011, 20}";
},
{
name = top;
position = "{604, 1034}";
}
);
background = {
anchors = (
{
name = ogonek;
position = "{999, 20}";
},
{
name = top;
position = "{575, 1060}";
}
);
guideLines = (
{
angle = 90;
position = "{338, 102}";
}
);
paths = (
{
closed = 1;
nodes = (
"661 112 OFFCURVE",
"677 110 OFFCURVE",
"681 84 CURVE SMOOTH",
"683 70 LINE SMOOTH",
"690 32 OFFCURVE",
"699 0 OFFCURVE",
"735 0 CURVE SMOOTH",
"1009 0 LINE SMOOTH",
"1047 0 OFFCURVE",
"1055 14 OFFCURVE",
"1055 54 CURVE SMOOTH",
"1055 750 LINE SMOOTH",
"1055 946 OFFCURVE",
"945 1080 OFFCURVE",
"575 1080 CURVE SMOOTH",
"314 1080 OFFCURVE",
"131 1012 OFFCURVE",
"71 842 CURVE SMOOTH",
"53 792 OFFCURVE",
"66 782 OFFCURVE",
"85 778 CURVE SMOOTH",
"347 726 LINE SMOOTH",
"383 720 OFFCURVE",
"391 726 OFFCURVE",
"401 748 CURVE SMOOTH",
"436 822 OFFCURVE",
"501 842 OFFCURVE",
"557 842 CURVE SMOOTH",
"637 842 OFFCURVE",
"675 800 OFFCURVE",
"675 726 CURVE SMOOTH",
"675 692 LINE SMOOTH",
"675 668 OFFCURVE",
"655 664 OFFCURVE",
"646 664 CURVE SMOOTH",
"631 664 LINE SMOOTH",
"253 664 OFFCURVE",
"18 506 OFFCURVE",
"18 272 CURVE SMOOTH",
"18 106 OFFCURVE",
"137 -20 OFFCURVE",
"337 -20 CURVE SMOOTH",
"461 -20 OFFCURVE",
"555 24 OFFCURVE",
"627 84 CURVE SMOOTH"
);
},
{
closed = 1;
nodes = (
"675 342 LINE SMOOTH",
"675 312 OFFCURVE",
"653 290 OFFCURVE",
"629 270 CURVE SMOOTH",
"608 252 OFFCURVE",
"571 232 OFFCURVE",
"520 232 CURVE SMOOTH",
"447 232 OFFCURVE",
"405 270 OFFCURVE",
"405 326 CURVE SMOOTH",
"405 438 OFFCURVE",
"573 484 OFFCURVE",
"637 484 CURVE SMOOTH",
"646 484 LINE SMOOTH",
"669 484 OFFCURVE",
"675 472 OFFCURVE",
"675 448 CURVE SMOOTH"
);
}
);
};
layerId = "258ED206-D907-4350-8EBA-CBDDA1C16BF7";
paths = (
{
closed = 1;
nodes = (
"564 -20 OFFCURVE",
"649 24 OFFCURVE",
"711 164 CURVE",
"745 0 LINE",
"1067 0 LINE",
"1067 732 LINE SMOOTH",
"1067 922 OFFCURVE",
"959 1054 OFFCURVE",
"599 1054 CURVE SMOOTH",
"333 1054 OFFCURVE",
"117 956 OFFCURVE",
"106 712 CURVE",
"421 712 LINE",
"453 782 OFFCURVE",
"527 800 OFFCURVE",
"581 802 CURVE SMOOTH",
"659 804 OFFCURVE",
"695 774 OFFCURVE",
"695 708 CURVE SMOOTH",
"695 664 LINE",
"615 664 LINE SMOOTH",
"239 664 OFFCURVE",
"66 534 OFFCURVE",
"66 310 CURVE SMOOTH",
"66 96 OFFCURVE",
"228 -20 OFFCURVE",
"423 -20 CURVE SMOOTH"
);
},
{
closed = 1;
nodes = (
"493 226 OFFCURVE",
"431 272 OFFCURVE",
"431 350 CURVE SMOOTH",
"431 452 OFFCURVE",
"571 480 OFFCURVE",
"633 480 CURVE SMOOTH",
"695 480 LINE",
"695 350 LINE",
"693 284 OFFCURVE",
"635 226 OFFCURVE",
"560 226 CURVE SMOOTH"
);
}
);
width = 1157;
},
{
anchors = (
{
name = bottom;
position = "{548, 0}";
},
{
name = ogonek;
position = "{907, 28}";
},
{
name = top;
position = "{549, 1034}";
}
);
layerId = "91AB5BCA-6A50-42DA-B2F7-8181BF189245";
paths = (
{
closed = 1;
nodes = (
"605 -20 OFFCURVE",
"754 38 OFFCURVE",
"844 210 CURVE",
"847 0 LINE",
"919 0 LINE",
"919 716 LINE SMOOTH",
"919 946 OFFCURVE",
"771 1054 OFFCURVE",
"550 1054 CURVE SMOOTH",
"307 1054 OFFCURVE",
"185 936 OFFCURVE",
"174 758 CURVE",
"258 758 LINE",
"280 908 OFFCURVE",
"393 978 OFFCURVE",
"546 978 CURVE SMOOTH",
"747 978 OFFCURVE",
"842 872 OFFCURVE",
"842 714 CURVE SMOOTH",
"842 614 LINE",
"603 606 LINE SMOOTH",
"260 594 OFFCURVE",
"121 496 OFFCURVE",
"121 264 CURVE SMOOTH",
"121 88 OFFCURVE",
"249 -20 OFFCURVE",
"453 -20 CURVE SMOOTH"
);
},
{
closed = 1;
nodes = (
"307 54 OFFCURVE",
"203 134 OFFCURVE",
"203 270 CURVE SMOOTH",
"203 450 OFFCURVE",
"311 526 OFFCURVE",
"641 532 CURVE SMOOTH",
"842 536 LINE",
"842 334 LINE SMOOTH",
"842 194 OFFCURVE",
"638 54 OFFCURVE",
"466 54 CURVE SMOOTH"
);
}
);
width = 1079;
}
);
leftKerningGroup = a;
leftMetricsKey = "=o*1.1";
rightKerningGroup = n;
rightMetricsKey = n;
unicode = 0061;
},
{
color = 6;
glyphname = ae;
lastChange = "2020-07-15 15:32:33 +0000";
layers = (
{
anchors = (
{
name = bottom;
position = "{597, 0}";
},
{
name = ogonek;
position = "{1011, 20}";
},
{
name = top;
position = "{856, 1034}";
}
);
background = {
anchors = (
{
name = top;
position = "{942, 1060}";
}
);
paths = (
{
closed = 1;
nodes = (
"1785 458 LINE SMOOTH",
"1820 460 OFFCURVE",
"1822 474 OFFCURVE",
"1822 508 CURVE SMOOTH",
"1822 870 OFFCURVE",
"1591 1080 OFFCURVE",
"1278 1080 CURVE SMOOTH",
"1173 1080 OFFCURVE",
"1074 1052 OFFCURVE",
"988 1000 CURVE",
"911 1050 OFFCURVE",
"793 1078 OFFCURVE",
"616 1080 CURVE SMOOTH",
"310 1080 OFFCURVE",
"196 998 OFFCURVE",
"119 842 CURVE SMOOTH",
"110 820 OFFCURVE",
"116 782 OFFCURVE",
"133 778 CURVE SMOOTH",
"396 726 LINE SMOOTH",
"432 720 OFFCURVE",
"440 722 OFFCURVE",
"450 748 CURVE",
"484 822 OFFCURVE",
"549 842 OFFCURVE",
"606 842 CURVE SMOOTH",
"686 842 OFFCURVE",
"724 800 OFFCURVE",
"724 726 CURVE SMOOTH",
"724 692 LINE SMOOTH",
"724 668 OFFCURVE",
"703 664 OFFCURVE",
"688 664 CURVE",
"642 662 LINE SMOOTH",
"257 644 OFFCURVE",
"66 500 OFFCURVE",
"66 286 CURVE SMOOTH",
"66 104 OFFCURVE",
"186 -20 OFFCURVE",
"411 -20 CURVE SMOOTH",
"596 -20 OFFCURVE",
"726 24 OFFCURVE",
"848 142 CURVE SMOOTH",
"856 150 OFFCURVE",
"862 150 OFFCURVE",
"869 142 CURVE SMOOTH",
"969 40 OFFCURVE",
"1117 -20 OFFCURVE",
"1285 -20 CURVE SMOOTH",
"1509 -20 OFFCURVE",
"1646 34 OFFCURVE",
"1789 236 CURVE",
"1808 258 OFFCURVE",
"1801 276 OFFCURVE",
"1782 284 CURVE SMOOTH",
"1600 358 LINE SMOOTH",
"1574 368 OFFCURVE",
"1568 366 OFFCURVE",
"1558 356 CURVE SMOOTH",
"1469 270 OFFCURVE",
"1408 244 OFFCURVE",
"1339 244 CURVE SMOOTH",
"1224 244 OFFCURVE",
"1133 302 OFFCURVE",
"1133 424 CURVE SMOOTH",
"1133 448 OFFCURVE",
"1144 458 OFFCURVE",
"1163 458 CURVE SMOOTH"
);
},
{
closed = 1;
nodes = (
"1396 846 OFFCURVE",
"1434 744 OFFCURVE",
"1434 692 CURVE SMOOTH",
"1434 668 OFFCURVE",
"1425 664 OFFCURVE",
"1400 664 CURVE SMOOTH",
"1140 666 LINE",
"1138 790 OFFCURVE",
"1213 846 OFFCURVE",
"1295 846 CURVE SMOOTH"
);
},
{
closed = 1;
nodes = (
"724 320 LINE SMOOTH",
"724 254 OFFCURVE",
"650 216 OFFCURVE",
"574 216 CURVE SMOOTH",
"495 216 OFFCURVE",
"453 254 OFFCURVE",
"453 312 CURVE SMOOTH",
"453 410 OFFCURVE",
"583 460 OFFCURVE",
"659 466 CURVE SMOOTH",
"688 468 LINE SMOOTH",
"711 468 OFFCURVE",
"724 456 OFFCURVE",
"724 432 CURVE SMOOTH"
);
}
);
};
layerId = "258ED206-D907-4350-8EBA-CBDDA1C16BF7";
paths = (
{
closed = 1;
nodes = (
"657 -20 OFFCURVE",
"771 50 OFFCURVE",
"827 175 CURVE",
"922 52 OFFCURVE",
"1075 -20 OFFCURVE",
"1264 -20 CURVE SMOOTH",
"1493 -20 OFFCURVE",
"1728 122 OFFCURVE",
"1760 352 CURVE",
"1416 352 LINE",
"1384 272 OFFCURVE",
"1325 252 OFFCURVE",
"1254 252 CURVE SMOOTH",
"1170 252 OFFCURVE",
"1102 304 OFFCURVE",
"1104 428 CURVE",
"1756 428 LINE",
"1756 518 LINE SMOOTH",
"1756 824 OFFCURVE",
"1586 1054 OFFCURVE",
"1248 1054 CURVE SMOOTH",
"1134 1054 OFFCURVE",
"1036 1024 OFFCURVE",
"957 973 CURVE",
"884 1024 OFFCURVE",
"770 1054 OFFCURVE",
"599 1054 CURVE SMOOTH",
"333 1054 OFFCURVE",
"117 956 OFFCURVE",
"106 712 CURVE",
"421 712 LINE",
"453 782 OFFCURVE",
"528 800 OFFCURVE",
"581 802 CURVE SMOOTH",
"659 804 OFFCURVE",
"696 774 OFFCURVE",
"696 708 CURVE SMOOTH",
"696 664 LINE",
"616 664 LINE SMOOTH",
"240 664 OFFCURVE",
"66 534 OFFCURVE",
"66 310 CURVE SMOOTH",
"66 96 OFFCURVE",
"228 -20 OFFCURVE",
"423 -20 CURVE SMOOTH"
);
},
{
closed = 1;
nodes = (
"493 226 OFFCURVE",
"431 272 OFFCURVE",
"431 350 CURVE SMOOTH",
"431 452 OFFCURVE",
"572 480 OFFCURVE",
"633 480 CURVE SMOOTH",
"696 480 LINE",
"696 350 LINE SMOOTH",
"694 284 OFFCURVE",
"635 226 OFFCURVE",
"560 226 CURVE SMOOTH"
);
},
{
closed = 1;
nodes = (
"1102 724 OFFCURVE",
"1168 792 OFFCURVE",
"1248 792 CURVE SMOOTH",
"1346 792 OFFCURVE",
"1397 724 OFFCURVE",
"1397 646 CURVE",
"1102 646 LINE"
);
}
);
width = 1826;
},
{
anchors = (
{
name = bottom;
position = "{548, 0}";
},
{
name = ogonek;
position = "{907, 28}";
},
{
name = top;
position = "{903, 1034}";
}
);
layerId = "91AB5BCA-6A50-42DA-B2F7-8181BF189245";
paths = (
{
closed = 1;
nodes = (
"640 -20 OFFCURVE",
"839 86 OFFCURVE",
"882 250 CURVE",
"953 75 OFFCURVE",
"1104 -20 OFFCURVE",
"1296 -20 CURVE SMOOTH",
"1482 -20 OFFCURVE",
"1655 75 OFFCURVE",
"1696 276 CURVE",
"1611 276 LINE",
"1587 140 OFFCURVE",
"1460 56 OFFCURVE",
"1296 56 CURVE SMOOTH",
"1034 56 OFFCURVE",
"921 264 OFFCURVE",
"921 498 CURVE",
"1708 498 LINE",
"1708 554 LINE SMOOTH",
"1708 872 OFFCURVE",
"1551 1054 OFFCURVE",
"1284 1054 CURVE SMOOTH",
"1106 1054 OFFCURVE",
"975 974 OFFCURVE",
"902 830 CURVE",
"857 971 OFFCURVE",
"726 1054 OFFCURVE",
"550 1054 CURVE SMOOTH",
"309 1054 OFFCURVE",
"183 904 OFFCURVE",
"174 758 CURVE",
"258 758 LINE",
"279 900 OFFCURVE",
"395 978 OFFCURVE",
"546 978 CURVE SMOOTH",
"721 978 OFFCURVE",
"842 880 OFFCURVE",
"842 714 CURVE SMOOTH",
"842 614 LINE",
"603 606 LINE SMOOTH",
"260 595 OFFCURVE",
"121 496 OFFCURVE",
"121 264 CURVE SMOOTH",
"121 88 OFFCURVE",
"249 -20 OFFCURVE",
"453 -20 CURVE SMOOTH"
);
},
{
closed = 1;
nodes = (
"307 54 OFFCURVE",
"203 134 OFFCURVE",
"203 270 CURVE SMOOTH",
"203 450 OFFCURVE",
"311 525 OFFCURVE",
"641 532 CURVE SMOOTH",
"836 536 LINE",
"837 383 LINE SMOOTH",
"837 243 OFFCURVE",
"696 54 OFFCURVE",
"466 54 CURVE SMOOTH"
);
},
{
closed = 1;
nodes = (
"921 768 OFFCURVE",
"1028 978 OFFCURVE",
"1282 978 CURVE SMOOTH",
"1516 978 OFFCURVE",
"1625 804 OFFCURVE",
"1625 574 CURVE",
"923 574 LINE"
);
}
);
width = 1829;
}
);
leftKerningGroup = a;
leftMetricsKey = a;
rightKerningGroup = o;
rightMetricsKey = e;
unicode = 00E6;
},
{
color = 6;
glyphname = b;
lastChange = "2020-07-15 15:32:33 +0000";
layers = (
{
anchors = (
{
name = bottom;
position = "{730, 0}";
}
);
background = {
paths = (
{
closed = 1;
nodes = (
"367 0 OFFCURVE",
"383 14 OFFCURVE",
"393 46 CURVE SMOOTH",
"425 140 LINE SMOOTH",
"431 156 OFFCURVE",
"440 158 OFFCURVE",
"451 146 CURVE SMOOTH",
"530 44 OFFCURVE",
"637 -20 OFFCURVE",
"763 -20 CURVE SMOOTH",
"1055 -20 OFFCURVE",
"1217 198 OFFCURVE",
"1217 538 CURVE SMOOTH",
"1217 872 OFFCURVE",
"1066 1080 OFFCURVE",
"805 1080 CURVE SMOOTH",
"715 1080 OFFCURVE",
"633 1054 OFFCURVE",
"551 976 CURVE SMOOTH",
"531 960 OFFCURVE",
"513 960 OFFCURVE",
"513 992 CURVE SMOOTH",
"513 1442 LINE SMOOTH",
"513 1468 OFFCURVE",
"501 1484 OFFCURVE",
"478 1484 CURVE SMOOTH",
"152 1484 LINE SMOOTH",
"129 1484 OFFCURVE",
"114 1468 OFFCURVE",
"114 1438 CURVE SMOOTH",
"114 50 LINE SMOOTH",
"114 16 OFFCURVE",
"125 0 OFFCURVE",
"167 0 CURVE SMOOTH",
"341 0 LINE SMOOTH"
);
},
{
closed = 1;
nodes = (
"553 806 OFFCURVE",
"599 836 OFFCURVE",
"661 836 CURVE SMOOTH",
"759 836 OFFCURVE",
"814 762 OFFCURVE",
"814 530 CURVE SMOOTH",
"814 296 OFFCURVE",
"759 214 OFFCURVE",
"656 214 CURVE SMOOTH",
"572 214 OFFCURVE",
"513 270 OFFCURVE",
"513 370 CURVE SMOOTH",
"513 756 LINE"
);
}
);
};
layerId = "258ED206-D907-4350-8EBA-CBDDA1C16BF7";
paths = (
{
closed = 1;
nodes = (
"1020 -20 OFFCURVE",
"1178 194 OFFCURVE",
"1178 524 CURVE SMOOTH",
"1178 850 OFFCURVE",
"1030 1054 OFFCURVE",
"776 1054 CURVE SMOOTH",
"673 1054 OFFCURVE",
"554 1022 OFFCURVE",
"490 916 CURVE",
"490 1486 LINE",
"100 1486 LINE",
"100 0 LINE",
"375 0 LINE",
"421 212 LINE",
"468 68 OFFCURVE",
"566 -20 OFFCURVE",
"734 -20 CURVE SMOOTH"
);
},
{
closed = 1;
nodes = (
"551 252 OFFCURVE",
"490 320 OFFCURVE",
"490 524 CURVE SMOOTH",
"490 708 OFFCURVE",
"551 780 OFFCURVE",
"642 780 CURVE SMOOTH",
"730 780 OFFCURVE",
"802 716 OFFCURVE",
"802 524 CURVE SMOOTH",
"802 320 OFFCURVE",
"730 252 OFFCURVE",
"642 252 CURVE"
);
}
);
width = 1238;
},
{
anchors = (
{
name = bottom;
position = "{619, 0}";
}
);
layerId = "91AB5BCA-6A50-42DA-B2F7-8181BF189245";
paths = (
{
closed = 1;
nodes = (
"921 -20 OFFCURVE",
"1060 196 OFFCURVE",
"1060 520 CURVE SMOOTH",
"1060 883 OFFCURVE",
"887 1054 OFFCURVE",
"627 1054 CURVE SMOOTH",
"380 1054 OFFCURVE",
"278 893 OFFCURVE",
"260 846 CURVE",
"260 1486 LINE",
"180 1486 LINE",
"180 0 LINE",
"252 0 LINE",
"258 212 LINE",
"273 164 OFFCURVE",
"346 -20 OFFCURVE",
"627 -20 CURVE SMOOTH"
);
},
{
closed = 1;
nodes = (
"354 54 OFFCURVE",
"260 200 OFFCURVE",
"260 533 CURVE SMOOTH",
"264 805 OFFCURVE",
"354 978 OFFCURVE",
"619 978 CURVE SMOOTH",
"860 978 OFFCURVE",
"974 800 OFFCURVE",
"974 533 CURVE SMOOTH",
"974 207 OFFCURVE",
"834 54 OFFCURVE",
"625 54 CURVE SMOOTH"
);
}
);
width = 1170;
}
);
leftKerningGroup = n;
leftMetricsKey = n;
rightKerningGroup = o;
rightMetricsKey = o;
unicode = 0062;
},
{
color = 6;
glyphname = c;
lastChange = "2020-07-15 15:32:33 +0000";
layers = (
{
anchors = (
{
name = bottom;
position = "{579, 0}";
},
{
name = top;
position = "{578, 1034}";
}
);
background = {
anchors = (
{
name = bottom;
position = "{556, 0}";
},
{
name = top;
position = "{558, 1060}";
}
);
paths = (
{
closed = 1;
nodes = (
"241 1080 OFFCURVE",
"4 856 OFFCURVE",
"4 526 CURVE SMOOTH",
"4 202 OFFCURVE",
"238 -20 OFFCURVE",
"558 -20 CURVE SMOOTH",
"882 -20 OFFCURVE",
"1014 210 OFFCURVE",
"1033 314 CURVE SMOOTH",
"1042 344 OFFCURVE",
"1037 356 OFFCURVE",
"1016 360 CURVE SMOOTH",
"827 396 LINE SMOOTH",
"802 400 OFFCURVE",
"794 396 OFFCURVE",
"787 386 CURVE SMOOTH",
"738 296 OFFCURVE",
"699 228 OFFCURVE",
"590 228 CURVE SMOOTH",
"476 228 OFFCURVE",
"407 308 OFFCURVE",
"407 530 CURVE SMOOTH",
"407 744 OFFCURVE",
"470 828 OFFCURVE",
"568 828 CURVE SMOOTH",
"663 828 OFFCURVE",
"682 752 OFFCURVE",
"690 702 CURVE SMOOTH",
"694 680 OFFCURVE",
"701 672 OFFCURVE",
"724 674 CURVE SMOOTH",
"997 688 LINE SMOOTH",
"1032 690 OFFCURVE",
"1044 706 OFFCURVE",
"1033 740 CURVE SMOOTH",
"1002 894 OFFCURVE",
"844 1080 OFFCURVE",
"558 1080 CURVE SMOOTH"
);
}
);
};
layerId = "258ED206-D907-4350-8EBA-CBDDA1C16BF7";
paths = (
{
closed = 1;
nodes = (
"282 1054 OFFCURVE",
"60 832 OFFCURVE",
"60 512 CURVE SMOOTH",
"60 196 OFFCURVE",
"285 -20 OFFCURVE",
"581 -20 CURVE SMOOTH",
"864 -20 OFFCURVE",
"1030 180 OFFCURVE",
"1030 400 CURVE",
"724 400 LINE",
"718 358 OFFCURVE",
"690 248 OFFCURVE",
"592 248 CURVE SMOOTH",
"491 248 OFFCURVE",
"418 346 OFFCURVE",
"418 516 CURVE SMOOTH",
"418 682 OFFCURVE",
"484 766 OFFCURVE",
"584 766 CURVE SMOOTH",
"684 766 OFFCURVE",
"712 670 OFFCURVE",
"720 612 CURVE",
"1035 612 LINE",
"1030 844 OFFCURVE",
"873 1054 OFFCURVE",
"581 1054 CURVE SMOOTH"
);
}
);
width = 1101;
},
{
anchors = (
{
name = bottom;
position = "{564, 0}";
},
{
name = top;
position = "{565, 1034}";
}
);
layerId = "91AB5BCA-6A50-42DA-B2F7-8181BF189245";
rightMetricsKey = "=e";
paths = (
{
closed = 1;
nodes = (
"255 1054 OFFCURVE",
"110 837 OFFCURVE",
"110 514 CURVE SMOOTH",
"110 150 OFFCURVE",
"291 -20 OFFCURVE",
"562 -20 CURVE SMOOTH",
"748 -20 OFFCURVE",
"917 75 OFFCURVE",
"958 276 CURVE",
"873 276 LINE",
"849 140 OFFCURVE",
"726 54 OFFCURVE",
"562 54 CURVE SMOOTH",
"313 54 OFFCURVE",
"193 239 OFFCURVE",
"193 514 CURVE SMOOTH",
"193 830 OFFCURVE",
"345 978 OFFCURVE",
"562 978 CURVE SMOOTH",
"726 978 OFFCURVE",
"849 892 OFFCURVE",
"873 756 CURVE",
"958 756 LINE",
"917 957 OFFCURVE",
"748 1054 OFFCURVE",
"562 1054 CURVE SMOOTH"
);
}
);
width = 1079;
}
);
leftKerningGroup = o;
leftMetricsKey = o;
rightKerningGroup = o;
rightMetricsKey = e;
unicode = 0063;
},
{
color = 6;
glyphname = d;
lastChange = "2020-07-15 15:32:33 +0000";
layers = (
{
anchors = (
{
name = bottom;
position = "{544, 0}";
},
{
name = caron;
position = "{1138, 1486}";
},
{
name = center;
position = "{607, 516}";
}
);
background = {
anchors = (
{
name = bottom;
position = "{584, 0}";
},
{
name = center;
position = "{584, 530}";
},
{
name = topright;
position = "{1157, 1060}";
}
);
paths = (
{
closed = 1;
nodes = (
"1067 0 LINE SMOOTH",
"1109 0 OFFCURVE",
"1120 16 OFFCURVE",
"1120 50 CURVE SMOOTH",
"1120 1438 LINE SMOOTH",
"1120 1468 OFFCURVE",
"1104 1484 OFFCURVE",
"1082 1484 CURVE SMOOTH",
"758 1484 LINE SMOOTH",
"735 1484 OFFCURVE",
"722 1468 OFFCURVE",
"722 1442 CURVE SMOOTH",
"722 992 LINE SMOOTH",
"722 960 OFFCURVE",
"704 960 OFFCURVE",
"684 976 CURVE SMOOTH",
"602 1056 OFFCURVE",
"527 1080 OFFCURVE",
"436 1080 CURVE SMOOTH",
"216 1080 OFFCURVE",
"16 862 OFFCURVE",
"16 526 CURVE SMOOTH",
"16 164 OFFCURVE",
"180 -20 OFFCURVE",
"416 -20 CURVE SMOOTH",
"540 -20 OFFCURVE",
"618 20 OFFCURVE",
"697 92 CURVE SMOOTH",
"710 104 OFFCURVE",
"726 102 OFFCURVE",
"726 84 CURVE SMOOTH",
"726 46 LINE SMOOTH",
"726 12 OFFCURVE",
"750 0 OFFCURVE",
"777 0 CURVE SMOOTH"
);
},
{
closed = 1;
nodes = (
"720 352 LINE SMOOTH",
"720 274 OFFCURVE",
"658 220 OFFCURVE",
"580 220 CURVE SMOOTH",
"478 220 OFFCURVE",
"420 298 OFFCURVE",
"420 528 CURVE SMOOTH",
"420 760 OFFCURVE",
"487 832 OFFCURVE",
"580 832 CURVE SMOOTH",
"642 832 OFFCURVE",
"678 806 OFFCURVE",
"720 756 CURVE"
);
}
);
};
layerId = "258ED206-D907-4350-8EBA-CBDDA1C16BF7";
paths = (
{
closed = 1;
nodes = (
"672 -20 OFFCURVE",
"770 68 OFFCURVE",
"817 212 CURVE",
"863 0 LINE",
"1138 0 LINE",
"1138 1486 LINE",
"748 1486 LINE",
"748 916 LINE",
"684 1022 OFFCURVE",
"565 1054 OFFCURVE",
"462 1054 CURVE SMOOTH",
"208 1054 OFFCURVE",
"60 850 OFFCURVE",
"60 524 CURVE SMOOTH",
"60 194 OFFCURVE",
"218 -20 OFFCURVE",
"504 -20 CURVE SMOOTH"
);
},
{
closed = 1;
nodes = (
"508 252 OFFCURVE",
"436 320 OFFCURVE",
"436 524 CURVE SMOOTH",
"436 716 OFFCURVE",
"508 780 OFFCURVE",
"596 780 CURVE SMOOTH",
"687 780 OFFCURVE",
"748 708 OFFCURVE",
"748 524 CURVE SMOOTH",
"748 320 OFFCURVE",
"687 252 OFFCURVE",
"596 252 CURVE"
);
}
);
width = 1238;
},
{
anchors = (
{
name = bottom;
position = "{545, 0}";
},
{
name = caron;
position = "{990, 1486}";
},
{
name = center;
position = "{598, 516}";
}
);
layerId = "91AB5BCA-6A50-42DA-B2F7-8181BF189245";
paths = (
{
closed = 1;
nodes = (
"824 -20 OFFCURVE",
"897 164 OFFCURVE",
"912 212 CURVE",
"918 0 LINE",
"990 0 LINE",
"990 1486 LINE",
"910 1486 LINE",
"910 846 LINE",
"892 893 OFFCURVE",
"790 1054 OFFCURVE",
"543 1054 CURVE SMOOTH",
"249 1054 OFFCURVE",
"110 840 OFFCURVE",
"110 520 CURVE SMOOTH",
"110 153 OFFCURVE",
"283 -20 OFFCURVE",
"543 -20 CURVE SMOOTH"
);
},
{
closed = 1;
nodes = (
"308 54 OFFCURVE",
"196 246 OFFCURVE",
"196 533 CURVE SMOOTH",
"196 836 OFFCURVE",
"338 978 OFFCURVE",
"551 978 CURVE SMOOTH",
"816 978 OFFCURVE",
"906 805 OFFCURVE",
"910 533 CURVE SMOOTH",
"910 200 OFFCURVE",
"816 54 OFFCURVE",
"545 54 CURVE SMOOTH"
);
}
);
width = 1170;
}
);
leftKerningGroup = o;
leftMetricsKey = o;
rightKerningGroup = u;
rightMetricsKey = "=|n";
unicode = 0064;
},
{
color = 6;
glyphname = eth;
lastChange = "2020-07-15 15:32:33 +0000";
layers = (
{
background = {
paths = (
{
closed = 1;
nodes = (
"727 1217 OFFCURVE",
"813 908 OFFCURVE",
"813 589 CURVE SMOOTH",
"813 283 OFFCURVE",
"733 17 OFFCURVE",
"587 -287 CURVE",
"863 -287 LINE",
"1033 -5 OFFCURVE",
"1149 247 OFFCURVE",
"1149 591 CURVE SMOOTH",
"1149 925 OFFCURVE",
"1037 1231 OFFCURVE",
"865 1481 CURVE",
"587 1481 LINE"
);
}
);
};
layerId = "258ED206-D907-4350-8EBA-CBDDA1C16BF7";
paths = (
{
closed = 1;
nodes = (
"904 -20 OFFCURVE",
"1108 185 OFFCURVE",
"1108 563 CURVE SMOOTH",
"1108 1006 OFFCURVE",
"803 1344 OFFCURVE",
"594 1481 CURVE",
"301 1481 LINE",
"436 1345 OFFCURVE",
"666 1104 OFFCURVE",
"666 847 CURVE",
"890 683 LINE",
"875 911 OFFCURVE",
"740 1014 OFFCURVE",
"546 1014 CURVE SMOOTH",
"314 1014 OFFCURVE",
"60 850 OFFCURVE",
"60 492 CURVE SMOOTH",
"60 200 OFFCURVE",
"283 -20 OFFCURVE",
"575 -20 CURVE SMOOTH"
);
},
{
closed = 1;
nodes = (
"482 262 OFFCURVE",
"438 372 OFFCURVE",
"438 509 CURVE SMOOTH",
"438 646 OFFCURVE",
"482 747 OFFCURVE",
"586 747 CURVE SMOOTH",
"690 747 OFFCURVE",
"732 646 OFFCURVE",
"732 509 CURVE SMOOTH",
"732 372 OFFCURVE",
"690 262 OFFCURVE",
"586 262 CURVE SMOOTH"
);
},
{
closed = 1;
nodes = (
"1050 1291 LINE",
"1002 1446 LINE",
"250 1227 LINE",
"297 1072 LINE"
);
}
);
width = 1168;
},
{
background = {
paths = (
{
closed = 1;
nodes = (
"860 -20 OFFCURVE",
"1001 194 OFFCURVE",
"1001 514 CURVE SMOOTH",
"1001 881 OFFCURVE",
"824 1054 OFFCURVE",
"559 1054 CURVE SMOOTH",
"254 1054 OFFCURVE",
"111 838 OFFCURVE",
"111 514 CURVE SMOOTH",
"111 151 OFFCURVE",
"290 -20 OFFCURVE",
"559 -20 CURVE SMOOTH"
);
},
{
closed = 1;
nodes = (
"310 54 OFFCURVE",
"193 238 OFFCURVE",
"193 514 CURVE SMOOTH",
"193 830 OFFCURVE",
"339 978 OFFCURVE",
"559 978 CURVE SMOOTH",
"804 978 OFFCURVE",
"920 792 OFFCURVE",
"920 514 CURVE SMOOTH",
"920 201 OFFCURVE",
"776 54 OFFCURVE",
"559 54 CURVE SMOOTH"
);
}
);
};
layerId = "91AB5BCA-6A50-42DA-B2F7-8181BF189245";
paths = (
{
closed = 1;
nodes = (
"872 -20 OFFCURVE",
"1002 217 OFFCURVE",
"1002 514 CURVE SMOOTH",
"1002 985 OFFCURVE",
"770 1291 OFFCURVE",
"524 1480 CURVE",
"417 1480 LINE",
"560 1376 OFFCURVE",
"782 1172 OFFCURVE",
"865 877 CURVE",
"965 762 LINE",
"920 923 OFFCURVE",
"790 1054 OFFCURVE",
"563 1054 CURVE SMOOTH",
"257 1054 OFFCURVE",
"110 830 OFFCURVE",
"110 514 CURVE SMOOTH",
"110 214 OFFCURVE",
"238 -20 OFFCURVE",
"559 -20 CURVE SMOOTH"
);
},
{
closed = 1;
nodes = (
"287 54 OFFCURVE",
"192 268 OFFCURVE",
"192 514 CURVE SMOOTH",
"192 792 OFFCURVE",
"314 978 OFFCURVE",
"563 978 CURVE SMOOTH",
"789 978 OFFCURVE",
"920 818 OFFCURVE",
"920 514 CURVE SMOOTH",
"920 253 OFFCURVE",
"813 54 OFFCURVE",
"559 54 CURVE SMOOTH"
);
},
{
closed = 1;
nodes = (
"944 1348 LINE",
"926 1414 LINE",
"367 1240 LINE",
"388 1175 LINE"
);
}
);
width = 1112;
},
{
associatedMasterId = "258ED206-D907-4350-8EBA-CBDDA1C16BF7";
layerId = "A786CAF7-1AB1-4C58-A8A9-902629D12104";
name = "Jul 14 20, 15:59";
paths = (
{
closed = 1;
nodes = (
"928 -20 OFFCURVE",
"1148 208 OFFCURVE",
"1148 560 CURVE SMOOTH",
"1148 830 OFFCURVE",
"1094 1064 OFFCURVE",
"993 1236 CURVE",
"1053 1254 LINE",
"1053 1487 LINE",
"834 1421 LINE",
"804 1445 OFFCURVE",
"773 1464 OFFCURVE",
"740 1481 CURVE",
"277 1481 LINE",
"315 1451 OFFCURVE",
"408 1406 OFFCURVE",
"515 1326 CURVE",
"277 1255 LINE",
"277 1021 LINE",
"707 1150 LINE",
"776 1071 OFFCURVE",
"841 974 OFFCURVE",
"892 853 CURVE",
"813 964 OFFCURVE",
"687 1016 OFFCURVE",
"559 1016 CURVE SMOOTH",
"314 1016 OFFCURVE",
"60 851 OFFCURVE",
"60 492 CURVE SMOOTH",
"60 200 OFFCURVE",
"283 -20 OFFCURVE",
"602 -20 CURVE SMOOTH"
);
},
{
closed = 1;
nodes = (
"460 262 OFFCURVE",
"438 414 OFFCURVE",
"438 524 CURVE SMOOTH",
"438 636 OFFCURVE",
"460 776 OFFCURVE",
"586 776 CURVE SMOOTH",
"710 776 OFFCURVE",
"732 636 OFFCURVE",
"732 524 CURVE SMOOTH",
"732 414 OFFCURVE",
"710 262 OFFCURVE",
"586 262 CURVE SMOOTH"
);
}
);
width = 1208;
}
);
leftKerningGroup = o;
leftMetricsKey = o;
rightKerningGroup = o;
rightMetricsKey = o;
unicode = 00F0;
},
{
color = 3;
glyphname = dcroat;
lastChange = "2020-07-15 11:12:11 +0000";
layers = (
{
background = {
components = (
{
name = d;
transform = "{1, 0, 0, 1, -38, 0}";
}
);
paths = (
{
closed = 1;
nodes = (
"1150 1360 OFFCURVE",
"1138 1374 OFFCURVE",
"1118 1374 CURVE SMOOTH",
"440 1374 LINE SMOOTH",
"420 1374 OFFCURVE",
"408 1360 OFFCURVE",
"408 1334 CURVE SMOOTH",
"408 1204 LINE SMOOTH",
"408 1174 OFFCURVE",
"418 1160 OFFCURVE",
"452 1160 CURVE SMOOTH",
"1092 1160 LINE SMOOTH",
"1132 1160 OFFCURVE",
"1150 1174 OFFCURVE",
"1150 1208 CURVE SMOOTH",
"1150 1338 LINE SMOOTH"
);
}
);
};
components = (
{
name = d;
}
);
layerId = "258ED206-D907-4350-8EBA-CBDDA1C16BF7";
paths = (
{
closed = 1;
nodes = (
"534 1340 LINE",
"534 1132 LINE",
"1258 1132 LINE",
"1258 1340 LINE"
);
}
);
width = 1318;
},
{
components = (
{
name = d;
}
);
layerId = "91AB5BCA-6A50-42DA-B2F7-8181BF189245";
paths = (
{
closed = 1;
nodes = (
"568 1290 LINE",
"568 1222 LINE",
"1130 1222 LINE",
"1130 1290 LINE"
);
}
);
width = 1190;
}
);
leftKerningGroup = o;
leftMetricsKey = d;
unicode = 0111;
},
{
color = 6;
glyphname = e;
lastChange = "2020-07-15 15:32:33 +0000";
layers = (
{
anchors = (
{
name = bottom;
position = "{600, 0}";
},
{
name = ogonek;
position = "{850, 50}";
},
{
name = top;
position = "{594, 1034}";
}
);
background = {
anchors = (
{
name = bottom;
position = "{575, 0}";
},
{
name = ogonek;
position = "{833, 52}";
},
{
name = top;
position = "{570, 1060}";
}
);
paths = (
{
closed = 1;
nodes = (
"422 448 OFFCURVE",
"432 458 OFFCURVE",
"451 458 CURVE SMOOTH",
"1074 458 LINE SMOOTH",
"1108 460 OFFCURVE",
"1110 474 OFFCURVE",
"1110 508 CURVE SMOOTH",
"1110 870 OFFCURVE",
"879 1080 OFFCURVE",
"566 1080 CURVE SMOOTH",
"270 1080 OFFCURVE",
"10 852 OFFCURVE",
"10 512 CURVE SMOOTH",
"10 198 OFFCURVE",
"253 -20 OFFCURVE",
"574 -20 CURVE SMOOTH",
"798 -20 OFFCURVE",
"934 34 OFFCURVE",
"1077 236 CURVE SMOOTH",
"1096 258 OFFCURVE",
"1090 276 OFFCURVE",
"1070 284 CURVE SMOOTH",
"888 358 LINE SMOOTH",
"862 368 OFFCURVE",
"856 366 OFFCURVE",
"846 356 CURVE SMOOTH",
"758 270 OFFCURVE",
"696 244 OFFCURVE",
"627 244 CURVE SMOOTH",
"512 244 OFFCURVE",
"422 302 OFFCURVE",
"422 424 CURVE SMOOTH"
);
},
{
closed = 1;
nodes = (
"426 790 OFFCURVE",
"501 846 OFFCURVE",
"583 846 CURVE SMOOTH",
"684 846 OFFCURVE",
"722 744 OFFCURVE",
"722 692 CURVE SMOOTH",
"722 668 OFFCURVE",
"714 664 OFFCURVE",
"688 664 CURVE SMOOTH",
"428 666 LINE"
);
}
);
};
layerId = "258ED206-D907-4350-8EBA-CBDDA1C16BF7";
paths = (
{
closed = 1;
nodes = (
"1100 428 LINE",
"1100 518 LINE",
"1100 824 OFFCURVE",
"930 1054 OFFCURVE",
"592 1054 CURVE SMOOTH",
"260 1054 OFFCURVE",
"66 800 OFFCURVE",
"66 504 CURVE SMOOTH",
"66 190 OFFCURVE",
"285 -20 OFFCURVE",
"608 -20 CURVE SMOOTH",
"837 -20 OFFCURVE",
"1072 122 OFFCURVE",
"1104 352 CURVE",
"760 352 LINE",
"728 272 OFFCURVE",
"669 252 OFFCURVE",
"598 252 CURVE SMOOTH",
"514 252 OFFCURVE",
"446 304 OFFCURVE",
"448 428 CURVE"
);
},
{
closed = 1;
nodes = (
"446 724 OFFCURVE",
"512 792 OFFCURVE",
"592 792 CURVE SMOOTH",
"690 792 OFFCURVE",
"741 724 OFFCURVE",
"741 646 CURVE",
"446 646 LINE"
);
}
);
width = 1170;
},
{
anchors = (
{
name = bottom;
position = "{567, 0}";
},
{
name = ogonek;
position = "{755, 36}";
},
{
name = top;
position = "{569, 1034}";
}
);
layerId = "91AB5BCA-6A50-42DA-B2F7-8181BF189245";
paths = (
{
closed = 1;
nodes = (
"993 498 LINE",
"993 554 LINE",
"993 872 OFFCURVE",
"836 1054 OFFCURVE",
"569 1054 CURVE SMOOTH",
"284 1054 OFFCURVE",
"121 850 OFFCURVE",
"121 508 CURVE SMOOTH",
"121 170 OFFCURVE",
"309 -20 OFFCURVE",
"581 -20 CURVE SMOOTH",
"767 -20 OFFCURVE",
"940 75 OFFCURVE",
"981 276 CURVE",
"896 276 LINE",
"872 140 OFFCURVE",
"745 56 OFFCURVE",
"581 56 CURVE SMOOTH",
"319 56 OFFCURVE",
"206 264 OFFCURVE",
"206 498 CURVE"
);
},
{
closed = 1;
nodes = (
"206 768 OFFCURVE",
"313 978 OFFCURVE",
"567 978 CURVE SMOOTH",
"801 978 OFFCURVE",
"910 804 OFFCURVE",
"910 574 CURVE",
"208 574 LINE"
);
}
);
width = 1114;
}
);
leftKerningGroup = o;
leftMetricsKey = "=o*1.1";
rightKerningGroup = o;
rightMetricsKey = "=o*1.1";
unicode = 0065;
},
{
color = 6;
glyphname = schwa;
lastChange = "2020-07-15 15:32:33 +0000";
layers = (
{
anchors = (
{
name = bottom;
position = "{576, 0}";
},
{
name = ogonek;
position = "{320, 984}";
},
{
name = top;
position = "{570, 1034}";
}
);
background = {
components = (
{
name = e;
transform = "{-1, 0, 0, -1, 600, 530}";
}
);
};
layerId = "258ED206-D907-4350-8EBA-CBDDA1C16BF7";
paths = (
{
closed = 1;
nodes = (
"70 606 LINE",
"70 516 LINE",
"70 210 OFFCURVE",
"240 -20 OFFCURVE",
"578 -20 CURVE SMOOTH",
"910 -20 OFFCURVE",
"1104 234 OFFCURVE",
"1104 530 CURVE SMOOTH",
"1104 844 OFFCURVE",
"885 1054 OFFCURVE",
"562 1054 CURVE SMOOTH",
"333 1054 OFFCURVE",
"98 912 OFFCURVE",
"66 682 CURVE",
"410 682 LINE",
"442 762 OFFCURVE",
"501 782 OFFCURVE",
"572 782 CURVE SMOOTH",
"656 782 OFFCURVE",
"724 730 OFFCURVE",
"722 606 CURVE"
);
},
{
closed = 1;
nodes = (
"724 310 OFFCURVE",
"658 242 OFFCURVE",
"578 242 CURVE SMOOTH",
"480 242 OFFCURVE",
"429 310 OFFCURVE",
"429 388 CURVE",
"724 388 LINE"
);
}
);
width = 1170;
},
{
anchors = (
{
name = bottom;
position = "{545, 0}";
},
{
name = ogonek;
position = "{359, 998}";
},
{
name = top;
position = "{547, 1034}";
}
);
layerId = "91AB5BCA-6A50-42DA-B2F7-8181BF189245";
paths = (
{
closed = 1;
nodes = (
"121 536 LINE",
"121 480 LINE",
"121 162 OFFCURVE",
"278 -20 OFFCURVE",
"545 -20 CURVE SMOOTH",
"830 -20 OFFCURVE",
"993 184 OFFCURVE",
"993 526 CURVE SMOOTH",
"993 864 OFFCURVE",
"805 1054 OFFCURVE",
"533 1054 CURVE SMOOTH",
"347 1054 OFFCURVE",
"174 959 OFFCURVE",
"133 758 CURVE",
"218 758 LINE",
"242 894 OFFCURVE",
"369 978 OFFCURVE",
"533 978 CURVE SMOOTH",
"795 978 OFFCURVE",
"908 770 OFFCURVE",
"908 536 CURVE"
);
},
{
closed = 1;
nodes = (
"908 266 OFFCURVE",
"801 56 OFFCURVE",
"547 56 CURVE SMOOTH",
"313 56 OFFCURVE",
"204 230 OFFCURVE",
"204 460 CURVE",
"906 460 LINE"
);
}
);
width = 1114;
}
);
leftKerningGroup = o;
leftMetricsKey = "=|e";
rightKerningGroup = o;
rightMetricsKey = "=|e";
unicode = 0259;
},
{
color = 6;
glyphname = f;
lastChange = "2020-07-15 15:32:33 +0000";
layers = (
{
background = {
paths = (
{
closed = 1;
nodes = (
"580 1060 LINE SMOOTH",
"564 1060 OFFCURVE",
"554 1066 OFFCURVE",
"554 1086 CURVE SMOOTH",
"554 1122 LINE SMOOTH",
"554 1178 OFFCURVE",
"598 1224 OFFCURVE",
"644 1224 CURVE SMOOTH",
"730 1224 LINE SMOOTH",
"754 1224 OFFCURVE",
"766 1242 OFFCURVE",
"766 1264 CURVE",
"764 1432 LINE",
"764 1464 OFFCURVE",
"744 1484 OFFCURVE",
"706 1484 CURVE SMOOTH",
"480 1484 LINE SMOOTH",
"286 1484 OFFCURVE",
"164 1376 OFFCURVE",
"164 1202 CURVE SMOOTH",
"164 1096 LINE SMOOTH",
"164 1070 OFFCURVE",
"158 1060 OFFCURVE",
"136 1060 CURVE SMOOTH",
"40 1060 LINE SMOOTH",
"6 1060 OFFCURVE",
"-8 1040 OFFCURVE",
"-8 1016 CURVE SMOOTH",
"-8 828 LINE SMOOTH",
"-8 800 OFFCURVE",
"8 790 OFFCURVE",
"36 790 CURVE SMOOTH",
"148 790 LINE SMOOTH",
"160 790 OFFCURVE",
"164 784 OFFCURVE",
"164 770 CURVE SMOOTH",
"164 40 LINE SMOOTH",
"164 14 OFFCURVE",
"178 0 OFFCURVE",
"200 0 CURVE SMOOTH",
"526 0 LINE SMOOTH",
"550 0 OFFCURVE",
"564 14 OFFCURVE",
"564 44 CURVE SMOOTH",
"564 766 LINE SMOOTH",
"564 782 OFFCURVE",
"574 790 OFFCURVE",
"588 790 CURVE SMOOTH",
"712 790 LINE SMOOTH",
"738 790 OFFCURVE",
"756 800 OFFCURVE",
"756 828 CURVE SMOOTH",
"756 1016 LINE SMOOTH",
"756 1040 OFFCURVE",
"740 1060 OFFCURVE",
"706 1060 CURVE SMOOTH"
);
}
);
};
layerId = "258ED206-D907-4350-8EBA-CBDDA1C16BF7";
leftMetricsKey = "=t";
rightMetricsKey = "=x";
paths = (
{
closed = 1;
nodes = (
"578 1034 LINE",
"578 1094 LINE SMOOTH",
"578 1170 OFFCURVE",
"600 1194 OFFCURVE",
"664 1194 CURVE SMOOTH",
"784 1194 LINE",
"782 1446 LINE",
"506 1446 LINE SMOOTH",
"316 1446 OFFCURVE",
"196 1342 OFFCURVE",
"196 1172 CURVE SMOOTH",
"196 1034 LINE",
"30 1034 LINE",
"30 770 LINE",
"196 770 LINE",
"196 0 LINE",
"586 0 LINE",
"586 770 LINE",
"774 770 LINE",
"774 1034 LINE"
);
}
);
width = 794;
},
{
layerId = "91AB5BCA-6A50-42DA-B2F7-8181BF189245";
paths = (
{
closed = 1;
nodes = (
"418 1034 LINE",
"418 1222 LINE SMOOTH",
"418 1322 OFFCURVE",
"444 1378 OFFCURVE",
"540 1378 CURVE SMOOTH",
"712 1378 LINE",
"712 1446 LINE",
"560 1446 LINE SMOOTH",
"404 1446 OFFCURVE",
"340 1366 OFFCURVE",
"340 1206 CURVE SMOOTH",
"340 1034 LINE",
"94 1034 LINE",
"94 966 LINE",
"340 966 LINE",
"340 0 LINE",
"418 0 LINE",
"418 966 LINE",
"702 966 LINE",
"702 1034 LINE"
);
}
);
width = 791;
}
);
leftKerningGroup = f;
leftMetricsKey = "=t*.75";
rightKerningGroup = f;
rightMetricsKey = "=t*.75";
unicode = 0066;
},
{
color = 6;
glyphname = g;
lastChange = "2020-07-15 15:32:33 +0000";
layers = (
{
anchors = (
{
name = top;
position = "{616, 1034}";
}
);
background = {
anchors = (
{
name = top;
position = "{594, 1060}";
}
);
paths = (
{
closed = 1;
nodes = (
"1154 1124 OFFCURVE",
"1042 1068 OFFCURVE",
"988 992 CURVE SMOOTH",
"974 972 OFFCURVE",
"946 970 OFFCURVE",
"926 986 CURVE SMOOTH",
"860 1038 OFFCURVE",
"744 1076 OFFCURVE",
"592 1076 CURVE SMOOTH",
"234 1076 OFFCURVE",
"52 938 OFFCURVE",
"52 746 CURVE SMOOTH",
"52 624 OFFCURVE",
"128 530 OFFCURVE",
"260 474 CURVE SMOOTH",
"280 462 OFFCURVE",
"266 456 OFFCURVE",
"254 450 CURVE SMOOTH",
"146 404 OFFCURVE",
"36 338 OFFCURVE",
"36 244 CURVE SMOOTH",
"36 162 OFFCURVE",
"98 112 OFFCURVE",
"168 78 CURVE SMOOTH",
"184 70 OFFCURVE",
"188 62 OFFCURVE",
"168 56 CURVE SMOOTH",
"62 26 OFFCURVE",
"-26 -16 OFFCURVE",
"-26 -106 CURVE SMOOTH",
"-26 -274 OFFCURVE",
"178 -350 OFFCURVE",
"596 -350 CURVE SMOOTH",
"998 -350 OFFCURVE",
"1202 -198 OFFCURVE",
"1202 6 CURVE SMOOTH",
"1202 170 OFFCURVE",
"1070 286 OFFCURVE",
"774 304 CURVE SMOOTH",
"470 322 LINE SMOOTH",
"412 326 OFFCURVE",
"382 334 OFFCURVE",
"382 364 CURVE SMOOTH",
"382 396 OFFCURVE",
"436 418 OFFCURVE",
"568 418 CURVE SMOOTH",
"904 418 OFFCURVE",
"1082 568 OFFCURVE",
"1082 748 CURVE SMOOTH",
"1082 768 OFFCURVE",
"1078 790 OFFCURVE",
"1072 810 CURVE SMOOTH",
"1064 838 OFFCURVE",
"1074 856 OFFCURVE",
"1112 856 CURVE SMOOTH",
"1136 856 OFFCURVE",
"1174 850 OFFCURVE",
"1200 842 CURVE SMOOTH",
"1230 832 OFFCURVE",
"1252 848 OFFCURVE",
"1252 894 CURVE SMOOTH",
"1252 1074 LINE SMOOTH",
"1252 1110 OFFCURVE",
"1234 1124 OFFCURVE",
"1212 1124 CURVE SMOOTH"
);
},
{
closed = 1;
nodes = (
"464 600 OFFCURVE",
"408 668 OFFCURVE",
"408 740 CURVE SMOOTH",
"408 822 OFFCURVE",
"464 890 OFFCURVE",
"564 890 CURVE SMOOTH",
"676 890 OFFCURVE",
"720 822 OFFCURVE",
"720 740 CURVE SMOOTH",
"720 670 OFFCURVE",
"676 600 OFFCURVE",
"564 600 CURVE SMOOTH"
);
},
{
closed = 1;
nodes = (
"810 0 OFFCURVE",
"855 -32 OFFCURVE",
"855 -70 CURVE SMOOTH",
"855 -128 OFFCURVE",
"772 -172 OFFCURVE",
"616 -172 CURVE SMOOTH",
"366 -172 OFFCURVE",
"296 -128 OFFCURVE",
"296 -54 CURVE SMOOTH",
"296 -12 OFFCURVE",
"348 20 OFFCURVE",
"434 16 CURVE SMOOTH",
"724 4 LINE SMOOTH"
);
}
);
};
layerId = "258ED206-D907-4350-8EBA-CBDDA1C16BF7";
paths = (
{
closed = 1;
nodes = (
"1010 -342 OFFCURVE",
"1208 -194 OFFCURVE",
"1208 6 CURVE SMOOTH",
"1208 166 OFFCURVE",
"1082 296 OFFCURVE",
"796 316 CURVE SMOOTH",
"708 322 OFFCURVE",
"626 326 OFFCURVE",
"590 328 CURVE SMOOTH",
"488 334 OFFCURVE",
"424 334 OFFCURVE",
"424 362 CURVE",
"424 372 OFFCURVE",
"432 376 OFFCURVE",
"452 380 CURVE",
"486 376 OFFCURVE",
"558 374 OFFCURVE",
"590 374 CURVE SMOOTH",
"918 374 OFFCURVE",
"1092 554 OFFCURVE",
"1092 730 CURVE SMOOTH",
"1092 742 OFFCURVE",
"1088 780 OFFCURVE",
"1080 810 CURVE",
"1256 834 LINE",
"1258 1110 LINE",
"1144 1062 OFFCURVE",
"996 1006 OFFCURVE",
"918 976 CURVE",
"842 1016 OFFCURVE",
"762 1050 OFFCURVE",
"614 1050 CURVE SMOOTH",
"332 1050 OFFCURVE",
"88 936 OFFCURVE",
"88 728 CURVE SMOOTH",
"88 618 OFFCURVE",
"160 486 OFFCURVE",
"310 420 CURVE",
"148 398 OFFCURVE",
"72 320 OFFCURVE",
"72 238 CURVE SMOOTH",
"72 124 OFFCURVE",
"188 80 OFFCURVE",
"218 64 CURVE",
"202 60 OFFCURVE",
"12 30 OFFCURVE",
"12 -104 CURVE SMOOTH",
"12 -236 OFFCURVE",
"210 -342 OFFCURVE",
"618 -342 CURVE SMOOTH"
);
},
{
closed = 1;
nodes = (
"480 -138 OFFCURVE",
"390 -124 OFFCURVE",
"390 -58 CURVE SMOOTH",
"390 -24 OFFCURVE",
"416 22 OFFCURVE",
"524 16 CURVE SMOOTH",
"712 4 LINE SMOOTH",
"792 -2 OFFCURVE",
"840 -30 OFFCURVE",
"840 -74 CURVE SMOOTH",
"840 -112 OFFCURVE",
"814 -138 OFFCURVE",
"678 -138 CURVE SMOOTH"
);
},
{
closed = 1;
nodes = (
"528 578 OFFCURVE",
"478 636 OFFCURVE",
"478 714 CURVE SMOOTH",
"478 792 OFFCURVE",
"528 860 OFFCURVE",
"602 860 CURVE SMOOTH",
"676 860 OFFCURVE",
"726 792 OFFCURVE",
"726 714 CURVE SMOOTH",
"726 636 OFFCURVE",
"676 578 OFFCURVE",
"602 578 CURVE SMOOTH"
);
}
);
width = 1268;
},
{
anchors = (
{
name = top;
position = "{592, 1034}";
}
);
layerId = "91AB5BCA-6A50-42DA-B2F7-8181BF189245";
rightMetricsKey = "=x*1.3";
paths = (
{
closed = 1;
nodes = (
"893 -342 OFFCURVE",
"1042 -220 OFFCURVE",
"1042 -38 CURVE SMOOTH",
"1042 130 OFFCURVE",
"922 216 OFFCURVE",
"742 226 CURVE SMOOTH",
"644 232 OFFCURVE",
"568 236 OFFCURVE",
"508 240 CURVE SMOOTH",
"342 252 OFFCURVE",
"294 268 OFFCURVE",
"294 312 CURVE SMOOTH",
"294 356 OFFCURVE",
"356 404 OFFCURVE",
"562 408 CURVE SMOOTH",
"570 408 OFFCURVE",
"576 408 OFFCURVE",
"584 408 CURVE SMOOTH",
"852 408 OFFCURVE",
"978 533 OFFCURVE",
"978 720 CURVE SMOOTH",
"978 780 OFFCURVE",
"960 842 OFFCURVE",
"932 892 CURVE",
"1116 932 LINE",
"1116 1048 LINE",
"1090 1038 OFFCURVE",
"918 964 OFFCURVE",
"892 952 CURVE",
"812 1018 OFFCURVE",
"726 1050 OFFCURVE",
"598 1050 CURVE SMOOTH",
"319 1050 OFFCURVE",
"188 918 OFFCURVE",
"188 720 CURVE SMOOTH",
"188 597 OFFCURVE",
"259 502 OFFCURVE",
"366 444 CURVE",
"266 414 OFFCURVE",
"212 366 OFFCURVE",
"212 310 CURVE SMOOTH",
"212 248 OFFCURVE",
"260 226 OFFCURVE",
"298 202 CURVE",
"268 176 OFFCURVE",
"108 104 OFFCURVE",
"108 -52 CURVE SMOOTH",
"108 -249 OFFCURVE",
"295 -342 OFFCURVE",
"576 -342 CURVE SMOOTH"
);
},
{
closed = 1;
nodes = (
"319 -268 OFFCURVE",
"190 -178 OFFCURVE",
"190 -44 CURVE SMOOTH",
"190 84 OFFCURVE",
"334 172 OFFCURVE",
"396 168 CURVE SMOOTH",
"740 146 LINE SMOOTH",
"890 137 OFFCURVE",
"960 64 OFFCURVE",
"960 -38 CURVE SMOOTH",
"960 -194 OFFCURVE",
"814 -268 OFFCURVE",
"594 -268 CURVE SMOOTH"
);
},
{
closed = 1;
nodes = (
"380 482 OFFCURVE",
"266 566 OFFCURVE",
"266 724 CURVE SMOOTH",
"266 895 OFFCURVE",
"394 976 OFFCURVE",
"586 976 CURVE SMOOTH",
"774 976 OFFCURVE",
"900 896 OFFCURVE",
"900 724 CURVE SMOOTH",
"900 559 OFFCURVE",
"774 482 OFFCURVE",
"586 482 CURVE SMOOTH"
);
}
);
width = 1233;
}
);
leftKerningGroup = g;
leftMetricsKey = "=x*1.2";
rightKerningGroup = g;
rightMetricsKey = "=x";
unicode = 0067;
},
{
color = 6;
glyphname = h;
lastChange = "2020-07-15 15:32:33 +0000";
layers = (
{
anchors = (
{
name = bottom;
position = "{613, 0}";
},
{
name = top;
position = "{291, 1446}";
}
);
background = {
anchors = (
{
name = bottom;
position = "{591, 0}";
},
{
name = top;
position = "{869, 1060}";
}
);
paths = (
{
closed = 1;
nodes = (
"398 0 LINE SMOOTH",
"445 0 OFFCURVE",
"463 16 OFFCURVE",
"463 58 CURVE SMOOTH",
"463 698 LINE",
"501 766 OFFCURVE",
"549 798 OFFCURVE",
"611 798 CURVE SMOOTH",
"675 798 OFFCURVE",
"715 762 OFFCURVE",
"715 702 CURVE SMOOTH",
"715 50 LINE SMOOTH",
"715 12 OFFCURVE",
"728 0 OFFCURVE",
"762 0 CURVE SMOOTH",
"1056 0 LINE SMOOTH",
"1098 0 OFFCURVE",
"1115 20 OFFCURVE",
"1115 60 CURVE SMOOTH",
"1115 750 LINE SMOOTH",
"1115 962 OFFCURVE",
"1001 1080 OFFCURVE",
"804 1080 CURVE SMOOTH",
"697 1080 OFFCURVE",
"598 1046 OFFCURVE",
"483 936 CURVE SMOOTH",
"467 922 OFFCURVE",
"457 928 OFFCURVE",
"457 944 CURVE SMOOTH",
"457 1442 LINE SMOOTH",
"457 1468 OFFCURVE",
"445 1484 OFFCURVE",
"421 1484 CURVE SMOOTH",
"102 1484 LINE SMOOTH",
"77 1484 OFFCURVE",
"64 1466 OFFCURVE",
"64 1438 CURVE SMOOTH",
"64 50 LINE SMOOTH",
"64 14 OFFCURVE",
"77 0 OFFCURVE",
"115 0 CURVE SMOOTH"
);
}
);
};
layerId = "258ED206-D907-4350-8EBA-CBDDA1C16BF7";
paths = (
{
closed = 1;
nodes = (
"489 0 LINE",
"489 633 LINE",
"489 701 OFFCURVE",
"554 740 OFFCURVE",
"611 740 CURVE SMOOTH",
"669 740 OFFCURVE",
"733 706 OFFCURVE",
"733 638 CURVE SMOOTH",
"733 0 LINE",
"1123 0 LINE",
"1123 688 LINE SMOOTH",
"1123 914 OFFCURVE",
"955 1034 OFFCURVE",
"762 1034 CURVE SMOOTH",
"600 1034 OFFCURVE",
"537 946 OFFCURVE",
"489 887 CURVE",
"489 1486 LINE",
"100 1486 LINE",
"100 0 LINE"
);
}
);
width = 1213;
},
{
anchors = (
{
name = bottom;
position = "{592, 0}";
},
{
name = top;
position = "{216, 1446}";
}
);
layerId = "91AB5BCA-6A50-42DA-B2F7-8181BF189245";
paths = (
{
closed = 1;
nodes = (
"258 0 LINE",
"258 720 LINE",
"258 896 OFFCURVE",
"416 978 OFFCURVE",
"599 978 CURVE SMOOTH",
"775 978 OFFCURVE",
"884 888 OFFCURVE",
"884 736 CURVE SMOOTH",
"884 0 LINE",
"962 0 LINE",
"962 766 LINE SMOOTH",
"962 936 OFFCURVE",
"807 1054 OFFCURVE",
"601 1054 CURVE SMOOTH",
"433 1054 OFFCURVE",
"306 978 OFFCURVE",
"252 880 CURVE",
"252 1486 LINE",
"180 1486 LINE",
"180 0 LINE"
);
}
);
width = 1122;
}
);
leftKerningGroup = n;
leftMetricsKey = n;
rightKerningGroup = n;
rightMetricsKey = n;
unicode = 0068;
},
{
color = 3;
glyphname = hbar;
lastChange = "2020-07-15 11:12:11 +0000";
layers = (
{
background = {
components = (
{
name = h;
transform = "{1, 0, 0, 1, 1, 0}";
}
);
paths = (
{
closed = 1;
nodes = (
"744 1360 OFFCURVE",
"732 1374 OFFCURVE",
"712 1374 CURVE SMOOTH",
"34 1374 LINE SMOOTH",
"14 1374 OFFCURVE",
"2 1360 OFFCURVE",
"2 1334 CURVE SMOOTH",
"2 1204 LINE SMOOTH",
"2 1174 OFFCURVE",
"12 1160 OFFCURVE",
"46 1160 CURVE SMOOTH",
"686 1160 LINE SMOOTH",
"726 1160 OFFCURVE",
"744 1174 OFFCURVE",
"744 1208 CURVE SMOOTH",
"744 1338 LINE SMOOTH"
);
}
);
};
components = (
{
name = h;
transform = "{1, 0, 0, 1, 78, 0}";
}
);
layerId = "258ED206-D907-4350-8EBA-CBDDA1C16BF7";
paths = (
{
closed = 1;
nodes = (
"40 1340 LINE",
"40 1132 LINE",
"762 1132 LINE",
"762 1340 LINE"
);
}
);
width = 1291;
},
{
components = (
{
name = h;
transform = "{1, 0, 0, 1, -4, 0}";
}
);
layerId = "91AB5BCA-6A50-42DA-B2F7-8181BF189245";
paths = (
{
closed = 1;
nodes = (
"40 1290 LINE",
"40 1222 LINE",
"604 1222 LINE",
"604 1290 LINE"
);
}
);
width = 1118;
}
);
leftKerningGroup = n;
rightKerningGroup = n;
rightMetricsKey = h;
unicode = 0127;
},
{
color = 6;
glyphname = i;
lastChange = "2020-07-15 15:32:33 +0000";
layers = (
{
anchors = (
{
name = bottom;
position = "{285, 0}";
}
);
background = {
paths = (
{
closed = 1;
nodes = (
"464 1044 OFFCURVE",
"450 1060 OFFCURVE",
"428 1060 CURVE SMOOTH",
"102 1060 LINE SMOOTH",
"78 1060 OFFCURVE",
"64 1044 OFFCURVE",
"64 1014 CURVE SMOOTH",
"64 50 LINE SMOOTH",
"64 16 OFFCURVE",
"76 0 OFFCURVE",
"116 0 CURVE SMOOTH",
"398 0 LINE SMOOTH",
"444 0 OFFCURVE",
"464 16 OFFCURVE",
"464 58 CURVE SMOOTH",
"464 1020 LINE SMOOTH"
);
},
{
closed = 1;
nodes = (
"464 1468 OFFCURVE",
"450 1484 OFFCURVE",
"428 1484 CURVE SMOOTH",
"102 1484 LINE SMOOTH",
"78 1484 OFFCURVE",
"64 1468 OFFCURVE",
"64 1438 CURVE SMOOTH",
"64 1200 LINE SMOOTH",
"64 1166 OFFCURVE",
"76 1148 OFFCURVE",
"116 1148 CURVE SMOOTH",
"398 1148 LINE SMOOTH",
"444 1148 OFFCURVE",
"464 1166 OFFCURVE",
"464 1206 CURVE SMOOTH",
"464 1442 LINE SMOOTH"
);
}
);
};
layerId = "258ED206-D907-4350-8EBA-CBDDA1C16BF7";
paths = (
{
closed = 1;
nodes = (
"100 1034 LINE",
"100 0 LINE",
"470 0 LINE",
"470 1034 LINE"
);
},
{
closed = 1;
nodes = (
"100 1446 LINE",
"100 1118 LINE",
"470 1118 LINE",
"470 1446 LINE"
);
}
);
width = 570;
},
{
anchors = (
{
name = bottom;
position = "{228, 0}";
}
);
layerId = "91AB5BCA-6A50-42DA-B2F7-8181BF189245";
paths = (
{
closed = 1;
nodes = (
"189 1034 LINE",
"189 0 LINE",
"268 0 LINE",
"268 1034 LINE"
);
},
{
closed = 1;
nodes = (
"180 1444 LINE",
"180 1324 LINE",
"275 1324 LINE",
"275 1444 LINE"
);
}
);
width = 455;
}
);
leftKerningGroup = n;
leftMetricsKey = n;
rightKerningGroup = u;
rightMetricsKey = "=|n";
unicode = 0069;
},
{
color = 6;
glyphname = idotless;
lastChange = "2020-07-15 15:32:33 +0000";
layers = (
{
anchors = (
{
name = ogonek;
position = "{434, 18}";
},
{
name = top;
position = "{292, 1034}";
}
);
background = {
anchors = (
{
name = ogonek;
position = "{408, 18}";
},
{
name = top;
position = "{272, 1060}";
}
);
paths = (
{
closed = 1;
nodes = (
"464 1044 OFFCURVE",
"450 1060 OFFCURVE",
"429 1060 CURVE SMOOTH",
"102 1060 LINE SMOOTH",
"78 1060 OFFCURVE",
"64 1044 OFFCURVE",
"64 1014 CURVE SMOOTH",
"64 50 LINE SMOOTH",
"64 16 OFFCURVE",
"76 0 OFFCURVE",
"116 0 CURVE SMOOTH",
"398 0 LINE SMOOTH",
"444 0 OFFCURVE",
"464 16 OFFCURVE",
"464 58 CURVE SMOOTH",
"464 1020 LINE SMOOTH"
);
}
);
};
layerId = "258ED206-D907-4350-8EBA-CBDDA1C16BF7";
paths = (
{
closed = 1;
nodes = (
"100 1034 LINE",
"100 0 LINE",
"471 0 LINE",
"471 1034 LINE"
);
}
);
width = 571;
},
{
anchors = (
{
name = ogonek;
position = "{243, 26}";
},
{
name = top;
position = "{218, 1034}";
}
);
layerId = "91AB5BCA-6A50-42DA-B2F7-8181BF189245";
paths = (
{
closed = 1;
nodes = (
"180 1034 LINE",
"180 0 LINE",
"258 0 LINE",
"258 1034 LINE"
);
}
);
width = 438;
}
);
leftKerningGroup = n;
leftMetricsKey = i;
rightKerningGroup = u;
rightMetricsKey = i;
unicode = 0131;
},
{
color = 6;
glyphname = j;
lastChange = "2020-07-15 15:32:33 +0000";
layers = (
{
background = {
paths = (
{
closed = 1;
nodes = (
"501 1020 LINE SMOOTH",
"501 1044 OFFCURVE",
"488 1060 OFFCURVE",
"465 1060 CURVE SMOOTH",
"141 1060 LINE SMOOTH",
"117 1060 OFFCURVE",
"101 1044 OFFCURVE",
"101 1014 CURVE SMOOTH",
"101 72 LINE SMOOTH",
"101 4 OFFCURVE",
"79 -12 OFFCURVE",
"53 -20 CURVE SMOOTH",
"-18 -32 LINE SMOOTH",
"-43 -38 OFFCURVE",
"-58 -64 OFFCURVE",
"-58 -86 CURVE SMOOTH",
"-56 -290 LINE SMOOTH",
"-56 -332 OFFCURVE",
"-31 -340 OFFCURVE",
"81 -340 CURVE SMOOTH",
"364 -340 OFFCURVE",
"501 -206 OFFCURVE",
"501 58 CURVE SMOOTH"
);
},
{
closed = 1;
nodes = (
"501 1468 OFFCURVE",
"488 1484 OFFCURVE",
"465 1484 CURVE SMOOTH",
"141 1484 LINE SMOOTH",
"117 1484 OFFCURVE",
"101 1468 OFFCURVE",
"101 1438 CURVE SMOOTH",
"101 1200 LINE SMOOTH",
"101 1166 OFFCURVE",
"114 1148 OFFCURVE",
"154 1148 CURVE SMOOTH",
"437 1148 LINE SMOOTH",
"437 1148 OFFCURVE",
"501 1166 OFFCURVE",
"501 1206 CURVE SMOOTH",
"501 1442 LINE SMOOTH"
);
}
);
};
layerId = "258ED206-D907-4350-8EBA-CBDDA1C16BF7";
paths = (
{
closed = 1;
nodes = (
"524 1034 LINE",
"135 1034 LINE",
"135 56 LINE",
"135 14 OFFCURVE",
"114 -12 OFFCURVE",
"41 -28 CURVE",
"-20 -38 LINE",
"-18 -298 LINE",
"-18 -298 OFFCURVE",
"13 -332 OFFCURVE",
"117 -332 CURVE",
"393 -332 OFFCURVE",
"524 -200 OFFCURVE",
"524 56 CURVE SMOOTH"
);
},
{
closed = 1;
nodes = (
"135 1446 LINE",
"135 1118 LINE",
"524 1118 LINE",
"524 1446 LINE"
);
}
);
width = 624;
},
{
layerId = "91AB5BCA-6A50-42DA-B2F7-8181BF189245";
paths = (
{
closed = 1;
nodes = (
"285 1034 LINE",
"207 1034 LINE",
"207 -90 LINE SMOOTH",
"207 -214 OFFCURVE",
"167 -258 OFFCURVE",
"64 -260 CURVE SMOOTH",
"-60 -262 LINE",
"-60 -314 LINE SMOOTH",
"-60 -314 OFFCURVE",
"-51 -332 OFFCURVE",
"66 -332 CURVE SMOOTH",
"243 -332 OFFCURVE",
"285 -260 OFFCURVE",
"285 -100 CURVE SMOOTH"
);
},
{
closed = 1;
nodes = (
"197 1444 LINE",
"197 1324 LINE",
"293 1324 LINE",
"293 1444 LINE"
);
}
);
width = 473;
}
);
leftKerningGroup = j;
rightKerningGroup = u;
rightMetricsKey = "=|n";
unicode = 006A;
},
{
color = 6;
glyphname = jdotless;
lastChange = "2020-07-15 15:32:33 +0000";
layers = (
{
anchors = (
{
name = top;
position = "{329, 1034}";
}
);
background = {
anchors = (
{
name = top;
position = "{299, 1060}";
}
);
paths = (
{
closed = 1;
nodes = (
"499 1020 LINE SMOOTH",
"499 1044 OFFCURVE",
"486 1060 OFFCURVE",
"463 1060 CURVE SMOOTH",
"139 1060 LINE SMOOTH",
"114 1060 OFFCURVE",
"99 1044 OFFCURVE",
"99 1014 CURVE SMOOTH",
"99 72 LINE SMOOTH",
"99 4 OFFCURVE",
"77 -12 OFFCURVE",
"51 -20 CURVE SMOOTH",
"-20 -32 LINE SMOOTH",
"-45 -38 OFFCURVE",
"-60 -64 OFFCURVE",
"-60 -86 CURVE SMOOTH",
"-58 -290 LINE SMOOTH",
"-58 -332 OFFCURVE",
"-33 -340 OFFCURVE",
"79 -340 CURVE SMOOTH",
"362 -340 OFFCURVE",
"499 -206 OFFCURVE",
"499 58 CURVE SMOOTH"
);
}
);
};
layerId = "258ED206-D907-4350-8EBA-CBDDA1C16BF7";
paths = (
{
closed = 1;
nodes = (
"524 1034 LINE",
"135 1034 LINE",
"135 56 LINE",
"135 14 OFFCURVE",
"112 -12 OFFCURVE",
"39 -28 CURVE",
"-20 -38 LINE",
"-18 -298 LINE",
"-18 -298 OFFCURVE",
"11 -332 OFFCURVE",
"114 -332 CURVE",
"391 -332 OFFCURVE",
"524 -200 OFFCURVE",
"524 56 CURVE SMOOTH"
);
}
);
width = 624;
},
{
anchors = (
{
name = top;
position = "{247, 1034}";
}
);
layerId = "91AB5BCA-6A50-42DA-B2F7-8181BF189245";
paths = (
{
closed = 1;
nodes = (
"287 1034 LINE",
"209 1034 LINE",
"209 -90 LINE SMOOTH",
"209 -214 OFFCURVE",
"167 -258 OFFCURVE",
"66 -260 CURVE SMOOTH",
"-60 -262 LINE",
"-60 -314 LINE SMOOTH",
"-60 -330 OFFCURVE",
"-49 -332 OFFCURVE",
"68 -332 CURVE SMOOTH",
"243 -332 OFFCURVE",
"287 -260 OFFCURVE",
"287 -100 CURVE SMOOTH"
);
}
);
width = 467;
}
);
leftKerningGroup = j;
leftMetricsKey = j;
rightKerningGroup = u;
rightMetricsKey = j;
unicode = 0237;
},
{
color = 6;
glyphname = k;
lastChange = "2020-07-15 15:32:33 +0000";
layers = (
{
anchors = (
{
name = bottom;
position = "{606, 0}";
}
);
background = {
anchors = (
{
name = bottom;
position = "{584, 0}";
}
);
paths = (
{
closed = 1;
nodes = (
"890 674 LINE SMOOTH",
"872 710 OFFCURVE",
"876 722 OFFCURVE",
"894 744 CURVE SMOOTH",
"1151 1002 LINE SMOOTH",
"1178 1030 OFFCURVE",
"1170 1060 OFFCURVE",
"1124 1060 CURVE SMOOTH",
"850 1060 LINE SMOOTH",
"830 1060 OFFCURVE",
"808 1046 OFFCURVE",
"788 1026 CURVE SMOOTH",
"487 688 LINE SMOOTH",
"472 670 OFFCURVE",
"464 680 OFFCURVE",
"464 692 CURVE SMOOTH",
"464 1442 LINE SMOOTH",
"464 1468 OFFCURVE",
"452 1484 OFFCURVE",
"428 1484 CURVE SMOOTH",
"102 1484 LINE SMOOTH",
"80 1484 OFFCURVE",
"64 1468 OFFCURVE",
"64 1438 CURVE SMOOTH",
"64 50 LINE SMOOTH",
"64 16 OFFCURVE",
"76 0 OFFCURVE",
"118 0 CURVE SMOOTH",
"399 0 LINE SMOOTH",
"445 0 OFFCURVE",
"464 16 OFFCURVE",
"464 58 CURVE SMOOTH",
"464 260 LINE SMOOTH",
"464 292 OFFCURVE",
"470 306 OFFCURVE",
"481 316 CURVE SMOOTH",
"578 406 LINE SMOOTH",
"598 426 OFFCURVE",
"607 422 OFFCURVE",
"620 396 CURVE SMOOTH",
"764 52 LINE SMOOTH",
"777 20 OFFCURVE",
"796 0 OFFCURVE",
"830 0 CURVE SMOOTH",
"1172 0 LINE SMOOTH",
"1208 0 OFFCURVE",
"1222 34 OFFCURVE",
"1210 56 CURVE SMOOTH"
);
}
);
};
layerId = "258ED206-D907-4350-8EBA-CBDDA1C16BF7";
paths = (
{
closed = 1;
nodes = (
"802 606 LINE",
"1180 1034 LINE",
"773 1034 LINE",
"489 686 LINE",
"489 1486 LINE",
"100 1486 LINE",
"100 0 LINE",
"489 0 LINE",
"489 292 LINE",
"565 380 LINE",
"804 0 LINE",
"1182 0 LINE"
);
}
);
width = 1192;
},
{
anchors = (
{
name = bottom;
position = "{533, 0}";
}
);
layerId = "91AB5BCA-6A50-42DA-B2F7-8181BF189245";
paths = (
{
closed = 1;
nodes = (
"589 658 LINE",
"959 1034 LINE",
"849 1034 LINE",
"257 428 LINE",
"257 1486 LINE",
"180 1486 LINE",
"180 0 LINE",
"257 0 LINE",
"257 316 LINE",
"529 592 LINE",
"897 0 LINE",
"997 0 LINE"
);
}
);
width = 1087;
}
);
leftKerningGroup = n;
leftMetricsKey = n;
rightKerningGroup = k;
rightMetricsKey = "=x";
unicode = 006B;
},
{
color = 6;
glyphname = kgreenlandic;
lastChange = "2020-07-15 15:32:33 +0000";
layers = (
{
background = {
paths = (
{
closed = 1;
nodes = (
"890 674 LINE SMOOTH",
"872 710 OFFCURVE",
"876 722 OFFCURVE",
"894 744 CURVE SMOOTH",
"1151 1002 LINE SMOOTH",
"1178 1030 OFFCURVE",
"1170 1060 OFFCURVE",
"1124 1060 CURVE SMOOTH",
"850 1060 LINE SMOOTH",
"830 1060 OFFCURVE",
"808 1046 OFFCURVE",
"788 1026 CURVE SMOOTH",
"487 688 LINE SMOOTH",
"472 670 OFFCURVE",
"464 680 OFFCURVE",
"464 692 CURVE SMOOTH",
"464 1018 LINE SMOOTH",
"464 1044 OFFCURVE",
"452 1060 OFFCURVE",
"428 1060 CURVE SMOOTH",
"102 1060 LINE SMOOTH",
"80 1060 OFFCURVE",
"64 1044 OFFCURVE",
"64 1014 CURVE SMOOTH",
"64 50 LINE SMOOTH",
"64 16 OFFCURVE",
"76 0 OFFCURVE",
"118 0 CURVE SMOOTH",
"399 0 LINE SMOOTH",
"445 0 OFFCURVE",
"464 16 OFFCURVE",
"464 58 CURVE SMOOTH",
"464 260 LINE SMOOTH",
"464 292 OFFCURVE",
"470 306 OFFCURVE",
"481 316 CURVE SMOOTH",
"578 406 LINE SMOOTH",
"598 426 OFFCURVE",
"607 422 OFFCURVE",
"620 396 CURVE SMOOTH",
"764 52 LINE SMOOTH",
"777 20 OFFCURVE",
"796 0 OFFCURVE",
"830 0 CURVE SMOOTH",
"1172 0 LINE SMOOTH",
"1208 0 OFFCURVE",
"1222 34 OFFCURVE",
"1210 56 CURVE SMOOTH"
);
}
);
};
layerId = "258ED206-D907-4350-8EBA-CBDDA1C16BF7";
paths = (
{
closed = 1;
nodes = (
"884 700 LINE",
"1216 1034 LINE",
"834 1034 LINE",
"489 644 LINE",
"489 1034 LINE",
"100 1034 LINE",
"100 0 LINE",
"489 0 LINE",
"489 292 LINE",
"628 422 LINE",
"804 0 LINE",
"1244 0 LINE"
);
}
);
width = 1254;
},
{
layerId = "91AB5BCA-6A50-42DA-B2F7-8181BF189245";
paths = (
{
closed = 1;
nodes = (
"589 658 LINE",
"959 1034 LINE",
"849 1034 LINE",
"257 428 LINE",
"257 1034 LINE",
"180 1034 LINE",
"180 0 LINE",
"257 0 LINE",
"257 316 LINE",
"529 592 LINE",
"897 0 LINE",
"997 0 LINE"
);
}
);
width = 1087;
}
);
leftKerningGroup = n;
leftMetricsKey = k;
rightKerningGroup = k;
rightMetricsKey = k;
unicode = 0138;
},
{
color = 6;
glyphname = l;
lastChange = "2020-07-15 15:32:33 +0000";
layers = (
{
anchors = (
{
name = bottom;
position = "{266, 0}";
},
{
name = caron;
position = "{481, 1486}";
},
{
name = top;
position = "{293, 1530}";
}
);
background = {
anchors = (
{
name = bottom;
position = "{151, 0}";
},
{
name = top;
position = "{264, 1484}";
},
{
name = topright;
position = "{638, 1060}";
}
);
paths = (
{
closed = 1;
nodes = (
"617 258 LINE",
"617 258 OFFCURVE",
"565 262 OFFCURVE",
"547 266 CURVE SMOOTH",
"470 284 OFFCURVE",
"455 326 OFFCURVE",
"455 380 CURVE SMOOTH",
"455 1484 LINE",
"62 1484 LINE",
"56 346 LINE",
"56 190 OFFCURVE",
"77 -2 OFFCURVE",
"467 4 CURVE SMOOTH",
"520 6 OFFCURVE",
"551 10 OFFCURVE",
"617 18 CURVE"
);
}
);
};
layerId = "258ED206-D907-4350-8EBA-CBDDA1C16BF7";
paths = (
{
closed = 1;
nodes = (
"543 -22 OFFCURVE",
"593 -8 OFFCURVE",
"640 10 CURVE",
"640 246 LINE",
"598 250 LINE",
"493 264 OFFCURVE",
"481 314 OFFCURVE",
"481 364 CURVE SMOOTH",
"481 1486 LINE",
"100 1486 LINE",
"100 312 LINE",
"100 160 OFFCURVE",
"111 -22 OFFCURVE",
"493 -22 CURVE SMOOTH"
);
}
);
width = 705;
},
{
anchors = (
{
name = bottom;
position = "{260, 2}";
},
{
name = caron;
position = "{258, 1486}";
},
{
name = top;
position = "{212, 1524}";
}
);
layerId = "91AB5BCA-6A50-42DA-B2F7-8181BF189245";
paths = (
{
closed = 1;
nodes = (
"386 -8 OFFCURVE",
"414 -6 OFFCURVE",
"437 0 CURVE",
"437 58 LINE",
"374 58 LINE",
"317 58 OFFCURVE",
"258 108 OFFCURVE",
"258 242 CURVE",
"258 1486 LINE",
"180 1486 LINE",
"180 242 LINE",
"180 100 OFFCURVE",
"233 -8 OFFCURVE",
"372 -8 CURVE SMOOTH"
);
}
);
width = 554;
}
);
leftKerningGroup = n;
leftMetricsKey = n;
rightKerningGroup = l;
rightMetricsKey = "=u*.65";
unicode = 006C;
},
{
color = 3;
glyphname = lslash;
lastChange = "2020-07-15 11:12:11 +0000";
layers = (
{
background = {
components = (
{
name = l;
transform = "{1, 0, 0, 1, -32, 0}";
}
);
paths = (
{
closed = 1;
nodes = (
"603 1014 OFFCURVE",
"589 1022 OFFCURVE",
"555 1000 CURVE SMOOTH",
"-8 648 LINE SMOOTH",
"-31 632 OFFCURVE",
"-46 610 OFFCURVE",
"-46 580 CURVE SMOOTH",
"-46 340 LINE SMOOTH",
"-46 306 OFFCURVE",
"-33 300 OFFCURVE",
"7 326 CURVE SMOOTH",
"563 690 LINE SMOOTH",
"589 708 OFFCURVE",
"603 732 OFFCURVE",
"603 756 CURVE SMOOTH",
"603 982 LINE SMOOTH"
);
}
);
};
components = (
{
name = l;
transform = "{1, 0, 0, 1, 70, 0}";
}
);
layerId = "258ED206-D907-4350-8EBA-CBDDA1C16BF7";
leftMetricsKey = "=l-30";
rightMetricsKey = "=l";
paths = (
{
closed = 1;
nodes = (
"70 608 LINE",
"70 284 LINE",
"702 698 LINE",
"702 1004 LINE"
);
}
);
width = 775;
},
{
components = (
{
name = l;
transform = "{1, 0, 0, 1, 78, 0}";
}
);
layerId = "91AB5BCA-6A50-42DA-B2F7-8181BF189245";
leftMetricsKey = "=l-110";
paths = (
{
closed = 1;
nodes = (
"70 430 LINE",
"70 340 LINE",
"532 776 LINE",
"532 862 LINE"
);
}
);
width = 669;
}
);
leftKerningGroup = n;
leftMetricsKey = "=l-130";
rightKerningGroup = l;
rightMetricsKey = "=l+20";
unicode = 0142;
},
{
color = 6;
glyphname = m;
lastChange = "2020-07-15 15:32:33 +0000";
layers = (
{
background = {
guideLines = (
{
angle = 90;
position = "{314, 331}";
showMeasurement = 1;
}
);
paths = (
{
closed = 1;
nodes = (
"398 0 LINE SMOOTH",
"445 0 OFFCURVE",
"463 16 OFFCURVE",
"463 58 CURVE SMOOTH",
"463 698 LINE",
"501 766 OFFCURVE",
"551 798 OFFCURVE",
"611 798 CURVE SMOOTH",
"675 798 OFFCURVE",
"715 762 OFFCURVE",
"715 702 CURVE SMOOTH",
"715 50 LINE SMOOTH",
"715 12 OFFCURVE",
"730 0 OFFCURVE",
"762 0 CURVE SMOOTH",
"1054 0 LINE SMOOTH",
"1096 0 OFFCURVE",
"1113 20 OFFCURVE",
"1113 60 CURVE SMOOTH",
"1113 666 LINE SMOOTH",
"1113 684 OFFCURVE",
"1115 700 OFFCURVE",
"1129 720 CURVE SMOOTH",
"1159 762 OFFCURVE",
"1211 798 OFFCURVE",
"1262 798 CURVE SMOOTH",
"1323 798 OFFCURVE",
"1365 762 OFFCURVE",
"1365 702 CURVE SMOOTH",
"1365 50 LINE SMOOTH",
"1365 12 OFFCURVE",
"1377 0 OFFCURVE",
"1411 0 CURVE SMOOTH",
"1703 0 LINE SMOOTH",
"1745 0 OFFCURVE",
"1766 20 OFFCURVE",
"1766 60 CURVE SMOOTH",
"1766 746 LINE SMOOTH",
"1766 960 OFFCURVE",
"1638 1080 OFFCURVE",
"1457 1080 CURVE SMOOTH",
"1337 1080 OFFCURVE",
"1186 994 OFFCURVE",
"1111 892 CURVE SMOOTH",
"1102 880 OFFCURVE",
"1091 880 OFFCURVE",
"1087 890 CURVE SMOOTH",
"1041 1014 OFFCURVE",
"938 1082 OFFCURVE",
"804 1082 CURVE SMOOTH",
"682 1082 OFFCURVE",
"569 1014 OFFCURVE",
"483 922 CURVE SMOOTH",
"467 906 OFFCURVE",
"457 914 OFFCURVE",
"457 930 CURVE SMOOTH",
"457 1020 LINE SMOOTH",
"457 1044 OFFCURVE",
"445 1060 OFFCURVE",
"421 1060 CURVE SMOOTH",
"102 1060 LINE SMOOTH",
"79 1060 OFFCURVE",
"64 1042 OFFCURVE",
"64 1014 CURVE SMOOTH",
"64 50 LINE SMOOTH",
"64 14 OFFCURVE",
"77 0 OFFCURVE",
"115 0 CURVE SMOOTH"
);
}
);
};
layerId = "258ED206-D907-4350-8EBA-CBDDA1C16BF7";
paths = (
{
closed = 1;
nodes = (
"489 0 LINE",
"489 635 LINE",
"489 703 OFFCURVE",
"553 742 OFFCURVE",
"611 742 CURVE SMOOTH",
"670 742 OFFCURVE",
"733 703 OFFCURVE",
"733 635 CURVE SMOOTH",
"733 0 LINE",
"1121 0 LINE",
"1121 635 LINE SMOOTH",
"1121 703 OFFCURVE",
"1185 742 OFFCURVE",
"1243 742 CURVE SMOOTH",
"1302 742 OFFCURVE",
"1367 703 OFFCURVE",
"1367 635 CURVE SMOOTH",
"1367 0 LINE",
"1757 0 LINE",
"1757 688 LINE SMOOTH",
"1757 943 OFFCURVE",
"1578 1054 OFFCURVE",
"1418 1054 CURVE SMOOTH",
"1287 1054 OFFCURVE",
"1175 979 OFFCURVE",
"1107 891 CURVE",
"1039 998 OFFCURVE",
"923 1054 OFFCURVE",
"823 1054 CURVE SMOOTH",
"661 1054 OFFCURVE",
"551 982 OFFCURVE",
"483 891 CURVE",
"483 1034 LINE",
"100 1034 LINE",
"100 0 LINE"
);
}
);
width = 1847;
},
{
layerId = "91AB5BCA-6A50-42DA-B2F7-8181BF189245";
paths = (
{
closed = 1;
nodes = (
"258 0 LINE",
"258 720 LINE SMOOTH",
"258 906 OFFCURVE",
"418 978 OFFCURVE",
"548 978 CURVE SMOOTH",
"664 978 OFFCURVE",
"804 904 OFFCURVE",
"804 752 CURVE SMOOTH",
"804 0 LINE",
"882 0 LINE",
"882 720 LINE SMOOTH",
"882 924 OFFCURVE",
"1054 978 OFFCURVE",
"1172 978 CURVE SMOOTH",
"1307 978 OFFCURVE",
"1430 920 OFFCURVE",
"1430 670 CURVE SMOOTH",
"1430 0 LINE",
"1508 0 LINE",
"1508 670 LINE SMOOTH",
"1508 1002 OFFCURVE",
"1311 1054 OFFCURVE",
"1172 1054 CURVE SMOOTH",
"1032 1054 OFFCURVE",
"918 990 OFFCURVE",
"855 882 CURVE",
"809 994 OFFCURVE",
"670 1054 OFFCURVE",
"550 1054 CURVE SMOOTH",
"390 1054 OFFCURVE",
"302 972 OFFCURVE",
"252 880 CURVE",
"252 1034 LINE",
"180 1034 LINE",
"180 0 LINE"
);
}
);
width = 1668;
}
);
leftKerningGroup = n;
leftMetricsKey = n;
rightKerningGroup = n;
rightMetricsKey = n;
unicode = 006D;
},
{
color = 6;
glyphname = n;
lastChange = "2020-07-15 15:32:33 +0000";
layers = (
{
anchors = (
{
name = bottom;
position = "{611, 0}";
},
{
name = top;
position = "{611, 1034}";
}
);
background = {
anchors = (
{
name = bottom;
position = "{589, 0}";
},
{
name = top;
position = "{589, 1060}";
}
);
paths = (
{
closed = 1;
nodes = (
"398 0 LINE SMOOTH",
"445 0 OFFCURVE",
"463 16 OFFCURVE",
"463 58 CURVE SMOOTH",
"463 698 LINE",
"501 766 OFFCURVE",
"549 798 OFFCURVE",
"611 798 CURVE SMOOTH",
"675 798 OFFCURVE",
"717 762 OFFCURVE",
"717 702 CURVE SMOOTH",
"717 50 LINE SMOOTH",
"717 12 OFFCURVE",
"730 0 OFFCURVE",
"764 0 CURVE SMOOTH",
"1058 0 LINE SMOOTH",
"1100 0 OFFCURVE",
"1117 20 OFFCURVE",
"1117 60 CURVE SMOOTH",
"1117 756 LINE SMOOTH",
"1117 954 OFFCURVE",
"989 1080 OFFCURVE",
"804 1080 CURVE SMOOTH",
"680 1080 OFFCURVE",
"569 1014 OFFCURVE",
"485 922 CURVE SMOOTH",
"470 906 OFFCURVE",
"459 914 OFFCURVE",
"459 930 CURVE SMOOTH",
"459 1020 LINE SMOOTH",
"459 1044 OFFCURVE",
"447 1060 OFFCURVE",
"423 1060 CURVE SMOOTH",
"102 1060 LINE SMOOTH",
"77 1060 OFFCURVE",
"64 1042 OFFCURVE",
"64 1014 CURVE SMOOTH",
"64 50 LINE SMOOTH",
"64 14 OFFCURVE",
"77 0 OFFCURVE",
"115 0 CURVE SMOOTH"
);
}
);
};
layerId = "258ED206-D907-4350-8EBA-CBDDA1C16BF7";
paths = (
{
closed = 1;
nodes = (
"489 0 LINE",
"489 635 LINE",
"489 703 OFFCURVE",
"558 740 OFFCURVE",
"615 740 CURVE SMOOTH",
"673 740 OFFCURVE",
"735 703 OFFCURVE",
"735 635 CURVE SMOOTH",
"735 0 LINE",
"1125 0 LINE",
"1125 688 LINE SMOOTH",
"1125 940 OFFCURVE",
"945 1038 OFFCURVE",
"764 1038 CURVE SMOOTH",
"602 1038 OFFCURVE",
"529 956 OFFCURVE",
"485 891 CURVE",
"485 1034 LINE",
"100 1034 LINE",
"100 0 LINE"
);
}
);
width = 1215;
},
{
anchors = (
{
name = bottom;
position = "{574, 0}";
},
{
name = top;
position = "{592, 1034}";
}
);
layerId = "91AB5BCA-6A50-42DA-B2F7-8181BF189245";
paths = (
{
closed = 1;
nodes = (
"258 0 LINE",
"258 720 LINE SMOOTH",
"258 896 OFFCURVE",
"416 978 OFFCURVE",
"599 978 CURVE SMOOTH",
"775 978 OFFCURVE",
"884 880 OFFCURVE",
"884 670 CURVE SMOOTH",
"884 0 LINE",
"962 0 LINE",
"962 670 LINE SMOOTH",
"962 934 OFFCURVE",
"803 1054 OFFCURVE",
"599 1054 CURVE SMOOTH",
"432 1054 OFFCURVE",
"306 978 OFFCURVE",
"252 880 CURVE",
"252 1034 LINE",
"180 1034 LINE",
"180 0 LINE"
);
}
);
width = 1122;
}
);
leftKerningGroup = n;
rightKerningGroup = n;
unicode = 006E;
},
{
color = 6;
glyphname = eng;
lastChange = "2020-07-15 15:32:33 +0000";
layers = (
{
layerId = "258ED206-D907-4350-8EBA-CBDDA1C16BF7";
paths = (
{
closed = 1;
nodes = (
"963 -332 OFFCURVE",
"1127 -184 OFFCURVE",
"1127 56 CURVE SMOOTH",
"1127 738 LINE SMOOTH",
"1127 930 OFFCURVE",
"1003 1054 OFFCURVE",
"821 1054 CURVE SMOOTH",
"691 1054 OFFCURVE",
"573 976 OFFCURVE",
"487 872 CURVE",
"487 1034 LINE",
"106 1034 LINE",
"100 0 LINE",
"493 0 LINE",
"493 680 LINE",
"529 746 OFFCURVE",
"573 778 OFFCURVE",
"636 778 CURVE SMOOTH",
"697 778 OFFCURVE",
"737 742 OFFCURVE",
"737 684 CURVE SMOOTH",
"737 50 LINE",
"737 0 OFFCURVE",
"711 -20 OFFCURVE",
"651 -30 CURVE",
"604 -36 LINE",
"604 -306 LINE",
"604 -306 OFFCURVE",
"617 -332 OFFCURVE",
"730 -332 CURVE SMOOTH"
);
}
);
width = 1227;
},
{
layerId = "91AB5BCA-6A50-42DA-B2F7-8181BF189245";
paths = (
{
closed = 1;
nodes = (
"895 -332 OFFCURVE",
"962 -240 OFFCURVE",
"962 -80 CURVE SMOOTH",
"962 766 LINE SMOOTH",
"962 936 OFFCURVE",
"846 1054 OFFCURVE",
"645 1054 CURVE SMOOTH",
"517 1054 OFFCURVE",
"428 1018 OFFCURVE",
"252 878 CURVE",
"252 1034 LINE",
"180 1034 LINE",
"180 0 LINE",
"258 0 LINE",
"258 796 LINE",
"384 908 OFFCURVE",
"512 980 OFFCURVE",
"636 980 CURVE SMOOTH",
"819 980 OFFCURVE",
"884 876 OFFCURVE",
"884 724 CURVE SMOOTH",
"884 -90 LINE SMOOTH",
"884 -214 OFFCURVE",
"842 -262 OFFCURVE",
"737 -264 CURVE SMOOTH",
"628 -266 LINE",
"628 -314 LINE SMOOTH",
"628 -330 OFFCURVE",
"640 -332 OFFCURVE",
"740 -332 CURVE SMOOTH"
);
}
);
width = 1142;
}
);
leftKerningGroup = n;
leftMetricsKey = n;
rightKerningGroup = n;
rightMetricsKey = j;
unicode = 014B;
},
{
color = 6;
glyphname = o;
lastChange = "2020-07-15 15:32:33 +0000";
layers = (
{
anchors = (
{
name = bottom;
position = "{579, 0}";
},
{
name = horn;
position = "{953, 714}";
},
{
name = ogonek;
position = "{738, 20}";
},
{
name = top;
position = "{586, 1034}";
}
);
background = {
anchors = (
{
name = bottom;
position = "{556, 0}";
},
{
name = ogonek;
position = "{718, 20}";
},
{
name = top;
position = "{562, 1060}";
}
);
paths = (
{
closed = 1;
nodes = (
"890 -20 OFFCURVE",
"1119 208 OFFCURVE",
"1119 524 CURVE SMOOTH",
"1119 846 OFFCURVE",
"896 1080 OFFCURVE",
"562 1080 CURVE SMOOTH",
"245 1080 OFFCURVE",
"4 858 OFFCURVE",
"4 524 CURVE SMOOTH",
"4 206 OFFCURVE",
"232 -20 OFFCURVE",
"560 -20 CURVE SMOOTH"
);
},
{
closed = 1;
nodes = (
"455 236 OFFCURVE",
"407 324 OFFCURVE",
"407 532 CURVE SMOOTH",
"407 742 OFFCURVE",
"455 832 OFFCURVE",
"562 832 CURVE SMOOTH",
"670 832 OFFCURVE",
"716 742 OFFCURVE",
"716 532 CURVE SMOOTH",
"716 326 OFFCURVE",
"670 236 OFFCURVE",
"562 236 CURVE SMOOTH"
);
}
);
};
layerId = "258ED206-D907-4350-8EBA-CBDDA1C16BF7";
paths = (
{
closed = 1;
nodes = (
"906 -20 OFFCURVE",
"1110 202 OFFCURVE",
"1110 510 CURVE SMOOTH",
"1110 824 OFFCURVE",
"909 1054 OFFCURVE",
"586 1054 CURVE SMOOTH",
"278 1054 OFFCURVE",
"60 836 OFFCURVE",
"60 510 CURVE SMOOTH",
"60 200 OFFCURVE",
"264 -20 OFFCURVE",
"584 -20 CURVE SMOOTH"
);
},
{
closed = 1;
nodes = (
"460 262 OFFCURVE",
"438 414 OFFCURVE",
"438 524 CURVE SMOOTH",
"438 636 OFFCURVE",
"460 776 OFFCURVE",
"586 776 CURVE SMOOTH",
"710 776 OFFCURVE",
"732 636 OFFCURVE",
"732 524 CURVE SMOOTH",
"732 414 OFFCURVE",
"710 262 OFFCURVE",
"586 262 CURVE SMOOTH"
);
}
);
width = 1170;
},
{
anchors = (
{
name = bottom;
position = "{560, 0}";
},
{
name = horn;
position = "{848, 856}";
},
{
name = ogonek;
position = "{681, 20}";
},
{
name = top;
position = "{556, 1034}";
}
);
layerId = "91AB5BCA-6A50-42DA-B2F7-8181BF189245";
paths = (
{
closed = 1;
nodes = (
"859 -20 OFFCURVE",
"1000 194 OFFCURVE",
"1000 514 CURVE SMOOTH",
"1000 881 OFFCURVE",
"823 1054 OFFCURVE",
"558 1054 CURVE SMOOTH",
"253 1054 OFFCURVE",
"110 838 OFFCURVE",
"110 514 CURVE SMOOTH",
"110 151 OFFCURVE",
"289 -20 OFFCURVE",
"558 -20 CURVE SMOOTH"
);
},
{
closed = 1;
nodes = (
"309 54 OFFCURVE",
"192 238 OFFCURVE",
"192 514 CURVE SMOOTH",
"192 830 OFFCURVE",
"338 978 OFFCURVE",
"558 978 CURVE SMOOTH",
"803 978 OFFCURVE",
"919 792 OFFCURVE",
"919 514 CURVE SMOOTH",
"919 201 OFFCURVE",
"775 54 OFFCURVE",
"558 54 CURVE SMOOTH"
);
}
);
width = 1110;
}
);
leftKerningGroup = o;
rightKerningGroup = o;
unicode = 006F;
},
{
color = 6;
glyphname = ohorn;
lastChange = "2020-07-15 15:32:33 +0000";
layers = (
{
anchors = (
{
name = bottom;
position = "{560, 0}";
},
{
name = horn;
position = "{848, 856}";
},
{
name = ogonek;
position = "{681, 20}";
},
{
name = top;
position = "{556, 1034}";
},
{
name = topright;
position = "{954, 936}";
}
);
layerId = "91AB5BCA-6A50-42DA-B2F7-8181BF189245";
paths = (
{
closed = 1;
nodes = (
"979 990 OFFCURVE",
"951 938 OFFCURVE",
"874 927 CURVE",
"797 1012 OFFCURVE",
"688 1054 OFFCURVE",
"558 1054 CURVE SMOOTH",
"253 1054 OFFCURVE",
"110 838 OFFCURVE",
"110 514 CURVE SMOOTH",
"110 151 OFFCURVE",
"289 -20 OFFCURVE",
"558 -20 CURVE SMOOTH",
"859 -20 OFFCURVE",
"1000 194 OFFCURVE",
"1000 514 CURVE SMOOTH",
"1000 658 OFFCURVE",
"973 773 OFFCURVE",
"923 858 CURVE",
"1031 878 OFFCURVE",
"1084 963 OFFCURVE",
"1084 1114 CURVE",
"982 1114 LINE"
);
},
{
closed = 1;
nodes = (
"309 54 OFFCURVE",
"192 238 OFFCURVE",
"192 514 CURVE SMOOTH",
"192 830 OFFCURVE",
"338 978 OFFCURVE",
"558 978 CURVE SMOOTH",
"803 978 OFFCURVE",
"919 792 OFFCURVE",
"919 514 CURVE SMOOTH",
"919 201 OFFCURVE",
"775 54 OFFCURVE",
"558 54 CURVE SMOOTH"
);
}
);
width = 1124;
},
{
anchors = (
{
name = bottom;
position = "{579, 0}";
},
{
name = horn;
position = "{953, 714}";
},
{
name = ogonek;
position = "{738, 20}";
},
{
name = top;
position = "{586, 1034}";
},
{
name = topright;
position = "{1146, 894}";
}
);
layerId = "258ED206-D907-4350-8EBA-CBDDA1C16BF7";
paths = (
{
closed = 1;
nodes = (
"1132 900 OFFCURVE",
"1087 890 OFFCURVE",
"977 891 CURVE",
"886 993 OFFCURVE",
"752 1054 OFFCURVE",
"586 1054 CURVE SMOOTH",
"278 1054 OFFCURVE",
"60 836 OFFCURVE",
"60 510 CURVE SMOOTH",
"60 200 OFFCURVE",
"264 -20 OFFCURVE",
"584 -20 CURVE SMOOTH",
"906 -20 OFFCURVE",
"1110 202 OFFCURVE",
"1110 510 CURVE SMOOTH",
"1110 580 OFFCURVE",
"1100 646 OFFCURVE",
"1081 707 CURVE",
"1317 714 OFFCURVE",
"1381 836 OFFCURVE",
"1384 1112 CURVE",
"1150 1112 LINE"
);
},
{
closed = 1;
nodes = (
"460 262 OFFCURVE",
"438 414 OFFCURVE",
"438 524 CURVE SMOOTH",
"438 636 OFFCURVE",
"460 776 OFFCURVE",
"586 776 CURVE SMOOTH",
"710 776 OFFCURVE",
"732 636 OFFCURVE",
"732 524 CURVE SMOOTH",
"732 414 OFFCURVE",
"710 262 OFFCURVE",
"586 262 CURVE SMOOTH"
);
}
);
width = 1354;
}
);
leftKerningGroup = o;
rightKerningGroup = ohorn;
unicode = 01A1;
},
{
color = 3;
glyphname = oslash;
lastChange = "2020-07-15 11:12:11 +0000";
layers = (
{
anchors = (
{
name = top;
position = "{626, 1034}";
}
);
background = {
anchors = (
{
name = top;
position = "{604, 1060}";
}
);
components = (
{
name = o;
}
);
paths = (
{
closed = 1;
nodes = (
"1174 942 OFFCURVE",
"1172 962 OFFCURVE",
"1156 978 CURVE SMOOTH",
"1088 1050 LINE SMOOTH",
"1072 1066 OFFCURVE",
"1050 1062 OFFCURVE",
"1026 1040 CURVE SMOOTH",
"56 138 LINE SMOOTH",
"32 116 OFFCURVE",
"36 94 OFFCURVE",
"64 64 CURVE SMOOTH",
"102 24 LINE SMOOTH",
"132 -8 OFFCURVE",
"156 -6 OFFCURVE",
"188 24 CURVE SMOOTH",
"1154 924 LINE SMOOTH"
);
}
);
};
components = (
{
name = o;
transform = "{1, 0, 0, 1, 76, 0}";
}
);
layerId = "258ED206-D907-4350-8EBA-CBDDA1C16BF7";
paths = (
{
closed = 1;
nodes = (
"1076 1050 LINE",
"60 106 LINE",
"176 -18 LINE",
"1190 926 LINE"
);
}
);
width = 1270;
},
{
anchors = (
{
name = top;
position = "{562, 1034}";
}
);
components = (
{
name = o;
transform = "{1, 0, 0, 1, -10, 0}";
}
);
layerId = "91AB5BCA-6A50-42DA-B2F7-8181BF189245";
paths = (
{
closed = 1;
nodes = (
"1036 1038 LINE",
"30 48 LINE",
"84 -8 LINE",
"1090 982 LINE"
);
}
);
width = 1120;
}
);
leftKerningGroup = o;
rightKerningGroup = o;
unicode = 00F8;
},
{
glyphname = oe;
lastChange = "2020-07-15 11:07:11 +0000";
layers = (
{
background = {
paths = (
{
closed = 1;
nodes = (
"720 -20 OFFCURVE",
"833 16 OFFCURVE",
"926 78 CURVE SMOOTH",
"938 86 OFFCURVE",
"947 88 OFFCURVE",
"959 80 CURVE SMOOTH",
"1052 16 OFFCURVE",
"1167 -20 OFFCURVE",
"1297 -20 CURVE SMOOTH",
"1521 -20 OFFCURVE",
"1657 34 OFFCURVE",
"1802 236 CURVE",
"1819 258 OFFCURVE",
"1813 276 OFFCURVE",
"1793 284 CURVE SMOOTH",
"1611 358 LINE SMOOTH",
"1585 368 OFFCURVE",
"1579 366 OFFCURVE",
"1569 356 CURVE SMOOTH",
"1481 270 OFFCURVE",
"1419 244 OFFCURVE",
"1352 244 CURVE SMOOTH",
"1235 244 OFFCURVE",
"1146 302 OFFCURVE",
"1146 424 CURVE SMOOTH",
"1146 448 OFFCURVE",
"1155 458 OFFCURVE",
"1176 458 CURVE SMOOTH",
"1797 458 LINE",
"1831 460 OFFCURVE",
"1833 474 OFFCURVE",
"1833 508 CURVE SMOOTH",
"1833 870 OFFCURVE",
"1604 1080 OFFCURVE",
"1289 1080 CURVE SMOOTH",
"1173 1080 OFFCURVE",
"1065 1046 OFFCURVE",
"976 982 CURVE SMOOTH",
"955 968 OFFCURVE",
"945 968 OFFCURVE",
"926 982 CURVE SMOOTH",
"835 1044 OFFCURVE",
"722 1080 OFFCURVE",
"591 1080 CURVE SMOOTH",
"275 1080 OFFCURVE",
"33 858 OFFCURVE",
"33 524 CURVE SMOOTH",
"33 206 OFFCURVE",
"262 -20 OFFCURVE",
"589 -20 CURVE SMOOTH"
);
},
{
closed = 1;
nodes = (
"485 236 OFFCURVE",
"438 324 OFFCURVE",
"438 532 CURVE SMOOTH",
"438 742 OFFCURVE",
"485 832 OFFCURVE",
"591 832 CURVE SMOOTH",
"699 832 OFFCURVE",
"745 742 OFFCURVE",
"745 532 CURVE SMOOTH",
"745 326 OFFCURVE",
"699 236 OFFCURVE",
"591 236 CURVE SMOOTH"
);
},
{
closed = 1;
nodes = (
"1407 846 OFFCURVE",
"1445 744 OFFCURVE",
"1445 692 CURVE SMOOTH",
"1445 668 OFFCURVE",
"1438 664 OFFCURVE",
"1411 664 CURVE SMOOTH",
"1151 666 LINE",
"1149 790 OFFCURVE",
"1226 846 OFFCURVE",
"1308 846 CURVE SMOOTH"
);
}
);
};
components = (
{
alignment = -1;
name = o;
},
{
name = e;
transform = "{1, 0, 0, 1, 673, 0}";
}
);
layerId = "258ED206-D907-4350-8EBA-CBDDA1C16BF7";
width = 1843;
},
{
components = (
{
alignment = -1;
name = o;
},
{
name = e;
transform = "{1, 0, 0, 1, 809, 0}";
}
);
layerId = "91AB5BCA-6A50-42DA-B2F7-8181BF189245";
width = 1923;
}
);
leftKerningGroup = o;
leftMetricsKey = o;
rightKerningGroup = o;
rightMetricsKey = e;
unicode = 0153;
},
{
color = 6;
glyphname = p;
lastChange = "2020-07-15 15:32:33 +0000";
layers = (
{
background = {
paths = (
{
closed = 1;
nodes = (
"117 1060 LINE SMOOTH",
"75 1060 OFFCURVE",
"64 1042 OFFCURVE",
"64 1008 CURVE SMOOTH",
"64 -286 LINE SMOOTH",
"64 -316 OFFCURVE",
"79 -330 OFFCURVE",
"102 -330 CURVE SMOOTH",
"428 -330 LINE SMOOTH",
"451 -330 OFFCURVE",
"463 -316 OFFCURVE",
"463 -290 CURVE SMOOTH",
"463 72 LINE SMOOTH",
"463 112 OFFCURVE",
"474 110 OFFCURVE",
"505 82 CURVE SMOOTH",
"589 2 OFFCURVE",
"671 -20 OFFCURVE",
"762 -20 CURVE SMOOTH",
"985 -20 OFFCURVE",
"1167 130 OFFCURVE",
"1167 534 CURVE SMOOTH",
"1167 908 OFFCURVE",
"997 1080 OFFCURVE",
"775 1080 CURVE SMOOTH",
"651 1080 OFFCURVE",
"573 1038 OFFCURVE",
"495 966 CURVE SMOOTH",
"481 954 OFFCURVE",
"465 954 OFFCURVE",
"465 970 CURVE SMOOTH",
"465 1012 LINE SMOOTH",
"465 1046 OFFCURVE",
"451 1060 OFFCURVE",
"413 1060 CURVE SMOOTH"
);
},
{
closed = 1;
nodes = (
"463 726 LINE SMOOTH",
"463 790 OFFCURVE",
"525 838 OFFCURVE",
"604 838 CURVE SMOOTH",
"707 838 OFFCURVE",
"764 778 OFFCURVE",
"764 546 CURVE SMOOTH",
"764 290 OFFCURVE",
"703 222 OFFCURVE",
"604 222 CURVE SMOOTH",
"539 222 OFFCURVE",
"497 254 OFFCURVE",
"463 302 CURVE"
);
}
);
};
layerId = "258ED206-D907-4350-8EBA-CBDDA1C16BF7";
paths = (
{
closed = 1;
nodes = (
"489 -322 LINE",
"489 126 LINE",
"557 20 OFFCURVE",
"668 -20 OFFCURVE",
"753 -20 CURVE SMOOTH",
"973 -20 OFFCURVE",
"1175 126 OFFCURVE",
"1175 520 CURVE SMOOTH",
"1175 886 OFFCURVE",
"1011 1054 OFFCURVE",
"795 1054 CURVE SMOOTH",
"698 1054 OFFCURVE",
"569 1020 OFFCURVE",
"491 914 CURVE",
"491 1034 LINE",
"100 1034 LINE",
"100 -322 LINE"
);
},
{
closed = 1;
nodes = (
"537 258 OFFCURVE",
"489 393 OFFCURVE",
"489 520 CURVE",
"489 660 OFFCURVE",
"537 780 OFFCURVE",
"651 780 CURVE SMOOTH",
"737 780 OFFCURVE",
"815 688 OFFCURVE",
"815 520 CURVE SMOOTH",
"815 334 OFFCURVE",
"737 258 OFFCURVE",
"651 258 CURVE"
);
}
);
width = 1235;
},
{
layerId = "91AB5BCA-6A50-42DA-B2F7-8181BF189245";
paths = (
{
closed = 1;
nodes = (
"260 -322 LINE",
"260 219 LINE",
"291 140 OFFCURVE",
"380 -20 OFFCURVE",
"618 -20 CURVE SMOOTH",
"917 -20 OFFCURVE",
"1058 202 OFFCURVE",
"1058 536 CURVE SMOOTH",
"1058 888 OFFCURVE",
"882 1054 OFFCURVE",
"618 1054 CURVE SMOOTH",
"380 1054 OFFCURVE",
"290 896 OFFCURVE",
"260 822 CURVE",
"256 1034 LINE",
"180 1034 LINE",
"180 -322 LINE"
);
},
{
closed = 1;
nodes = (
"384 54 OFFCURVE",
"257 254 OFFCURVE",
"257 528 CURVE SMOOTH",
"257 802 OFFCURVE",
"384 978 OFFCURVE",
"618 978 CURVE SMOOTH",
"860 978 OFFCURVE",
"974 798 OFFCURVE",
"974 528 CURVE SMOOTH",
"974 206 OFFCURVE",
"832 54 OFFCURVE",
"618 54 CURVE SMOOTH"
);
}
);
width = 1168;
}
);
leftKerningGroup = n;
leftMetricsKey = n;
rightKerningGroup = o;
rightMetricsKey = o;
unicode = 0070;
},
{
color = 6;
glyphname = thorn;
lastChange = "2020-07-15 15:32:33 +0000";
layers = (
{
background = {
paths = (
{
closed = 1;
nodes = (
"117 1484 LINE SMOOTH",
"75 1484 OFFCURVE",
"64 1466 OFFCURVE",
"64 1432 CURVE SMOOTH",
"64 -286 LINE SMOOTH",
"64 -316 OFFCURVE",
"79 -330 OFFCURVE",
"102 -330 CURVE SMOOTH",
"428 -330 LINE SMOOTH",
"451 -330 OFFCURVE",
"463 -316 OFFCURVE",
"463 -290 CURVE SMOOTH",
"463 72 LINE SMOOTH",
"463 112 OFFCURVE",
"474 110 OFFCURVE",
"505 82 CURVE SMOOTH",
"589 2 OFFCURVE",
"671 -20 OFFCURVE",
"762 -20 CURVE SMOOTH",
"985 -20 OFFCURVE",
"1167 130 OFFCURVE",
"1167 534 CURVE SMOOTH",
"1167 908 OFFCURVE",
"997 1080 OFFCURVE",
"775 1080 CURVE SMOOTH",
"651 1080 OFFCURVE",
"573 1038 OFFCURVE",
"495 966 CURVE SMOOTH",
"481 954 OFFCURVE",
"465 954 OFFCURVE",
"465 970 CURVE SMOOTH",
"465 1436 LINE SMOOTH",
"465 1470 OFFCURVE",
"451 1484 OFFCURVE",
"413 1484 CURVE SMOOTH"
);
},
{
closed = 1;
nodes = (
"463 726 LINE SMOOTH",
"463 790 OFFCURVE",
"525 838 OFFCURVE",
"604 838 CURVE SMOOTH",
"707 838 OFFCURVE",
"764 778 OFFCURVE",
"764 546 CURVE SMOOTH",
"764 290 OFFCURVE",
"703 222 OFFCURVE",
"604 222 CURVE SMOOTH",
"539 222 OFFCURVE",
"497 254 OFFCURVE",
"463 302 CURVE"
);
}
);
};
layerId = "258ED206-D907-4350-8EBA-CBDDA1C16BF7";
paths = (
{
closed = 1;
nodes = (
"100 1446 LINE",
"100 -322 LINE",
"489 -322 LINE",
"489 70 LINE SMOOTH",
"489 110 OFFCURVE",
"497 108 OFFCURVE",
"529 80 CURVE SMOOTH",
"611 2 OFFCURVE",
"691 -20 OFFCURVE",
"779 -20 CURVE SMOOTH",
"997 -20 OFFCURVE",
"1175 126 OFFCURVE",
"1175 520 CURVE SMOOTH",
"1175 886 OFFCURVE",
"1009 1054 OFFCURVE",
"793 1054 CURVE SMOOTH",
"657 1054 OFFCURVE",
"573 1002 OFFCURVE",
"491 914 CURVE",
"491 1446 LINE"
);
},
{
closed = 1;
nodes = (
"489 708 LINE SMOOTH",
"489 770 OFFCURVE",
"549 818 OFFCURVE",
"625 818 CURVE SMOOTH",
"728 818 OFFCURVE",
"781 758 OFFCURVE",
"781 532 CURVE SMOOTH",
"781 282 OFFCURVE",
"724 216 OFFCURVE",
"625 216 CURVE SMOOTH",
"564 216 OFFCURVE",
"522 248 OFFCURVE",
"489 294 CURVE"
);
}
);
width = 1235;
},
{
layerId = "91AB5BCA-6A50-42DA-B2F7-8181BF189245";
paths = (
{
closed = 1;
nodes = (
"180 1446 LINE",
"180 -322 LINE",
"258 -322 LINE",
"258 64 LINE SMOOTH",
"258 90 OFFCURVE",
"264 96 OFFCURVE",
"284 78 CURVE SMOOTH",
"342 32 OFFCURVE",
"437 -20 OFFCURVE",
"571 -20 CURVE SMOOTH",
"857 -20 OFFCURVE",
"1040 204 OFFCURVE",
"1040 536 CURVE SMOOTH",
"1040 882 OFFCURVE",
"844 1054 OFFCURVE",
"594 1054 CURVE SMOOTH",
"376 1054 OFFCURVE",
"286 918 OFFCURVE",
"254 880 CURVE",
"254 1446 LINE"
);
},
{
closed = 1;
nodes = (
"258 710 LINE SMOOTH",
"258 826 OFFCURVE",
"390 978 OFFCURVE",
"584 978 CURVE SMOOTH",
"779 978 OFFCURVE",
"958 838 OFFCURVE",
"958 528 CURVE SMOOTH",
"958 232 OFFCURVE",
"794 54 OFFCURVE",
"569 54 CURVE SMOOTH",
"450 54 OFFCURVE",
"351 112 OFFCURVE",
"258 202 CURVE"
);
}
);
width = 1150;
}
);
leftKerningGroup = n;
leftMetricsKey = n;
rightKerningGroup = o;
rightMetricsKey = o;
unicode = 00FE;
},
{
color = 6;
glyphname = q;
lastChange = "2020-07-15 15:32:33 +0000";
layers = (
{
background = {
paths = (
{
closed = 1;
nodes = (
"842 1060 OFFCURVE",
"826 1044 OFFCURVE",
"816 1012 CURVE SMOOTH",
"784 920 LINE SMOOTH",
"778 902 OFFCURVE",
"771 900 OFFCURVE",
"758 914 CURVE SMOOTH",
"681 1014 OFFCURVE",
"572 1082 OFFCURVE",
"426 1082 CURVE SMOOTH",
"152 1082 OFFCURVE",
"-18 862 OFFCURVE",
"-18 528 CURVE SMOOTH",
"-18 172 OFFCURVE",
"145 -20 OFFCURVE",
"402 -20 CURVE SMOOTH",
"492 -20 OFFCURVE",
"578 22 OFFCURVE",
"650 78 CURVE SMOOTH",
"672 96 OFFCURVE",
"687 94 OFFCURVE",
"687 56 CURVE SMOOTH",
"687 -290 LINE SMOOTH",
"687 -316 OFFCURVE",
"700 -330 OFFCURVE",
"723 -330 CURVE SMOOTH",
"1048 -330 LINE SMOOTH",
"1070 -330 OFFCURVE",
"1086 -316 OFFCURVE",
"1086 -286 CURVE SMOOTH",
"1086 1008 LINE SMOOTH",
"1086 1042 OFFCURVE",
"1074 1060 OFFCURVE",
"1032 1060 CURVE SMOOTH",
"866 1060 LINE SMOOTH"
);
},
{
closed = 1;
nodes = (
"647 244 OFFCURVE",
"601 220 OFFCURVE",
"540 220 CURVE SMOOTH",
"444 220 OFFCURVE",
"386 296 OFFCURVE",
"386 530 CURVE SMOOTH",
"386 762 OFFCURVE",
"450 852 OFFCURVE",
"548 852 CURVE SMOOTH",
"632 852 OFFCURVE",
"687 786 OFFCURVE",
"687 688 CURVE SMOOTH",
"687 286 LINE"
);
}
);
};
layerId = "258ED206-D907-4350-8EBA-CBDDA1C16BF7";
paths = (
{
closed = 1;
nodes = (
"1135 1034 LINE",
"744 1034 LINE",
"744 914 LINE",
"666 1020 OFFCURVE",
"537 1054 OFFCURVE",
"440 1054 CURVE SMOOTH",
"224 1054 OFFCURVE",
"60 886 OFFCURVE",
"60 520 CURVE SMOOTH",
"60 126 OFFCURVE",
"262 -20 OFFCURVE",
"482 -20 CURVE SMOOTH",
"567 -20 OFFCURVE",
"678 20 OFFCURVE",
"746 126 CURVE",
"746 -322 LINE",
"1135 -322 LINE"
);
},
{
closed = 1;
nodes = (
"498 258 OFFCURVE",
"420 334 OFFCURVE",
"420 520 CURVE SMOOTH",
"420 688 OFFCURVE",
"498 780 OFFCURVE",
"584 780 CURVE SMOOTH",
"698 780 OFFCURVE",
"746 660 OFFCURVE",
"746 520 CURVE",
"746 393 OFFCURVE",
"698 258 OFFCURVE",
"584 258 CURVE"
);
}
);
width = 1235;
},
{
layerId = "91AB5BCA-6A50-42DA-B2F7-8181BF189245";
paths = (
{
closed = 1;
nodes = (
"988 1034 LINE",
"912 1034 LINE",
"908 822 LINE",
"878 896 OFFCURVE",
"788 1054 OFFCURVE",
"550 1054 CURVE SMOOTH",
"251 1054 OFFCURVE",
"110 847 OFFCURVE",
"110 536 CURVE SMOOTH",
"110 158 OFFCURVE",
"286 -20 OFFCURVE",
"550 -20 CURVE SMOOTH",
"788 -20 OFFCURVE",
"877 140 OFFCURVE",
"908 219 CURVE",
"908 -322 LINE",
"988 -322 LINE"
);
},
{
closed = 1;
nodes = (
"308 54 OFFCURVE",
"194 244 OFFCURVE",
"194 528 CURVE SMOOTH",
"194 834 OFFCURVE",
"336 978 OFFCURVE",
"550 978 CURVE SMOOTH",
"784 978 OFFCURVE",
"911 802 OFFCURVE",
"911 528 CURVE SMOOTH",
"911 254 OFFCURVE",
"784 54 OFFCURVE",
"550 54 CURVE SMOOTH"
);
}
);
width = 1168;
}
);
leftKerningGroup = o;
leftMetricsKey = o;
rightKerningGroup = u;
rightMetricsKey = "=|n";
unicode = 0071;
},
{
color = 6;
glyphname = r;
lastChange = "2020-07-15 15:32:33 +0000";
layers = (
{
anchors = (
{
name = bottom;
position = "{293, 0}";
},
{
name = top;
position = "{472, 1034}";
}
);
background = {
anchors = (
{
name = bottom;
position = "{287, 0}";
},
{
name = top;
position = "{445, 1060}";
}
);
paths = (
{
closed = 1;
nodes = (
"398 0 LINE SMOOTH",
"443 0 OFFCURVE",
"463 16 OFFCURVE",
"463 58 CURVE SMOOTH",
"463 590 LINE SMOOTH",
"463 660 OFFCURVE",
"547 726 OFFCURVE",
"636 726 CURVE SMOOTH",
"673 726 OFFCURVE",
"745 720 OFFCURVE",
"808 704 CURVE SMOOTH",
"831 698 OFFCURVE",
"848 710 OFFCURVE",
"848 736 CURVE SMOOTH",
"848 1040 LINE SMOOTH",
"848 1068 OFFCURVE",
"819 1080 OFFCURVE",
"773 1080 CURVE SMOOTH",
"680 1080 OFFCURVE",
"547 1000 OFFCURVE",
"483 902 CURVE SMOOTH",
"470 884 OFFCURVE",
"449 888 OFFCURVE",
"449 908 CURVE SMOOTH",
"449 1020 LINE SMOOTH",
"449 1044 OFFCURVE",
"436 1060 OFFCURVE",
"413 1060 CURVE SMOOTH",
"102 1060 LINE SMOOTH",
"77 1060 OFFCURVE",
"64 1044 OFFCURVE",
"64 1014 CURVE SMOOTH",
"64 50 LINE SMOOTH",
"64 16 OFFCURVE",
"75 0 OFFCURVE",
"115 0 CURVE SMOOTH"
);
}
);
};
layerId = "258ED206-D907-4350-8EBA-CBDDA1C16BF7";
rightMetricsKey = "=25";
paths = (
{
closed = 1;
nodes = (
"489 0 LINE",
"489 496 LINE SMOOTH",
"489 604 OFFCURVE",
"535 718 OFFCURVE",
"825 688 CURVE",
"832 687 OFFCURVE",
"834 687 OFFCURVE",
"838 686 CURVE",
"838 1054 LINE",
"838 1054 OFFCURVE",
"832 1054 OFFCURVE",
"823 1054 CURVE",
"631 1054 OFFCURVE",
"523 914 OFFCURVE",
"476 748 CURVE",
"476 1034 LINE",
"100 1034 LINE",
"100 0 LINE"
);
}
);
width = 863;
},
{
anchors = (
{
name = bottom;
position = "{218, 0}";
},
{
name = top;
position = "{397, 1034}";
}
);
layerId = "91AB5BCA-6A50-42DA-B2F7-8181BF189245";
rightMetricsKey = "=x";
paths = (
{
closed = 1;
nodes = (
"258 0 LINE",
"258 720 LINE SMOOTH",
"258 926 OFFCURVE",
"438 972 OFFCURVE",
"537 972 CURVE",
"566 972 OFFCURVE",
"621 967 OFFCURVE",
"649 954 CURVE",
"649 1034 LINE",
"623 1048 OFFCURVE",
"578 1054 OFFCURVE",
"537 1054 CURVE",
"438 1054 OFFCURVE",
"306 1020 OFFCURVE",
"252 880 CURVE",
"252 1034 LINE",
"180 1034 LINE",
"180 0 LINE"
);
}
);
width = 739;
}
);
leftKerningGroup = n;
leftMetricsKey = n;
rightKerningGroup = r;
rightMetricsKey = "x*1.1";
unicode = 0072;
},
{
color = 6;
glyphname = s;
lastChange = "2020-07-15 15:32:33 +0000";
layers = (
{
anchors = (
{
name = bottom;
position = "{558, 0}";
},
{
name = top;
position = "{560, 1034}";
}
);
background = {
anchors = (
{
name = bottom;
position = "{533, 0}";
},
{
name = top;
position = "{535, 1060}";
}
);
paths = (
{
closed = 1;
nodes = (
"760 738 OFFCURVE",
"778 728 OFFCURVE",
"802 740 CURVE SMOOTH",
"986 828 LINE SMOOTH",
"1014 842 OFFCURVE",
"997 868 OFFCURVE",
"986 888 CURVE SMOOTH",
"928 986 OFFCURVE",
"766 1080 OFFCURVE",
"548 1080 CURVE SMOOTH",
"238 1080 OFFCURVE",
"66 922 OFFCURVE",
"68 714 CURVE SMOOTH",
"70 532 OFFCURVE",
"192 432 OFFCURVE",
"394 396 CURVE SMOOTH",
"598 360 LINE SMOOTH",
"674 346 OFFCURVE",
"690 324 OFFCURVE",
"690 298 CURVE SMOOTH",
"690 248 OFFCURVE",
"623 228 OFFCURVE",
"539 226 CURVE SMOOTH",
"380 222 OFFCURVE",
"325 288 OFFCURVE",
"280 340 CURVE SMOOTH",
"266 356 OFFCURVE",
"252 360 OFFCURVE",
"218 344 CURVE SMOOTH",
"44 256 LINE SMOOTH",
"24 246 OFFCURVE",
"26 222 OFFCURVE",
"39 198 CURVE SMOOTH",
"106 78 OFFCURVE",
"282 -20 OFFCURVE",
"537 -20 CURVE SMOOTH",
"838 -20 OFFCURVE",
"1044 110 OFFCURVE",
"1044 340 CURVE SMOOTH",
"1044 494 OFFCURVE",
"955 630 OFFCURVE",
"708 682 CURVE SMOOTH",
"495 726 LINE SMOOTH",
"424 740 OFFCURVE",
"416 760 OFFCURVE",
"416 778 CURVE SMOOTH",
"416 822 OFFCURVE",
"474 848 OFFCURVE",
"544 848 CURVE SMOOTH",
"642 848 OFFCURVE",
"703 802 OFFCURVE",
"743 756 CURVE SMOOTH"
);
}
);
};
layerId = "258ED206-D907-4350-8EBA-CBDDA1C16BF7";
paths = (
{
closed = 1;
nodes = (
"820 -20 OFFCURVE",
"1026 98 OFFCURVE",
"1026 320 CURVE SMOOTH",
"1026 406 OFFCURVE",
"980 580 OFFCURVE",
"714 644 CURVE",
"581 668 LINE",
"470 686 OFFCURVE",
"426 706 OFFCURVE",
"426 742 CURVE SMOOTH",
"426 782 OFFCURVE",
"483 804 OFFCURVE",
"555 804 CURVE SMOOTH",
"626 804 OFFCURVE",
"688 774 OFFCURVE",
"703 712 CURVE",
"1020 712 LINE",
"1020 922 OFFCURVE",
"842 1054 OFFCURVE",
"560 1054 CURVE SMOOTH",
"258 1054 OFFCURVE",
"88 902 OFFCURVE",
"90 710 CURVE SMOOTH",
"92 524 OFFCURVE",
"224 430 OFFCURVE",
"422 394 CURVE",
"575 370 LINE",
"668 356 OFFCURVE",
"699 336 OFFCURVE",
"699 298 CURVE SMOOTH",
"699 256 OFFCURVE",
"640 236 OFFCURVE",
"554 236 CURVE SMOOTH",
"520 236 OFFCURVE",
"416 248 OFFCURVE",
"390 348 CURVE",
"60 348 LINE",
"104 84 OFFCURVE",
"340 -20 OFFCURVE",
"556 -20 CURVE SMOOTH"
);
}
);
width = 1092;
},
{
anchors = (
{
name = bottom;
position = "{483, 0}";
},
{
name = top;
position = "{509, 1034}";
}
);
layerId = "91AB5BCA-6A50-42DA-B2F7-8181BF189245";
leftMetricsKey = "=x*1.25";
rightMetricsKey = "=x*1.12";
paths = (
{
closed = 1;
nodes = (
"754 -20 OFFCURVE",
"869 96 OFFCURVE",
"869 270 CURVE SMOOTH",
"869 380 OFFCURVE",
"814 481 OFFCURVE",
"663 523 CURVE SMOOTH",
"417 591 LINE SMOOTH",
"301 623 OFFCURVE",
"233 670 OFFCURVE",
"233 764 CURVE SMOOTH",
"233 910 OFFCURVE",
"342 978 OFFCURVE",
"505 978 CURVE SMOOTH",
"662 978 OFFCURVE",
"746 899 OFFCURVE",
"760 780 CURVE",
"843 780 LINE",
"833 966 OFFCURVE",
"699 1054 OFFCURVE",
"505 1054 CURVE SMOOTH",
"264 1054 OFFCURVE",
"151 938 OFFCURVE",
"151 764 CURVE SMOOTH",
"151 626 OFFCURVE",
"245 555 OFFCURVE",
"396 513 CURVE SMOOTH",
"642 445 LINE SMOOTH",
"737 418 OFFCURVE",
"787 362 OFFCURVE",
"787 266 CURVE SMOOTH",
"787 123 OFFCURVE",
"676 56 OFFCURVE",
"509 56 CURVE SMOOTH",
"326 56 OFFCURVE",
"223 144 OFFCURVE",
"196 276 CURVE",
"113 276 LINE",
"136 75 OFFCURVE",
"292 -20 OFFCURVE",
"509 -20 CURVE SMOOTH"
);
}
);
width = 970;
}
);
leftKerningGroup = s;
leftMetricsKey = o;
rightKerningGroup = s;
rightMetricsKey = "=o*1.1";
unicode = 0073;
},
{
color = 6;
glyphname = germandbls;
lastChange = "2020-07-15 15:32:33 +0000";
layers = (
{
background = {
paths = (
{
closed = 1;
nodes = (
"203 1484 OFFCURVE",
"77 1250 OFFCURVE",
"67 1028 CURVE SMOOTH",
"67 1008 OFFCURVE",
"65 992 OFFCURVE",
"39 992 CURVE SMOOTH",
"3 992 LINE SMOOTH",
"-30 992 OFFCURVE",
"-45 972 OFFCURVE",
"-45 948 CURVE SMOOTH",
"-45 760 LINE SMOOTH",
"-45 732 OFFCURVE",
"-28 722 OFFCURVE",
"-1 722 CURVE SMOOTH",
"51 722 LINE SMOOTH",
"64 722 OFFCURVE",
"67 716 OFFCURVE",
"67 702 CURVE SMOOTH",
"67 40 LINE SMOOTH",
"67 14 OFFCURVE",
"81 0 OFFCURVE",
"104 0 CURVE SMOOTH",
"430 0 LINE SMOOTH",
"453 0 OFFCURVE",
"467 14 OFFCURVE",
"459 44 CURVE SMOOTH",
"459 1070 LINE SMOOTH",
"459 1162 OFFCURVE",
"512 1234 OFFCURVE",
"617 1234 CURVE SMOOTH",
"701 1234 OFFCURVE",
"743 1190 OFFCURVE",
"743 1136 CURVE SMOOTH",
"743 1070 OFFCURVE",
"686 1024 OFFCURVE",
"627 964 CURVE SMOOTH",
"575 910 OFFCURVE",
"523 842 OFFCURVE",
"523 736 CURVE SMOOTH",
"523 590 OFFCURVE",
"619 498 OFFCURVE",
"745 442 CURVE SMOOTH",
"852 396 OFFCURVE",
"899 374 OFFCURVE",
"899 316 CURVE SMOOTH",
"899 252 OFFCURVE",
"843 226 OFFCURVE",
"783 226 CURVE SMOOTH",
"726 226 OFFCURVE",
"686 250 OFFCURVE",
"659 266 CURVE SMOOTH",
"644 276 OFFCURVE",
"627 272 OFFCURVE",
"617 254 CURVE SMOOTH",
"535 76 LINE SMOOTH",
"527 60 OFFCURVE",
"531 42 OFFCURVE",
"549 32 CURVE SMOOTH",
"606 2 OFFCURVE",
"680 -20 OFFCURVE",
"791 -20 CURVE SMOOTH",
"1073 -20 OFFCURVE",
"1253 110 OFFCURVE",
"1253 358 CURVE SMOOTH",
"1253 626 OFFCURVE",
"1043 720 OFFCURVE",
"819 820 CURVE SMOOTH",
"810 824 OFFCURVE",
"806 830 OFFCURVE",
"806 836 CURVE SMOOTH",
"806 842 OFFCURVE",
"810 848 OFFCURVE",
"815 850 CURVE SMOOTH",
"1023 934 OFFCURVE",
"1102 1022 OFFCURVE",
"1102 1162 CURVE SMOOTH",
"1102 1374 OFFCURVE",
"923 1484 OFFCURVE",
"631 1484 CURVE SMOOTH"
);
}
);
};
layerId = "258ED206-D907-4350-8EBA-CBDDA1C16BF7";
paths = (
{
closed = 1;
nodes = (
"233 1446 OFFCURVE",
"109 1202 OFFCURVE",
"100 968 CURVE",
"102 0 LINE",
"483 0 LINE",
"483 1044 LINE SMOOTH",
"483 1132 OFFCURVE",
"535 1204 OFFCURVE",
"638 1204 CURVE SMOOTH",
"720 1204 OFFCURVE",
"762 1160 OFFCURVE",
"762 1108 CURVE SMOOTH",
"762 1044 OFFCURVE",
"703 998 OFFCURVE",
"648 940 CURVE SMOOTH",
"598 888 OFFCURVE",
"547 820 OFFCURVE",
"547 718 CURVE SMOOTH",
"547 576 OFFCURVE",
"640 486 OFFCURVE",
"764 430 CURVE SMOOTH",
"865 386 OFFCURVE",
"913 364 OFFCURVE",
"913 308 CURVE SMOOTH",
"913 246 OFFCURVE",
"859 220 OFFCURVE",
"799 220 CURVE SMOOTH",
"730 220 OFFCURVE",
"684 254 OFFCURVE",
"651 276 CURVE",
"545 44 LINE",
"606 8 OFFCURVE",
"688 -20 OFFCURVE",
"808 -20 CURVE SMOOTH",
"1083 -20 OFFCURVE",
"1257 108 OFFCURVE",
"1257 350 CURVE SMOOTH",
"1257 610 OFFCURVE",
"1054 702 OFFCURVE",
"835 800 CURVE SMOOTH",
"825 804 OFFCURVE",
"821 810 OFFCURVE",
"821 816 CURVE SMOOTH",
"821 820 OFFCURVE",
"825 826 OFFCURVE",
"831 828 CURVE SMOOTH",
"1033 910 OFFCURVE",
"1109 996 OFFCURVE",
"1109 1132 CURVE SMOOTH",
"1109 1340 OFFCURVE",
"938 1446 OFFCURVE",
"651 1446 CURVE SMOOTH"
);
}
);
width = 1323;
},
{
layerId = "91AB5BCA-6A50-42DA-B2F7-8181BF189245";
paths = (
{
closed = 1;
nodes = (
"344 1446 OFFCURVE",
"180 1292 OFFCURVE",
"180 1034 CURVE",
"182 0 LINE",
"260 0 LINE",
"260 1044 LINE SMOOTH",
"260 1268 OFFCURVE",
"388 1372 OFFCURVE",
"563 1372 CURVE SMOOTH",
"710 1372 OFFCURVE",
"794 1304 OFFCURVE",
"794 1194 CURVE SMOOTH",
"794 1074 OFFCURVE",
"698 1038 OFFCURVE",
"613 994 CURVE SMOOTH",
"473 924 OFFCURVE",
"414 872 OFFCURVE",
"414 774 CURVE SMOOTH",
"414 636 OFFCURVE",
"532 608 OFFCURVE",
"626 580 CURVE SMOOTH",
"771 534 OFFCURVE",
"920 482 OFFCURVE",
"920 302 CURVE SMOOTH",
"920 146 OFFCURVE",
"806 54 OFFCURVE",
"622 54 CURVE SMOOTH",
"525 54 OFFCURVE",
"468 80 OFFCURVE",
"401 118 CURVE",
"357 52 LINE",
"428 6 OFFCURVE",
"548 -20 OFFCURVE",
"636 -20 CURVE SMOOTH",
"832 -20 OFFCURVE",
"1002 94 OFFCURVE",
"1002 308 CURVE SMOOTH",
"1002 558 OFFCURVE",
"773 618 OFFCURVE",
"649 658 CURVE SMOOTH",
"534 694 OFFCURVE",
"496 710 OFFCURVE",
"496 776 CURVE SMOOTH",
"496 844 OFFCURVE",
"538 866 OFFCURVE",
"656 930 CURVE SMOOTH",
"762 986 OFFCURVE",
"876 1030 OFFCURVE",
"876 1188 CURVE SMOOTH",
"876 1306 OFFCURVE",
"809 1446 OFFCURVE",
"580 1446 CURVE SMOOTH"
);
}
);
width = 1106;
}
);
leftKerningGroup = n;
leftMetricsKey = n;
rightKerningGroup = s;
rightMetricsKey = s;
unicode = 00DF;
},
{
color = 6;
glyphname = t;
lastChange = "2020-07-15 15:32:33 +0000";
layers = (
{
anchors = (
{
name = bottom;
position = "{506, 18}";
},
{
name = caron;
position = "{544, 1586}";
},
{
name = center;
position = "{434, 516}";
}
);
background = {
anchors = (
{
name = bottom;
position = "{490, 0}";
},
{
name = center;
position = "{408, 530}";
},
{
name = topright;
position = "{838, 1630}";
}
);
paths = (
{
closed = 1;
nodes = (
"812 790 OFFCURVE",
"828 808 OFFCURVE",
"828 834 CURVE SMOOTH",
"828 1024 LINE SMOOTH",
"828 1050 OFFCURVE",
"810 1062 OFFCURVE",
"784 1062 CURVE SMOOTH",
"600 1062 LINE SMOOTH",
"586 1062 OFFCURVE",
"578 1070 OFFCURVE",
"578 1084 CURVE SMOOTH",
"578 1376 LINE SMOOTH",
"578 1404 OFFCURVE",
"562 1420 OFFCURVE",
"540 1420 CURVE SMOOTH",
"246 1420 LINE SMOOTH",
"222 1420 OFFCURVE",
"212 1406 OFFCURVE",
"210 1380 CURVE SMOOTH",
"178 1084 LINE SMOOTH",
"176 1068 OFFCURVE",
"168 1060 OFFCURVE",
"154 1060 CURVE SMOOTH",
"36 1060 LINE SMOOTH",
"8 1060 OFFCURVE",
"-8 1048 OFFCURVE",
"-8 1022 CURVE SMOOTH",
"-8 834 LINE SMOOTH",
"-8 808 OFFCURVE",
"6 790 OFFCURVE",
"40 790 CURVE SMOOTH",
"136 790 LINE SMOOTH",
"160 790 OFFCURVE",
"166 778 OFFCURVE",
"166 754 CURVE SMOOTH",
"166 266 LINE SMOOTH",
"166 94 OFFCURVE",
"306 0 OFFCURVE",
"498 0 CURVE SMOOTH",
"588 0 OFFCURVE",
"680 2 OFFCURVE",
"768 14 CURVE SMOOTH",
"806 22 OFFCURVE",
"826 42 OFFCURVE",
"826 74 CURVE SMOOTH",
"828 234 LINE SMOOTH",
"828 256 OFFCURVE",
"814 274 OFFCURVE",
"792 274 CURVE SMOOTH",
"706 274 LINE SMOOTH",
"608 274 OFFCURVE",
"566 310 OFFCURVE",
"566 380 CURVE SMOOTH",
"566 764 LINE SMOOTH",
"566 782 OFFCURVE",
"578 790 OFFCURVE",
"592 790 CURVE SMOOTH",
"778 790 LINE SMOOTH"
);
}
);
};
layerId = "258ED206-D907-4350-8EBA-CBDDA1C16BF7";
paths = (
{
closed = 1;
nodes = (
"812 1036 LINE",
"586 1036 LINE",
"586 1356 LINE",
"312 1356 LINE",
"212 1034 LINE",
"30 1034 LINE",
"30 770 LINE",
"198 770 LINE",
"198 284 LINE SMOOTH",
"198 118 OFFCURVE",
"280 -16 OFFCURVE",
"606 -16 CURVE SMOOTH",
"730 -16 OFFCURVE",
"784 2 OFFCURVE",
"812 16 CURVE",
"812 246 LINE",
"650 246 LINE SMOOTH",
"616 246 OFFCURVE",
"588 256 OFFCURVE",
"588 302 CURVE SMOOTH",
"586 770 LINE",
"812 770 LINE"
);
}
);
width = 882;
},
{
anchors = (
{
name = bottom;
position = "{443, 0}";
},
{
name = caron;
position = "{361, 1486}";
},
{
name = center;
position = "{385, 620}";
}
);
layerId = "91AB5BCA-6A50-42DA-B2F7-8181BF189245";
paths = (
{
closed = 1;
nodes = (
"609 1034 LINE",
"372 1034 LINE",
"372 1324 LINE",
"309 1324 LINE",
"293 1034 LINE",
"125 1034 LINE",
"125 966 LINE",
"293 966 LINE",
"293 232 LINE SMOOTH",
"293 66 OFFCURVE",
"337 0 OFFCURVE",
"493 0 CURVE SMOOTH",
"543 0 OFFCURVE",
"593 2 OFFCURVE",
"619 10 CURVE",
"619 78 LINE",
"531 78 LINE SMOOTH",
"401 78 OFFCURVE",
"372 88 OFFCURVE",
"372 232 CURVE SMOOTH",
"372 966 LINE",
"609 966 LINE"
);
}
);
width = 724;
}
);
leftKerningGroup = t;
rightKerningGroup = t;
unicode = 0074;
},
{
color = 3;
glyphname = tbar;
lastChange = "2020-07-15 11:52:13 +0000";
layers = (
{
components = (
{
name = t;
}
);
layerId = "258ED206-D907-4350-8EBA-CBDDA1C16BF7";
paths = (
{
closed = 1;
nodes = (
"58 660 LINE",
"58 450 LINE",
"783 450 LINE",
"783 660 LINE"
);
}
);
width = 882;
},
{
components = (
{
name = t;
}
);
guideLines = (
{
angle = 90;
position = "{126, 748}";
}
);
layerId = "91AB5BCA-6A50-42DA-B2F7-8181BF189245";
paths = (
{
closed = 1;
nodes = (
"125 654 LINE",
"125 586 LINE",
"608 586 LINE",
"608 654 LINE"
);
}
);
width = 724;
}
);
leftKerningGroup = t;
leftMetricsKey = t;
rightKerningGroup = t;
unicode = 0167;
},
{
color = 6;
glyphname = u;
lastChange = "2020-07-15 15:32:33 +0000";
layers = (
{
anchors = (
{
name = bottom;
position = "{613, 0}";
},
{
name = horn;
position = "{1062, 714}";
},
{
name = ogonek;
position = "{1064, 20}";
},
{
name = top;
position = "{606, 1034}";
}
);
background = {
anchors = (
{
name = bottom;
position = "{592, 0}";
},
{
name = ogonek;
position = "{1054, 20}";
},
{
name = top;
position = "{590, 1060}";
}
);
paths = (
{
closed = 1;
nodes = (
"504 260 OFFCURVE",
"464 296 OFFCURVE",
"464 358 CURVE SMOOTH",
"464 1008 LINE SMOOTH",
"464 1046 OFFCURVE",
"451 1060 OFFCURVE",
"418 1060 CURVE SMOOTH",
"126 1060 LINE SMOOTH",
"81 1060 OFFCURVE",
"64 1040 OFFCURVE",
"64 1000 CURVE SMOOTH",
"64 314 LINE SMOOTH",
"64 100 OFFCURVE",
"190 -20 OFFCURVE",
"361 -20 CURVE SMOOTH",
"495 -20 OFFCURVE",
"602 28 OFFCURVE",
"693 136 CURVE SMOOTH",
"707 150 OFFCURVE",
"718 144 OFFCURVE",
"718 128 CURVE SMOOTH",
"718 40 LINE SMOOTH",
"718 14 OFFCURVE",
"731 0 OFFCURVE",
"754 0 CURVE SMOOTH",
"1069 0 LINE SMOOTH",
"1094 0 OFFCURVE",
"1107 16 OFFCURVE",
"1107 44 CURVE SMOOTH",
"1115 1008 LINE SMOOTH",
"1115 1044 OFFCURVE",
"1102 1060 OFFCURVE",
"1064 1060 CURVE SMOOTH",
"777 1060 LINE SMOOTH",
"731 1060 OFFCURVE",
"712 1042 OFFCURVE",
"712 1002 CURVE SMOOTH",
"712 342 LINE",
"676 296 OFFCURVE",
"621 260 OFFCURVE",
"562 260 CURVE SMOOTH"
);
}
);
};
layerId = "258ED206-D907-4350-8EBA-CBDDA1C16BF7";
paths = (
{
closed = 1;
nodes = (
"581 -20 OFFCURVE",
"745 6 OFFCURVE",
"783 212 CURVE",
"829 0 LINE",
"1117 0 LINE",
"1117 1034 LINE",
"731 1034 LINE",
"731 360 LINE",
"731 300 OFFCURVE",
"683 254 OFFCURVE",
"605 254 CURVE SMOOTH",
"526 254 OFFCURVE",
"480 300 OFFCURVE",
"480 360 CURVE SMOOTH",
"480 1034 LINE",
"90 1034 LINE",
"90 306 LINE SMOOTH",
"90 98 OFFCURVE",
"314 -20 OFFCURVE",
"481 -20 CURVE SMOOTH"
);
}
);
width = 1217;
},
{
anchors = (
{
name = bottom;
position = "{558, 0}";
},
{
name = horn;
position = "{922, 856}";
},
{
name = ogonek;
position = "{934, 22}";
},
{
name = top;
position = "{560, 1034}";
}
);
layerId = "91AB5BCA-6A50-42DA-B2F7-8181BF189245";
paths = (
{
closed = 1;
nodes = (
"731 -22 OFFCURVE",
"837 62 OFFCURVE",
"874 190 CURVE",
"880 0 LINE",
"952 0 LINE",
"952 1034 LINE",
"874 1034 LINE",
"874 362 LINE",
"874 154 OFFCURVE",
"746 56 OFFCURVE",
"555 56 CURVE SMOOTH",
"339 56 OFFCURVE",
"238 172 OFFCURVE",
"238 346 CURVE SMOOTH",
"238 1034 LINE",
"160 1034 LINE",
"160 346 LINE SMOOTH",
"160 100 OFFCURVE",
"320 -17 OFFCURVE",
"560 -20 CURVE SMOOTH"
);
}
);
width = 1132;
}
);
leftKerningGroup = u;
leftMetricsKey = "=|n";
rightKerningGroup = u;
rightMetricsKey = "=|n";
unicode = 0075;
},
{
color = 6;
glyphname = uhorn;
lastChange = "2020-07-15 15:32:33 +0000";
layers = (
{
anchors = (
{
name = bottom;
position = "{558, 0}";
},
{
name = horn;
position = "{922, 856}";
},
{
name = ogonek;
position = "{934, 22}";
},
{
name = top;
position = "{560, 1034}";
},
{
name = topright;
position = "{1058, 936}";
}
);
layerId = "91AB5BCA-6A50-42DA-B2F7-8181BF189245";
paths = (
{
closed = 1;
nodes = (
"1082 977 OFFCURVE",
"1049 928 OFFCURVE",
"952 924 CURVE",
"952 1034 LINE",
"874 1034 LINE",
"874 362 LINE SMOOTH",
"874 154 OFFCURVE",
"746 56 OFFCURVE",
"555 56 CURVE SMOOTH",
"339 56 OFFCURVE",
"238 172 OFFCURVE",
"238 346 CURVE SMOOTH",
"238 1034 LINE",
"160 1034 LINE",
"160 346 LINE SMOOTH",
"160 100 OFFCURVE",
"320 -17 OFFCURVE",
"560 -20 CURVE SMOOTH",
"731 -22 OFFCURVE",
"837 62 OFFCURVE",
"874 190 CURVE",
"880 0 LINE",
"952 0 LINE",
"952 854 LINE",
"1111 845 OFFCURVE",
"1188 932 OFFCURVE",
"1188 1114 CURVE",
"1086 1114 LINE"
);
}
);
width = 1188;
},
{
anchors = (
{
name = bottom;
position = "{613, 0}";
},
{
name = horn;
position = "{1062, 714}";
},
{
name = ogonek;
position = "{1064, 20}";
},
{
name = top;
position = "{606, 1034}";
},
{
name = topright;
position = "{1274, 894}";
}
);
layerId = "258ED206-D907-4350-8EBA-CBDDA1C16BF7";
paths = (
{
closed = 1;
nodes = (
"1261 908 OFFCURVE",
"1219 891 OFFCURVE",
"1117 891 CURVE",
"1117 1034 LINE",
"731 1034 LINE",
"731 360 LINE SMOOTH",
"731 300 OFFCURVE",
"683 254 OFFCURVE",
"605 254 CURVE SMOOTH",
"526 254 OFFCURVE",
"480 300 OFFCURVE",
"480 360 CURVE SMOOTH",
"480 1034 LINE",
"90 1034 LINE",
"90 306 LINE SMOOTH",
"90 98 OFFCURVE",
"314 -20 OFFCURVE",
"481 -20 CURVE SMOOTH",
"581 -20 OFFCURVE",
"745 6 OFFCURVE",
"783 212 CURVE",
"829 0 LINE",
"1117 0 LINE",
"1117 709 LINE",
"1429 687 OFFCURVE",
"1508 803 OFFCURVE",
"1512 1112 CURVE",
"1278 1112 LINE"
);
}
);
width = 1526;
}
);
leftKerningGroup = u;
rightKerningGroup = uhorn;
unicode = 01B0;
},
{
color = 6;
glyphname = v;
lastChange = "2020-07-15 15:32:33 +0000";
layers = (
{
background = {
paths = (
{
closed = 1;
nodes = (
"820 1060 LINE SMOOTH",
"796 1060 OFFCURVE",
"778 1042 OFFCURVE",
"768 1020 CURVE SMOOTH",
"598 560 LINE SMOOTH",
"586 532 OFFCURVE",
"576 534 OFFCURVE",
"568 558 CURVE SMOOTH",
"392 1020 LINE SMOOTH",
"384 1042 OFFCURVE",
"364 1060 OFFCURVE",
"340 1060 CURVE SMOOTH",
"2 1060 LINE SMOOTH",
"-31 1060 OFFCURVE",
"-47 1030 OFFCURVE",
"-37 1002 CURVE SMOOTH",
"352 50 LINE SMOOTH",
"366 16 OFFCURVE",
"386 0 OFFCURVE",
"426 0 CURVE SMOOTH",
"614 0 LINE SMOOTH",
"654 0 OFFCURVE",
"674 16 OFFCURVE",
"688 50 CURVE SMOOTH",
"1078 1002 LINE SMOOTH",
"1088 1030 OFFCURVE",
"1076 1060 OFFCURVE",
"1044 1060 CURVE SMOOTH"
);
}
);
};
layerId = "258ED206-D907-4350-8EBA-CBDDA1C16BF7";
paths = (
{
closed = 1;
nodes = (
"710 1034 LINE",
"536 506 LINE",
"536 506 LINE",
"354 1034 LINE",
"8 1034 LINE",
"410 0 LINE",
"660 0 LINE",
"1063 1034 LINE"
);
}
);
width = 1070;
},
{
layerId = "91AB5BCA-6A50-42DA-B2F7-8181BF189245";
paths = (
{
closed = 1;
nodes = (
"831 1034 LINE",
"501 88 LINE",
"475 88 LINE",
"152 1034 LINE",
"68 1034 LINE",
"427 0 LINE",
"553 0 LINE",
"909 1034 LINE"
);
}
);
width = 977;
}
);
leftKerningGroup = v;
leftMetricsKey = "=x*.75";
rightKerningGroup = v;
rightMetricsKey = "=x*.75";
unicode = 0076;
},
{
color = 6;
glyphname = w;
lastChange = "2020-07-15 15:32:33 +0000";
layers = (
{
anchors = (
{
name = top;
position = "{806, 1034}";
}
);
background = {
anchors = (
{
name = top;
position = "{787, 1060}";
}
);
paths = (
{
closed = 1;
nodes = (
"1354 1060 LINE SMOOTH",
"1329 1060 OFFCURVE",
"1312 1042 OFFCURVE",
"1302 1020 CURVE",
"1165 594 LINE SMOOTH",
"1155 566 OFFCURVE",
"1142 568 OFFCURVE",
"1136 592 CURVE SMOOTH",
"1010 1020 LINE SMOOTH",
"1004 1042 OFFCURVE",
"981 1060 OFFCURVE",
"960 1060 CURVE SMOOTH",
"741 1060 LINE SMOOTH",
"718 1060 OFFCURVE",
"695 1042 OFFCURVE",
"689 1020 CURVE SMOOTH",
"560 594 LINE SMOOTH",
"550 566 OFFCURVE",
"535 568 OFFCURVE",
"529 592 CURVE SMOOTH",
"392 1020 LINE SMOOTH",
"386 1042 OFFCURVE",
"363 1060 OFFCURVE",
"340 1060 CURVE SMOOTH",
"29 1060 LINE SMOOTH",
"-3 1060 OFFCURVE",
"-19 1030 OFFCURVE",
"-9 1002 CURVE SMOOTH",
"317 44 LINE SMOOTH",
"327 12 OFFCURVE",
"344 0 OFFCURVE",
"373 0 CURVE SMOOTH",
"588 0 LINE SMOOTH",
"617 0 OFFCURVE",
"628 10 OFFCURVE",
"636 36 CURVE SMOOTH",
"775 464 LINE SMOOTH",
"783 492 OFFCURVE",
"798 492 OFFCURVE",
"808 464 CURVE SMOOTH",
"936 44 LINE SMOOTH",
"945 12 OFFCURVE",
"962 0 OFFCURVE",
"993 0 CURVE SMOOTH",
"1201 0 LINE SMOOTH",
"1229 0 OFFCURVE",
"1239 10 OFFCURVE",
"1247 36 CURVE SMOOTH",
"1588 1002 LINE SMOOTH",
"1600 1030 OFFCURVE",
"1586 1060 OFFCURVE",
"1554 1060 CURVE SMOOTH"
);
}
);
};
layerId = "258ED206-D907-4350-8EBA-CBDDA1C16BF7";
paths = (
{
closed = 1;
nodes = (
"1239 1034 LINE",
"1079 530 LINE",
"1079 530 LINE",
"932 1034 LINE",
"661 1034 LINE",
"510 532 LINE",
"510 532 LINE",
"348 1034 LINE",
"10 1034 LINE",
"359 0 LINE",
"626 0 LINE",
"789 502 LINE",
"943 0 LINE",
"1222 0 LINE",
"1586 1034 LINE"
);
}
);
width = 1595;
},
{
anchors = (
{
name = top;
position = "{789, 1034}";
}
);
layerId = "91AB5BCA-6A50-42DA-B2F7-8181BF189245";
paths = (
{
closed = 1;
nodes = (
"1395 1034 LINE",
"1133 90 LINE",
"1108 90 LINE",
"816 1034 LINE",
"745 1034 LINE",
"469 86 LINE",
"445 86 LINE",
"169 1034 LINE",
"85 1034 LINE",
"389 0 LINE",
"524 0 LINE",
"781 900 LINE",
"1059 0 LINE",
"1190 0 LINE",
"1477 1034 LINE"
);
}
);
width = 1562;
}
);
leftKerningGroup = v;
leftMetricsKey = "=v*1.25";
rightKerningGroup = v;
rightMetricsKey = "=v*1.25";
unicode = 0077;
},
{
color = 6;
glyphname = x;
lastChange = "2020-07-15 15:32:33 +0000";
layers = (
{
background = {
paths = (
{
closed = 1;
nodes = (
"814 558 LINE SMOOTH",
"794 586 OFFCURVE",
"790 600 OFFCURVE",
"812 630 CURVE SMOOTH",
"1084 1002 LINE SMOOTH",
"1106 1032 OFFCURVE",
"1106 1060 OFFCURVE",
"1056 1060 CURVE SMOOTH",
"824 1060 LINE SMOOTH",
"778 1060 OFFCURVE",
"760 1048 OFFCURVE",
"742 1020 CURVE SMOOTH",
"622 824 LINE SMOOTH",
"608 800 OFFCURVE",
"598 804 OFFCURVE",
"586 824 CURVE SMOOTH",
"456 1020 LINE SMOOTH",
"438 1048 OFFCURVE",
"420 1060 OFFCURVE",
"374 1060 CURVE SMOOTH",
"56 1060 LINE SMOOTH",
"10 1060 OFFCURVE",
"-4 1020 OFFCURVE",
"18 990 CURVE SMOOTH",
"326 568 LINE SMOOTH",
"348 538 OFFCURVE",
"350 524 OFFCURVE",
"328 496 CURVE SMOOTH",
"26 102 LINE SMOOTH",
"-32 26 OFFCURVE",
"-2 0 OFFCURVE",
"54 0 CURVE SMOOTH",
"264 0 LINE SMOOTH",
"304 0 OFFCURVE",
"330 12 OFFCURVE",
"348 40 CURVE SMOOTH",
"504 270 LINE SMOOTH",
"530 308 OFFCURVE",
"534 306 OFFCURVE",
"560 268 CURVE SMOOTH",
"716 40 LINE SMOOTH",
"734 12 OFFCURVE",
"760 0 OFFCURVE",
"800 0 CURVE SMOOTH",
"1132 0 LINE SMOOTH",
"1190 0 OFFCURVE",
"1196 22 OFFCURVE",
"1150 86 CURVE SMOOTH"
);
}
);
};
layerId = "258ED206-D907-4350-8EBA-CBDDA1C16BF7";
paths = (
{
closed = 1;
nodes = (
"812 540 LINE",
"1176 1034 LINE",
"776 1034 LINE",
"612 810 LINE",
"446 1034 LINE",
"46 1034 LINE",
"406 540 LINE",
"10 0 LINE",
"410 0 LINE",
"610 274 LINE",
"808 0 LINE",
"1208 0 LINE"
);
}
);
width = 1218;
},
{
layerId = "91AB5BCA-6A50-42DA-B2F7-8181BF189245";
paths = (
{
closed = 1;
nodes = (
"592 536 LINE",
"962 1034 LINE",
"864 1034 LINE",
"540 598 LINE",
"218 1034 LINE",
"120 1034 LINE",
"490 536 LINE",
"90 0 LINE",
"189 0 LINE",
"540 474 LINE",
"895 0 LINE",
"992 0 LINE"
);
}
);
width = 1082;
}
);
leftKerningGroup = x;
rightKerningGroup = x;
unicode = 0078;
},
{
color = 6;
glyphname = y;
lastChange = "2020-07-15 15:32:33 +0000";
layers = (
{
anchors = (
{
name = top;
position = "{586, 1034}";
}
);
background = {
anchors = (
{
name = top;
position = "{613, 1060}";
}
);
paths = (
{
closed = 1;
nodes = (
"462 -330 OFFCURVE",
"579 -272 OFFCURVE",
"718 62 CURVE SMOOTH",
"1107 1002 LINE SMOOTH",
"1119 1030 OFFCURVE",
"1105 1060 OFFCURVE",
"1073 1060 CURVE SMOOTH",
"850 1060 LINE SMOOTH",
"825 1060 OFFCURVE",
"808 1042 OFFCURVE",
"798 1020 CURVE SMOOTH",
"626 540 LINE SMOOTH",
"613 512 OFFCURVE",
"600 516 OFFCURVE",
"592 540 CURVE SMOOTH",
"422 1020 LINE SMOOTH",
"413 1042 OFFCURVE",
"394 1060 OFFCURVE",
"369 1060 CURVE SMOOTH",
"31 1060 LINE SMOOTH",
"0 1060 OFFCURVE",
"-19 1030 OFFCURVE",
"-7 1002 CURVE SMOOTH",
"382 62 LINE SMOOTH",
"401 14 OFFCURVE",
"344 -44 OFFCURVE",
"252 -44 CURVE SMOOTH",
"109 -44 LINE SMOOTH",
"65 -44 OFFCURVE",
"54 -66 OFFCURVE",
"54 -82 CURVE SMOOTH",
"54 -286 LINE SMOOTH",
"54 -324 OFFCURVE",
"81 -330 OFFCURVE",
"166 -330 CURVE SMOOTH"
);
}
);
};
layerId = "258ED206-D907-4350-8EBA-CBDDA1C16BF7";
paths = (
{
closed = 1;
nodes = (
"493 -330 OFFCURVE",
"632 -266 OFFCURVE",
"766 60 CURVE SMOOTH",
"1170 1034 LINE",
"789 1034 LINE",
"586 472 LINE",
"390 1034 LINE",
"8 1034 LINE",
"409 60 LINE",
"405 40 LINE",
"401 28 OFFCURVE",
"392 -62 OFFCURVE",
"189 -46 CURVE SMOOTH",
"90 -40 LINE",
"90 -286 LINE SMOOTH",
"90 -286 OFFCURVE",
"155 -330 OFFCURVE",
"315 -330 CURVE SMOOTH"
);
}
);
width = 1177;
},
{
anchors = (
{
name = top;
position = "{515, 1034}";
}
);
layerId = "91AB5BCA-6A50-42DA-B2F7-8181BF189245";
paths = (
{
closed = 1;
nodes = (
"349 -330 OFFCURVE",
"442 -280 OFFCURVE",
"494 -150 CURVE SMOOTH",
"946 1034 LINE",
"870 1034 LINE",
"515 112 LINE",
"152 1034 LINE",
"68 1034 LINE",
"473 6 LINE",
"420 -132 LINE",
"391 -204 OFFCURVE",
"338 -260 OFFCURVE",
"210 -260 CURVE SMOOTH",
"101 -260 LINE",
"101 -314 LINE SMOOTH",
"101 -314 OFFCURVE",
"124 -330 OFFCURVE",
"225 -330 CURVE SMOOTH"
);
}
);
width = 1014;
}
);
leftKerningGroup = v;
leftMetricsKey = v;
rightKerningGroup = v;
rightMetricsKey = v;
unicode = 0079;
},
{
color = 6;
glyphname = z;
lastChange = "2020-07-15 15:32:33 +0000";
layers = (
{
anchors = (
{
name = bottom;
position = "{510, 0}";
},
{
name = top;
position = "{510, 1034}";
}
);
background = {
anchors = (
{
name = top;
position = "{531, 1060}";
}
);
paths = (
{
closed = 1;
nodes = (
"1016 0 LINE",
"1016 248 LINE",
"514 248 LINE",
"1014 878 LINE",
"1014 1060 LINE",
"58 1060 LINE",
"58 816 LINE",
"508 816 LINE",
"14 188 LINE",
"14 0 LINE"
);
}
);
};
layerId = "258ED206-D907-4350-8EBA-CBDDA1C16BF7";
paths = (
{
closed = 1;
nodes = (
"971 0 LINE",
"971 266 LINE",
"524 266 LINE",
"969 828 LINE",
"969 1034 LINE",
"77 1034 LINE",
"77 768 LINE",
"494 768 LINE",
"50 206 LINE",
"50 0 LINE"
);
}
);
width = 1021;
},
{
anchors = (
{
name = bottom;
position = "{479, 0}";
},
{
name = top;
position = "{479, 1034}";
}
);
layerId = "91AB5BCA-6A50-42DA-B2F7-8181BF189245";
paths = (
{
closed = 1;
nodes = (
"840 0 LINE",
"840 68 LINE",
"178 68 LINE",
"833 966 LINE",
"833 1034 LINE",
"114 1034 LINE",
"114 966 LINE",
"747 966 LINE",
"90 68 LINE",
"90 0 LINE"
);
}
);
width = 930;
}
);
leftKerningGroup = z;
leftMetricsKey = "=n/2";
rightKerningGroup = z;
rightMetricsKey = "=u/2";
unicode = 007A;
},
{
color = 6;
glyphname = g.ss01;
lastChange = "2020-07-15 15:32:33 +0000";
layers = (
{
anchors = (
{
name = top;
position = "{736, 1032}";
}
);
background = {
anchors = (
{
name = top;
position = "{758, 1060}";
}
);
paths = (
{
closed = 1;
nodes = (
"814 -348 OFFCURVE",
"1218 -288 OFFCURVE",
"1218 14 CURVE SMOOTH",
"1218 180 OFFCURVE",
"1098 288 OFFCURVE",
"824 304 CURVE SMOOTH",
"522 322 LINE SMOOTH",
"472 326 OFFCURVE",
"448 330 OFFCURVE",
"448 348 CURVE SMOOTH",
"448 410 OFFCURVE",
"621 418 OFFCURVE",
"658 418 CURVE SMOOTH",
"879 418 OFFCURVE",
"1200 504 OFFCURVE",
"1200 754 CURVE SMOOTH",
"1200 776 OFFCURVE",
"1198 796 OFFCURVE",
"1194 806 CURVE SMOOTH",
"1180 838 OFFCURVE",
"1198 856 OFFCURVE",
"1243 856 CURVE SMOOTH",
"1260 856 OFFCURVE",
"1316 854 OFFCURVE",
"1350 852 CURVE SMOOTH",
"1373 850 OFFCURVE",
"1386 856 OFFCURVE",
"1392 902 CURVE SMOOTH",
"1415 1082 LINE SMOOTH",
"1419 1118 OFFCURVE",
"1400 1124 OFFCURVE",
"1369 1124 CURVE SMOOTH",
"1320 1124 OFFCURVE",
"1200 1086 OFFCURVE",
"1138 1012 CURVE SMOOTH",
"1116 986 OFFCURVE",
"1083 952 OFFCURVE",
"1064 972 CURVE SMOOTH",
"1008 1024 OFFCURVE",
"902 1076 OFFCURVE",
"696 1076 CURVE SMOOTH",
"442 1076 OFFCURVE",
"172 978 OFFCURVE",
"172 722 CURVE SMOOTH",
"172 612 OFFCURVE",
"236 530 OFFCURVE",
"333 496 CURVE SMOOTH",
"362 486 OFFCURVE",
"354 472 OFFCURVE",
"320 460 CURVE SMOOTH",
"218 426 OFFCURVE",
"85 356 OFFCURVE",
"85 242 CURVE SMOOTH",
"85 164 OFFCURVE",
"123 124 OFFCURVE",
"190 100 CURVE SMOOTH",
"220 88 OFFCURVE",
"214 72 OFFCURVE",
"182 62 CURVE SMOOTH",
"75 32 OFFCURVE",
"-28 -20 OFFCURVE",
"-28 -122 CURVE SMOOTH",
"-28 -270 OFFCURVE",
"186 -348 OFFCURVE",
"520 -348 CURVE SMOOTH"
);
},
{
closed = 1;
nodes = (
"366 -172 OFFCURVE",
"300 -136 OFFCURVE",
"300 -80 CURVE SMOOTH",
"300 -8 OFFCURVE",
"411 16 OFFCURVE",
"459 18 CURVE",
"747 4 LINE SMOOTH",
"833 0 OFFCURVE",
"864 -16 OFFCURVE",
"864 -52 CURVE SMOOTH",
"864 -116 OFFCURVE",
"768 -172 OFFCURVE",
"543 -172 CURVE SMOOTH"
);
},
{
closed = 1;
nodes = (
"579 600 OFFCURVE",
"522 648 OFFCURVE",
"522 704 CURVE SMOOTH",
"522 804 OFFCURVE",
"600 890 OFFCURVE",
"698 890 CURVE SMOOTH",
"793 890 OFFCURVE",
"844 844 OFFCURVE",
"844 780 CURVE SMOOTH",
"844 676 OFFCURVE",
"766 600 OFFCURVE",
"665 600 CURVE SMOOTH"
);
}
);
};
layerId = "258ED206-D907-4350-8EBA-CBDDA1C16BF7";
paths = (
{
closed = 1;
nodes = (
"1142 1032 LINE",
"756 1032 LINE",
"756 912 LINE",
"711 984 OFFCURVE",
"598 1052 OFFCURVE",
"480 1052 CURVE SMOOTH",
"203 1052 OFFCURVE",
"66 780 OFFCURVE",
"66 556 CURVE SMOOTH",
"66 266 OFFCURVE",
"283 62 OFFCURVE",
"480 62 CURVE SMOOTH",
"612 62 OFFCURVE",
"722 84 OFFCURVE",
"780 180 CURVE",
"780 146 LINE SMOOTH",
"780 40 OFFCURVE",
"707 -58 OFFCURVE",
"568 -58 CURVE SMOOTH",
"491 -58 OFFCURVE",
"444 -12 OFFCURVE",
"444 8 CURVE",
"90 8 LINE",
"90 -92 OFFCURVE",
"236 -336 OFFCURVE",
"572 -336 CURVE SMOOTH",
"904 -336 OFFCURVE",
"1140 -108 OFFCURVE",
"1140 238 CURVE SMOOTH"
);
},
{
closed = 1;
nodes = (
"756 430 OFFCURVE",
"707 332 OFFCURVE",
"608 332 CURVE SMOOTH",
"518 332 OFFCURVE",
"457 440 OFFCURVE",
"457 556 CURVE SMOOTH",
"457 672 OFFCURVE",
"506 788 OFFCURVE",
"608 788 CURVE SMOOTH",
"696 788 OFFCURVE",
"756 672 OFFCURVE",
"756 556 CURVE",
"756 556 LINE SMOOTH"
);
}
);
width = 1232;
},
{
anchors = (
{
name = top;
position = "{605, 1032}";
}
);
layerId = "91AB5BCA-6A50-42DA-B2F7-8181BF189245";
paths = (
{
closed = 1;
nodes = (
"997 1032 LINE",
"930 1032 LINE",
"927 860 LINE",
"895 924 OFFCURVE",
"777 1052 OFFCURVE",
"585 1052 CURVE SMOOTH",
"283 1052 OFFCURVE",
"111 802 OFFCURVE",
"121 502 CURVE SMOOTH",
"131 222 OFFCURVE",
"305 12 OFFCURVE",
"597 12 CURVE SMOOTH",
"753 12 OFFCURVE",
"879 66 OFFCURVE",
"941 192 CURVE",
"939 24 LINE SMOOTH",
"937 -122 OFFCURVE",
"841 -272 OFFCURVE",
"581 -268 CURVE SMOOTH",
"445 -266 OFFCURVE",
"309 -204 OFFCURVE",
"267 -58 CURVE",
"183 -58 LINE",
"223 -240 OFFCURVE",
"393 -338 OFFCURVE",
"581 -338 CURVE SMOOTH",
"831 -338 OFFCURVE",
"1009 -216 OFFCURVE",
"1007 28 CURVE SMOOTH"
);
},
{
closed = 1;
nodes = (
"937 232 OFFCURVE",
"875 86 OFFCURVE",
"599 86 CURVE SMOOTH",
"361 86 OFFCURVE",
"203 256 OFFCURVE",
"203 502 CURVE SMOOTH",
"203 784 OFFCURVE",
"341 978 OFFCURVE",
"585 978 CURVE SMOOTH",
"773 978 OFFCURVE",
"927 830 OFFCURVE",
"930 708 CURVE",
"935 364 LINE SMOOTH"
);
}
);
width = 1167;
}
);
leftKerningGroup = o;
leftMetricsKey = e;
rightKerningGroup = q;
rightMetricsKey = n;
},
{
color = 6;
glyphname = l.ss01;
lastChange = "2020-07-15 15:32:33 +0000";
layers = (
{
anchors = (
{
name = bottom;
position = "{330, 0}";
},
{
name = top;
position = "{348, 1492}";
},
{
name = topright;
position = "{830, 1530}";
}
);
background = {
anchors = (
{
name = bottom;
position = "{206, 0}";
},
{
name = top;
position = "{318, 1484}";
},
{
name = topright;
position = "{692, 1060}";
}
);
paths = (
{
closed = 1;
nodes = (
"672 258 LINE",
"672 258 OFFCURVE",
"620 262 OFFCURVE",
"602 266 CURVE SMOOTH",
"524 284 OFFCURVE",
"510 326 OFFCURVE",
"510 380 CURVE SMOOTH",
"510 1484 LINE",
"116 1484 LINE",
"110 346 LINE",
"110 190 OFFCURVE",
"132 -2 OFFCURVE",
"522 4 CURVE SMOOTH",
"574 6 OFFCURVE",
"606 10 OFFCURVE",
"672 18 CURVE"
);
}
);
};
layerId = "258ED206-D907-4350-8EBA-CBDDA1C16BF7";
paths = (
{
closed = 1;
nodes = (
"530 0 LINE",
"530 1486 LINE",
"140 1486 LINE",
"140 0 LINE"
);
}
);
width = 670;
},
{
anchors = (
{
name = bottom;
position = "{246, 0}";
},
{
name = top;
position = "{250, 1486}";
},
{
name = topright;
position = "{500, 1492}";
}
);
layerId = "91AB5BCA-6A50-42DA-B2F7-8181BF189245";
paths = (
{
closed = 1;
nodes = (
"288 0 LINE",
"288 1486 LINE",
"210 1486 LINE",
"210 0 LINE"
);
}
);
width = 498;
}
);
leftKerningGroup = n;
rightKerningGroup = u;
},
{
color = 6;
glyphname = ordfeminine;
lastChange = "2020-07-15 15:32:33 +0000";
layers = (
{
background = {
paths = (
{
closed = 1;
nodes = (
"181 1504 OFFCURVE",
"112 1452 OFFCURVE",
"64 1354 CURVE SMOOTH",
"57 1342 OFFCURVE",
"62 1318 OFFCURVE",
"72 1314 CURVE SMOOTH",
"236 1282 LINE SMOOTH",
"257 1278 OFFCURVE",
"263 1280 OFFCURVE",
"270 1296 CURVE SMOOTH",
"291 1342 OFFCURVE",
"331 1354 OFFCURVE",
"367 1354 CURVE SMOOTH",
"417 1354 OFFCURVE",
"442 1328 OFFCURVE",
"442 1282 CURVE SMOOTH",
"442 1266 LINE SMOOTH",
"442 1252 OFFCURVE",
"436 1244 OFFCURVE",
"417 1244 CURVE SMOOTH",
"391 1242 LINE SMOOTH",
"152 1228 OFFCURVE",
"30 1142 OFFCURVE",
"30 1008 CURVE SMOOTH",
"30 894 OFFCURVE",
"106 816 OFFCURVE",
"245 816 CURVE SMOOTH",
"312 816 OFFCURVE",
"349 834 OFFCURVE",
"409 868 CURVE SMOOTH",
"433 884 OFFCURVE",
"444 880 OFFCURVE",
"446 868 CURVE SMOOTH",
"448 860 LINE SMOOTH",
"451 842 OFFCURVE",
"453 828 OFFCURVE",
"482 828 CURVE SMOOTH",
"627 828 LINE SMOOTH",
"667 828 OFFCURVE",
"701 834 OFFCURVE",
"692 864 CURVE SMOOTH",
"683 892 OFFCURVE",
"677 914 OFFCURVE",
"677 950 CURVE SMOOTH",
"677 1298 LINE SMOOTH",
"677 1426 OFFCURVE",
"610 1502 OFFCURVE",
"373 1504 CURVE SMOOTH"
);
},
{
closed = 1;
nodes = (
"272 1080 OFFCURVE",
"341 1114 OFFCURVE",
"389 1118 CURVE SMOOTH",
"417 1122 LINE SMOOTH",
"436 1124 OFFCURVE",
"442 1114 OFFCURVE",
"442 1098 CURVE SMOOTH",
"442 1028 LINE SMOOTH",
"442 1008 OFFCURVE",
"433 998 OFFCURVE",
"421 988 CURVE SMOOTH",
"404 974 OFFCURVE",
"375 964 OFFCURVE",
"347 964 CURVE SMOOTH",
"297 964 OFFCURVE",
"272 988 OFFCURVE",
"272 1024 CURVE SMOOTH"
);
}
);
};
layerId = "258ED206-D907-4350-8EBA-CBDDA1C16BF7";
paths = (
{
closed = 1;
nodes = (
"354 796 OFFCURVE",
"398 820 OFFCURVE",
"467 864 CURVE",
"482 808 LINE",
"719 808 LINE",
"705 856 LINE",
"698 886 OFFCURVE",
"698 988 OFFCURVE",
"698 1002 CURVE SMOOTH",
"698 1098 OFFCURVE",
"698 1152 OFFCURVE",
"698 1266 CURVE SMOOTH",
"698 1390 OFFCURVE",
"631 1464 OFFCURVE",
"402 1466 CURVE SMOOTH",
"205 1466 OFFCURVE",
"133 1404 OFFCURVE",
"81 1286 CURVE",
"291 1246 LINE",
"314 1306 OFFCURVE",
"356 1320 OFFCURVE",
"396 1320 CURVE SMOOTH",
"419 1320 OFFCURVE",
"467 1312 OFFCURVE",
"467 1250 CURVE",
"467 1210 LINE",
"419 1210 LINE SMOOTH",
"203 1210 OFFCURVE",
"66 1114 OFFCURVE",
"66 982 CURVE SMOOTH",
"66 872 OFFCURVE",
"139 796 OFFCURVE",
"278 796 CURVE SMOOTH"
);
},
{
closed = 1;
nodes = (
"327 940 OFFCURVE",
"301 964 OFFCURVE",
"301 998 CURVE SMOOTH",
"301 1054 OFFCURVE",
"356 1090 OFFCURVE",
"427 1090 CURVE SMOOTH",
"467 1090 LINE",
"467 1002 LINE SMOOTH",
"467 982 OFFCURVE",
"459 974 OFFCURVE",
"448 964 CURVE SMOOTH",
"431 950 OFFCURVE",
"404 940 OFFCURVE",
"375 940 CURVE SMOOTH"
);
}
);
width = 809;
},
{
layerId = "91AB5BCA-6A50-42DA-B2F7-8181BF189245";
paths = (
{
closed = 1;
nodes = (
"431 790 OFFCURVE",
"499 824 OFFCURVE",
"571 902 CURVE",
"588 802 LINE",
"663 802 LINE",
"651 886 LINE",
"645 936 OFFCURVE",
"643 976 OFFCURVE",
"643 1016 CURVE SMOOTH",
"643 1054 OFFCURVE",
"643 1132 OFFCURVE",
"643 1236 CURVE SMOOTH",
"643 1374 OFFCURVE",
"555 1460 OFFCURVE",
"401 1460 CURVE SMOOTH",
"279 1460 OFFCURVE",
"183 1406 OFFCURVE",
"138 1314 CURVE",
"199 1288 LINE",
"254 1370 OFFCURVE",
"309 1394 OFFCURVE",
"393 1394 CURVE SMOOTH",
"510 1394 OFFCURVE",
"573 1346 OFFCURVE",
"573 1244 CURVE SMOOTH",
"573 1194 LINE",
"431 1180 LINE SMOOTH",
"227 1160 OFFCURVE",
"121 1092 OFFCURVE",
"121 968 CURVE SMOOTH",
"121 856 OFFCURVE",
"203 790 OFFCURVE",
"340 790 CURVE SMOOTH"
);
},
{
closed = 1;
nodes = (
"262 852 OFFCURVE",
"197 898 OFFCURVE",
"197 970 CURVE SMOOTH",
"197 1054 OFFCURVE",
"277 1108 OFFCURVE",
"455 1122 CURVE SMOOTH",
"573 1132 LINE",
"573 1016 LINE SMOOTH",
"573 980 OFFCURVE",
"552 948 OFFCURVE",
"513 914 CURVE SMOOTH",
"468 872 OFFCURVE",
"417 852 OFFCURVE",
"355 852 CURVE SMOOTH"
);
}
);
width = 823;
}
);
leftMetricsKey = a;
rightMetricsKey = a;
unicode = 00AA;
},
{
color = 6;
glyphname = ordmasculine;
lastChange = "2020-07-15 15:32:33 +0000";
layers = (
{
background = {
paths = (
{
closed = 1;
nodes = (
"176 1504 OFFCURVE",
"24 1364 OFFCURVE",
"24 1156 CURVE SMOOTH",
"24 958 OFFCURVE",
"166 816 OFFCURVE",
"371 816 CURVE SMOOTH",
"577 816 OFFCURVE",
"722 958 OFFCURVE",
"722 1156 CURVE SMOOTH",
"722 1358 OFFCURVE",
"581 1504 OFFCURVE",
"371 1504 CURVE SMOOTH"
);
},
{
closed = 1;
nodes = (
"440 1348 OFFCURVE",
"470 1292 OFFCURVE",
"470 1162 CURVE SMOOTH",
"470 1032 OFFCURVE",
"440 976 OFFCURVE",
"371 976 CURVE SMOOTH",
"306 976 OFFCURVE",
"276 1032 OFFCURVE",
"276 1162 CURVE SMOOTH",
"276 1292 OFFCURVE",
"306 1348 OFFCURVE",
"371 1348 CURVE SMOOTH"
);
}
);
};
layerId = "258ED206-D907-4350-8EBA-CBDDA1C16BF7";
paths = (
{
closed = 1;
nodes = (
"208 1466 OFFCURVE",
"60 1330 OFFCURVE",
"60 1128 CURVE SMOOTH",
"60 934 OFFCURVE",
"199 796 OFFCURVE",
"400 796 CURVE SMOOTH",
"600 796 OFFCURVE",
"741 934 OFFCURVE",
"741 1128 CURVE SMOOTH",
"741 1324 OFFCURVE",
"604 1466 OFFCURVE",
"400 1466 CURVE SMOOTH"
);
},
{
closed = 1;
nodes = (
"466 1314 OFFCURVE",
"495 1260 OFFCURVE",
"495 1132 CURVE SMOOTH",
"495 1006 OFFCURVE",
"466 952 OFFCURVE",
"400 952 CURVE SMOOTH",
"336 952 OFFCURVE",
"306 1006 OFFCURVE",
"306 1132 CURVE SMOOTH",
"306 1260 OFFCURVE",
"336 1314 OFFCURVE",
"400 1314 CURVE SMOOTH"
);
}
);
width = 801;
},
{
layerId = "91AB5BCA-6A50-42DA-B2F7-8181BF189245";
paths = (
{
closed = 1;
nodes = (
"224 1464 OFFCURVE",
"110 1328 OFFCURVE",
"110 1126 CURVE SMOOTH",
"110 932 OFFCURVE",
"215 794 OFFCURVE",
"408 794 CURVE SMOOTH",
"602 794 OFFCURVE",
"708 932 OFFCURVE",
"708 1126 CURVE SMOOTH",
"708 1328 OFFCURVE",
"595 1464 OFFCURVE",
"408 1464 CURVE SMOOTH"
);
},
{
closed = 1;
nodes = (
"553 1396 OFFCURVE",
"629 1288 OFFCURVE",
"629 1132 CURVE SMOOTH",
"629 966 OFFCURVE",
"553 858 OFFCURVE",
"408 858 CURVE SMOOTH",
"264 858 OFFCURVE",
"190 966 OFFCURVE",
"190 1132 CURVE SMOOTH",
"190 1288 OFFCURVE",
"264 1396 OFFCURVE",
"408 1396 CURVE SMOOTH"
);
}
);
width = 818;
}
);
leftMetricsKey = o;
rightMetricsKey = o;
unicode = 00BA;
},
